<svg width="88" height="87" viewBox="0 0 88 87" fill="none" xmlns="http://www.w3.org/2000/svg">
<g clip-path="url(#clip0_245_926)">
<path fill-rule="evenodd" clip-rule="evenodd" d="M4.05547 49.4464C24.6461 28.3725 54.1355 32.295 78.1206 45.7415C78.533 45.9717 79.0562 45.8256 79.2865 45.4133C79.5168 45.0011 79.3707 44.4782 78.9583 44.248C54.3022 30.4236 23.997 26.5868 2.8298 48.2514C2.49936 48.5883 2.50616 49.1301 2.84485 49.4616C3.18178 49.7919 3.72376 49.785 4.05547 49.4464Z" fill="#1A86FE"/>
<path fill-rule="evenodd" clip-rule="evenodd" d="M78.09 44.7424C76.5852 44.7469 74.6966 44.7316 74.4823 44.7361C68.6731 44.8585 63.1941 45.8751 57.6739 47.7272C57.2257 47.877 56.984 48.3638 57.1337 48.8118C57.2835 49.2598 57.7704 49.5014 58.2187 49.3516C63.571 47.5538 68.8844 46.5665 74.5195 46.4485C74.8479 46.4414 79.0933 46.4783 79.9523 46.4213C80.3048 46.3996 80.4974 46.2778 80.5402 46.2448C80.7737 46.0779 80.8558 45.8732 80.8879 45.7042C80.9227 45.5131 80.9031 45.1837 80.6507 44.84C80.3851 44.4815 79.655 43.8762 79.483 43.7085C76.8954 41.1715 73.7863 38.5653 71.4055 35.5749C69.1349 32.7233 67.5248 29.5182 67.8116 25.648C67.8469 25.1769 67.4911 24.7661 67.0198 24.7309C66.5485 24.6956 66.1374 25.0513 66.1021 25.5224C65.7823 29.8494 67.5269 33.454 70.064 36.6409C72.4311 39.6134 75.4953 42.2189 78.09 44.7424Z" fill="#1A86FE"/>
</g>
<defs>
<clipPath id="clip0_245_926">
<rect width="62" height="62" fill="white" transform="matrix(-0.809017 -0.587785 0.588125 -0.80877 51 87)"/>
</clipPath>
</defs>
</svg>
