<svg width="100" height="100" viewBox="0 0 100 100" fill="none" xmlns="http://www.w3.org/2000/svg">
<circle cx="50" cy="50" r="50" fill="#FFF2F0"/>
<g clip-path="url(#clip0_245_888)">
<path d="M50.0002 31.0002C42.7907 31.0002 36.9324 36.8586 36.9324 44.068C36.9324 51.2775 42.7907 57.1252 50.0002 57.1252C57.199 57.1252 63.0679 51.2669 63.0679 44.0575C63.0679 36.848 57.199 31.0002 50.0002 31.0002ZM56.8613 42.2102L54.6024 45.0391L54.8452 48.7336C54.8768 49.1452 54.6868 49.5358 54.349 49.7786C54.1485 49.9264 53.9057 50.0002 53.6735 50.0002C53.5152 50.0002 53.3568 49.9686 53.209 49.9052L50.0002 48.5436L46.7913 49.9052C46.4113 50.0636 45.9785 50.0214 45.6407 49.7786C45.3029 49.5358 45.1129 49.1452 45.1446 48.7336L45.3874 45.0391L43.1285 42.2102C42.8752 41.8936 42.8013 41.4714 42.9279 41.0914C43.0546 40.7114 43.3607 40.4158 43.7513 40.3208L47.129 39.4447L48.9763 36.3308C49.3985 35.613 50.5913 35.613 51.0135 36.3308L52.8607 39.4447L56.2279 40.3208C56.6185 40.4264 56.9246 40.7114 57.0513 41.0914C57.1779 41.4714 57.1146 41.9041 56.8613 42.2102Z" fill="#FF684C"/>
<path d="M36.6356 51.7626L31.1573 61.2837C30.9145 61.7059 30.9568 62.2231 31.2418 62.6031C31.5268 62.9831 32.0229 63.152 32.4873 63.0254L39.4645 61.1465L41.3223 68.1237C41.449 68.5881 41.8395 68.9259 42.3145 68.9998C42.3673 68.9998 42.4201 69.0103 42.4729 69.0103C42.8951 69.0103 43.2857 68.7887 43.4968 68.4192L48.6795 59.447C43.5284 58.9931 39.1056 56.0165 36.6356 51.7626Z" fill="#FF684C"/>
<path d="M68.8414 61.2839L63.3525 51.7628C60.893 56.0167 56.4597 58.9934 51.3086 59.4367L56.4914 68.4089C56.7025 68.7784 57.1036 69 57.5153 69C57.568 69 57.6208 69 57.6736 68.9895C58.1486 68.9262 58.5391 68.5778 58.6658 68.1134L60.5236 61.1361L67.5008 63.015C67.9653 63.1417 68.4508 62.9728 68.7464 62.5928C69.0419 62.2234 69.0841 61.6956 68.8414 61.2839Z" fill="#FF684C"/>
</g>
<defs>
<clipPath id="clip0_245_888">
<rect width="38" height="38" fill="white" transform="translate(31 31)"/>
</clipPath>
</defs>
</svg>
