<svg width="120" height="120" viewBox="0 0 120 120" fill="none" xmlns="http://www.w3.org/2000/svg">
<g id="verified 1" clip-path="url(#clip0_2087_9237)">
<g id="USER INTERFACE">
<path id="Vector" d="M116.372 30.4336C113.222 18.8391 101.163 6.77812 89.5664 3.62812C82.4555 1.85625 72.9305 0.0304687 60 0C47.0695 0.0304687 37.5445 1.85625 30.4336 3.62812C18.8391 6.77812 6.77812 18.8367 3.62812 30.4336C1.85625 37.5445 0.0304687 47.0695 0 60C0.0304687 72.9305 1.85625 82.4555 3.62812 89.5664C6.77812 101.163 18.8391 113.222 30.4336 116.372C37.5445 118.144 47.0742 119.97 60 120C72.9281 119.97 82.4555 118.144 89.5664 116.372C101.163 113.222 113.222 101.163 116.372 89.5664C118.144 82.4555 119.97 72.9258 120 60C119.97 47.0695 118.144 37.5445 116.372 30.4336Z" fill="#FFE0E0"/>
<path id="Vector_2" d="M97.5812 40.2891C95.4812 32.5594 87.4422 24.5187 79.7109 22.4187C74.9703 21.2375 68.6203 20.0203 60 20C51.3797 20.0203 45.0297 21.2375 40.2891 22.4187C32.5594 24.5187 24.5187 32.5578 22.4187 40.2891C21.2375 45.0297 20.0203 51.3797 20 60C20.0203 68.6203 21.2375 74.9703 22.4187 79.7109C24.5187 87.4422 32.5594 95.4812 40.2891 97.5812C45.0297 98.7625 51.3828 99.9797 60 100C68.6188 99.9797 74.9703 98.7625 79.7109 97.5812C87.4422 95.4812 95.4812 87.4422 97.5812 79.7109C98.7625 74.9703 99.9797 68.6172 100 60C99.9797 51.3797 98.7625 45.0297 97.5812 40.2891Z" fill="#CC0000"/>
</g>
<g id="Group 1321314731">
<path id="Vector_3" d="M79.5 69.1956C81.3261 71.0217 81.3261 74.1521 79.5 75.9782L75.8478 79.6304C74.0217 81.4565 70.8913 81.4565 69.0652 79.6304L40.3696 50.9348C38.5435 49.1087 38.5435 45.9783 40.3696 44.1522L44.1522 40.3696C45.9783 38.5435 49.1087 38.5435 50.9348 40.3696L79.5 69.1956Z" fill="#F0F0F0"/>
<path id="Vector_4" d="M64.3694 53.9355L53.8042 64.5008L69.0651 79.6312C70.8912 81.4573 74.0216 81.4573 75.8477 79.6312L79.6303 75.8486C81.4564 74.0225 81.4564 70.892 79.6303 69.066L64.3694 53.9355Z" fill="#F0F0F0"/>
<path id="Vector_5" d="M69.0652 40.5004C70.8913 38.6743 74.0217 38.6743 75.8478 40.5004L79.6304 44.283C81.4565 46.1091 81.4565 49.2395 79.6304 51.0656L50.8043 79.6308C48.9783 81.4569 45.8478 81.4569 44.0217 79.6308L40.3696 75.9786C38.5435 74.1526 38.5435 71.0221 40.3696 69.196L69.0652 40.5004Z" fill="white"/>
</g>
</g>
<defs>
<clipPath id="clip0_2087_9237">
<rect width="120" height="120" fill="white"/>
</clipPath>
</defs>
</svg>
