<svg width="120" height="120" viewBox="0 0 120 120" fill="none" xmlns="http://www.w3.org/2000/svg">
<g id="verified 1" clip-path="url(#clip0_2404_1233)">
<g id="USER INTERFACE">
<path id="Vector" d="M116.372 30.4336C113.222 18.8391 101.163 6.77812 89.5664 3.62812C82.4555 1.85625 72.9305 0.0304687 60 0C47.0695 0.0304687 37.5445 1.85625 30.4336 3.62812C18.8391 6.77812 6.77812 18.8367 3.62812 30.4336C1.85625 37.5445 0.0304687 47.0695 0 60C0.0304687 72.9305 1.85625 82.4555 3.62812 89.5664C6.77812 101.163 18.8391 113.222 30.4336 116.372C37.5445 118.144 47.0742 119.97 60 120C72.9281 119.97 82.4555 118.144 89.5664 116.372C101.163 113.222 113.222 101.163 116.372 89.5664C118.144 82.4555 119.97 72.9258 120 60C119.97 47.0695 118.144 37.5445 116.372 30.4336Z" fill="#E6F2FF"/>
<path id="Vector_2" d="M97.5812 40.2891C95.4812 32.5594 87.4422 24.5187 79.7109 22.4187C74.9703 21.2375 68.6203 20.0203 60 20C51.3797 20.0203 45.0297 21.2375 40.2891 22.4187C32.5594 24.5187 24.5187 32.5578 22.4187 40.2891C21.2375 45.0297 20.0203 51.3797 20 60C20.0203 68.6203 21.2375 74.9703 22.4187 79.7109C24.5187 87.4422 32.5594 95.4812 40.2891 97.5812C45.0297 98.7625 51.3828 99.9797 60 100C68.6188 99.9797 74.9703 98.7625 79.7109 97.5812C87.4422 95.4812 95.4812 87.4422 97.5812 79.7109C98.7625 74.9703 99.9797 68.6172 100 60C99.9797 51.3797 98.7625 45.0297 97.5812 40.2891Z" fill="#1A86FE"/>
</g>
<g id="Group">
<path id="Vector_3" d="M59.5556 47.1111C62.6238 47.1111 65.1111 44.6238 65.1111 41.5556C65.1111 38.4873 62.6238 36 59.5556 36C56.4873 36 54 38.4873 54 41.5556C54 44.6238 56.4873 47.1111 59.5556 47.1111Z" fill="white"/>
<path id="Vector_4" d="M55.1113 53.7773H64.0002V84.8885H55.1113V53.7773Z" fill="white"/>
</g>
</g>
<defs>
<clipPath id="clip0_2404_1233">
<rect width="120" height="120" fill="white"/>
</clipPath>
</defs>
</svg>
