<svg width="100" height="100" viewBox="0 0 100 100" fill="none" xmlns="http://www.w3.org/2000/svg">
<circle cx="50" cy="50" r="50" fill="#EBF7FF"/>
<path d="M52.1081 39.2044L53.8519 40C54.7566 40.4124 55.4636 41.1628 55.8214 42.0904C56.1792 43.018 56.1591 44.0489 55.7656 44.9619L55.5781 45.3913L54.9312 44.0969C54.8903 44.015 54.8318 43.9431 54.76 43.8863C54.6882 43.8295 54.6048 43.7892 54.5156 43.7682C54.4265 43.7479 54.334 43.7471 54.2445 43.7657C54.155 43.7844 54.0705 43.8221 53.9969 43.8763L52.9969 44.6263C52.1314 45.2754 51.0787 45.6263 49.9969 45.6263C48.915 45.6263 47.8624 45.2754 46.9969 44.6263L45.9969 43.8763C45.9235 43.8218 45.8391 43.784 45.7497 43.7653C45.6602 43.7466 45.5678 43.7476 45.4788 43.7682C45.3896 43.7892 45.3062 43.8295 45.2344 43.8863C45.1625 43.9431 45.1041 44.015 45.0631 44.0969L44.375 45.4819L43.8562 44.45C43.655 44.047 43.56 43.5993 43.5804 43.1493C43.6007 42.6992 43.7358 42.2619 43.9726 41.8787C44.2095 41.4955 44.5403 41.1792 44.9338 40.9598C45.3272 40.7404 45.7701 40.6252 46.2206 40.625C46.7022 40.6244 47.1765 40.743 47.6011 40.9701C48.0258 41.1973 48.3876 41.526 48.6544 41.9269L48.8506 42.2213L49.89 41.5275L49.6944 41.2338C49.1388 40.4012 48.3019 39.7965 47.3369 39.5307C48.0462 39.0938 48.8511 38.8358 49.6823 38.779C50.5134 38.7222 51.3459 38.8682 52.1081 39.2044ZM56.25 48.125H56.875C57.0408 48.125 57.1997 48.1909 57.3169 48.3081C57.4342 48.4253 57.5 48.5843 57.5 48.75C57.5 48.9158 57.4342 49.0748 57.3169 49.192C57.1997 49.3092 57.0408 49.375 56.875 49.375H56.25V48.125ZM48.125 55.3357C49.3455 55.7199 50.6545 55.7199 51.875 55.3357V56.615L50 58.49L48.125 56.615V55.3357ZM50 54.375C48.6743 54.3737 47.4033 53.8465 46.4659 52.9091C45.5285 51.9717 45.0013 50.7007 45 49.375V47.0219L45.8488 45.3238L46.25 45.625C47.3319 46.4364 48.6477 46.875 50 46.875C51.3523 46.875 52.6681 46.4364 53.75 45.625L54.1506 45.3244L55 47.0219V49.375C54.9988 50.7008 54.4717 51.9719 53.5343 52.9093C52.5968 53.8467 51.3257 54.3739 50 54.375ZM43.75 49.375H43.125C42.9592 49.375 42.8003 49.3092 42.6831 49.192C42.5658 49.0748 42.5 48.9158 42.5 48.75C42.5 48.5843 42.5658 48.4253 42.6831 48.3081C42.8003 48.1909 42.9592 48.125 43.125 48.125H43.75V49.375ZM35.625 61.9V62.5H31.875V54.7907C31.8748 54.4208 31.9843 54.0592 32.1897 53.7515C32.395 53.4439 32.687 53.2041 33.0288 53.0625L38.99 50.5788C39.1043 50.5313 39.2018 50.4509 39.2704 50.3479C39.3389 50.2448 39.3753 50.1238 39.375 50V47.54C39.3717 47.4215 39.3362 47.3062 39.2724 47.2063C39.2085 47.1065 39.1187 47.0259 39.0125 46.9732C38.2654 46.6014 37.6237 46.0479 37.1463 45.3635C36.6689 44.6791 36.371 43.8858 36.28 43.0563C36.2631 42.9035 36.1904 42.7622 36.0759 42.6596C35.9614 42.557 35.8131 42.5002 35.6594 42.5H35C34.8342 42.5 34.6753 42.4342 34.5581 42.317C34.4408 42.1998 34.375 42.0408 34.375 41.875C34.375 41.7093 34.4408 41.5503 34.5581 41.4331C34.6753 41.3159 34.8342 41.25 35 41.25H35.625C35.7075 41.25 35.7892 41.2337 35.8653 41.202C35.9415 41.1703 36.0106 41.1238 36.0687 41.0652C36.1268 41.0066 36.1728 40.9372 36.2039 40.8608C36.235 40.7843 36.2507 40.7025 36.25 40.62L36.2456 39.995C36.245 39.8996 36.2226 39.8055 36.18 39.72L35.1063 37.575C34.9267 37.2147 34.8319 36.8182 34.8289 36.4157C34.826 36.0131 34.9149 35.6152 35.0891 35.2523C35.2633 34.8894 35.518 34.571 35.8339 34.3215C36.1498 34.072 36.5185 33.8979 36.9119 33.8125C37.0004 33.7931 37.0837 33.7549 37.1563 33.7007L38.2306 32.8882C38.9603 32.3525 39.8185 32.0191 40.7184 31.9214C41.6183 31.8237 42.528 31.9653 43.3556 32.3319L45.1019 33.125C46.0066 33.5374 46.7136 34.2878 47.0714 35.2154C47.4292 36.143 47.4091 37.1739 47.0156 38.0869L46.9144 38.3213C46.6769 38.4527 46.4487 38.6001 46.2312 38.7625L45.2456 39.5C44.2577 39.7572 43.4093 40.3901 42.8813 41.2638C42.5427 41.8248 42.352 42.4624 42.3269 43.1171C42.3017 43.7719 42.443 44.4223 42.7375 45.0075L43.6719 46.875H43.125C42.6277 46.875 42.1508 47.0726 41.7992 47.4242C41.4475 47.7758 41.25 48.2528 41.25 48.75C41.25 49.2473 41.4475 49.7242 41.7992 50.0759C42.1508 50.4275 42.6277 50.625 43.125 50.625H43.875C44.0541 51.4897 44.4139 52.3066 44.9309 53.0224C45.4479 53.7381 46.1105 54.3365 46.875 54.7782V56.3988L37.9131 58.8888C37.2559 59.0731 36.6767 59.4669 36.2637 60.0104C35.8507 60.5539 35.6265 61.2174 35.625 61.9ZM63.125 68.125H59.375V63.125H58.125V68.125H41.875V63.125H40.625V68.125H36.875V61.9C36.8759 61.4901 37.0108 61.0917 37.259 60.7654C37.5072 60.4391 37.8552 60.2029 38.25 60.0925L47.3125 57.5738L49.555 59.8163C49.613 59.8744 49.682 59.9205 49.7579 59.952C49.8337 59.9834 49.9151 59.9996 49.9972 59.9996C50.0793 59.9996 50.1607 59.9834 50.2365 59.952C50.3124 59.9205 50.3813 59.8744 50.4394 59.8163L52.6813 57.5738L61.75 60.0925C62.1448 60.2029 62.4928 60.4391 62.741 60.7654C62.9892 61.0917 63.1241 61.4901 63.125 61.9V68.125ZM64.375 62.5V61.9C64.3735 61.2174 64.1493 60.5539 63.7363 60.0104C63.3233 59.4669 62.7441 59.0731 62.0869 58.8888L53.125 56.3988V54.7788C53.8896 54.337 54.5521 53.7386 55.0692 53.0227C55.5862 52.3068 55.946 51.4897 56.125 50.625H56.875C57.3723 50.625 57.8492 50.4275 58.2008 50.0759C58.5525 49.7242 58.75 49.2473 58.75 48.75C58.75 48.2528 58.5525 47.7758 58.2008 47.4242C57.8492 47.0726 57.3723 46.875 56.875 46.875H56.3013L56.9137 45.4557C57.437 44.2421 57.4637 42.8719 56.9881 41.6389C56.5125 40.406 55.5726 39.4085 54.37 38.8607L52.9194 38.2007L52.6069 37.5757C52.4272 37.2154 52.3323 36.8188 52.3292 36.4162C52.3261 36.0137 52.4151 35.6157 52.5892 35.2527C52.7633 34.8897 53.018 34.5713 53.3339 34.3217C53.6497 34.0721 54.0185 33.898 54.4119 33.8125C54.5004 33.7931 54.5837 33.7549 54.6562 33.7007L55.7306 32.8882C56.4603 32.3525 57.3185 32.0191 58.2184 31.9214C59.1183 31.8237 60.028 31.9653 60.8556 32.3319L62.6019 33.125C63.5066 33.5374 64.2136 34.2878 64.5714 35.2154C64.9292 36.143 64.9091 37.1739 64.5156 38.0869L63.7963 39.75C63.7626 39.8291 63.7454 39.9141 63.7456 40L63.75 40.625C63.75 40.7908 63.8158 40.9498 63.9331 41.067C64.0503 41.1842 64.2092 41.25 64.375 41.25H65C65.1658 41.25 65.3247 41.3159 65.4419 41.4331C65.5592 41.5503 65.625 41.7093 65.625 41.875C65.625 42.0408 65.5592 42.1998 65.4419 42.317C65.3247 42.4342 65.1658 42.5 65 42.5H64.34C64.1862 42.5002 64.0379 42.557 63.9234 42.6596C63.8089 42.7622 63.7363 42.9035 63.7194 43.0563C63.6282 43.8889 63.3284 44.685 62.8476 45.3709C62.3669 46.0568 61.7209 46.6102 60.9694 46.98C60.8652 47.0318 60.7776 47.1115 60.7163 47.2104C60.6551 47.3092 60.6226 47.4231 60.6225 47.5394V50C60.6226 50.1233 60.6592 50.2438 60.7276 50.3463C60.7959 50.4488 60.8931 50.5288 61.0069 50.5763L66.9706 53.0625C67.3125 53.2041 67.6047 53.444 67.8102 53.7517C68.0156 54.0595 68.1252 54.4213 68.125 54.7913V62.5H64.375Z" fill="#64AFF4"/>
</svg>
