<svg width="60" height="60" viewBox="0 0 60 60" fill="none" xmlns="http://www.w3.org/2000/svg">
<g id="Icon">
<rect id="bg" width="60" height="60" rx="10" fill="#1A86FE"/>
<g id="lmk">
<path id="Vector" d="M46.3964 37.8266L42.6577 32.6016L40.7439 34.3794V37.8266H38.2959V22H40.7439V31.9729L46.1294 26.5095H48.7554L44.2378 31.2575L49.0002 37.8266H46.3964Z" fill="white"/>
<path id="Vector_2" d="M35.4748 37.8266H33.0268V31.4743C33.0268 30.4192 32.8488 29.6459 32.4927 29.1545C32.1366 28.6631 31.6174 28.4174 30.9349 28.4174C30.2524 28.4174 29.6145 28.6703 29.021 29.1762C28.4424 29.6676 28.0344 30.3108 27.7971 31.1057V37.8266H25.3491V31.4743C25.3491 30.4192 25.1711 29.6459 24.815 29.1545C24.4589 28.6631 23.9471 28.4174 23.2795 28.4174C22.597 28.4174 21.959 28.6631 21.3656 29.1545C20.787 29.6459 20.3716 30.2891 20.1194 31.0841V37.8266H17.6714V26.4878H19.8968V28.7643C20.3567 27.9693 20.9576 27.3623 21.6994 26.9431C22.456 26.5095 23.3165 26.2927 24.2809 26.2927C25.2452 26.2927 26.0019 26.5384 26.5508 27.0299C27.1146 27.5213 27.4632 28.1355 27.5968 28.8727C28.1012 28.0344 28.7169 27.3984 29.4439 26.9648C30.1857 26.5168 31.0313 26.2927 31.9809 26.2927C32.6633 26.2927 33.2345 26.4156 33.6944 26.6613C34.1544 26.907 34.5104 27.2467 34.7626 27.6803C35.0149 28.0994 35.1929 28.5908 35.2967 29.1545C35.4154 29.7037 35.4748 30.2891 35.4748 30.9106V37.8266Z" fill="white"/>
<path id="Vector_3" d="M11 22H13.448V34.5528C13.448 35.131 13.537 35.4995 13.715 35.6585C13.893 35.8175 14.1156 35.897 14.3826 35.897C14.6794 35.897 14.9538 35.8681 15.206 35.8103C15.4731 35.7525 15.7031 35.6802 15.8959 35.5935L16.252 37.4797C15.8959 37.6242 15.4731 37.7471 14.9835 37.8482C14.4939 37.9494 14.0562 38 13.6705 38C12.8397 38 12.1869 37.776 11.7121 37.3279C11.2374 36.8654 11 36.2295 11 35.4201V22Z" fill="white"/>
</g>
</g>
</svg>
