<svg width="60" height="60" viewBox="0 0 60 60" fill="none" xmlns="http://www.w3.org/2000/svg">
<g id="Icon">
<rect id="bg" width="60" height="60" rx="10" fill="#1A86FE"/>
<g id="Abc">
<path id="Vector" d="M45.3258 38.2199C44.4311 38.2199 43.6171 38.0659 42.8838 37.7579C42.1651 37.4352 41.5418 36.9952 41.0138 36.4379C40.4858 35.8806 40.0751 35.2426 39.7818 34.5239C39.5031 33.8052 39.3638 33.0426 39.3638 32.2359C39.3638 31.1506 39.6058 30.1606 40.0898 29.2659C40.5884 28.3712 41.2778 27.6526 42.1578 27.1099C43.0524 26.5672 44.1084 26.2959 45.3258 26.2959C46.4991 26.2959 47.5184 26.5599 48.3838 27.0879C49.2638 27.6012 49.9091 28.2906 50.3198 29.1559L47.9658 29.9039C47.7018 29.4199 47.3278 29.0459 46.8438 28.7819C46.3744 28.5032 45.8538 28.3639 45.2818 28.3639C44.6364 28.3639 44.0498 28.5326 43.5218 28.8699C43.0084 29.1926 42.5978 29.6472 42.2898 30.2339C41.9964 30.8059 41.8498 31.4732 41.8498 32.2359C41.8498 32.9692 42.0038 33.6366 42.3118 34.2379C42.6198 34.8246 43.0304 35.2939 43.5438 35.6459C44.0718 35.9832 44.6584 36.1519 45.3038 36.1519C45.6998 36.1519 46.0811 36.0859 46.4478 35.9539C46.8291 35.8072 47.1591 35.6166 47.4378 35.3819C47.7164 35.1326 47.9144 34.8612 48.0318 34.5679L50.4078 35.2719C50.1584 35.8439 49.7844 36.3499 49.2858 36.7899C48.8018 37.2299 48.2224 37.5819 47.5478 37.8459C46.8878 38.0952 46.1471 38.2199 45.3258 38.2199Z" fill="white"/>
<path id="Vector_2" d="M32.5014 38.2199C31.6214 38.2199 30.822 38.0146 30.1034 37.6039C29.3994 37.1786 28.842 36.6139 28.4314 35.9099V37.9999H26.2974V21.9399H28.7174V28.6719C29.172 27.9386 29.7367 27.3593 30.4114 26.9339C31.1007 26.5086 31.9074 26.2959 32.8314 26.2959C33.594 26.2959 34.2907 26.4573 34.9214 26.7799C35.552 27.1026 36.0874 27.5426 36.5274 28.0999C36.982 28.6573 37.3267 29.2953 37.5614 30.0139C37.8107 30.7326 37.9354 31.4953 37.9354 32.3019C37.9354 33.1086 37.796 33.8713 37.5174 34.5899C37.2534 35.3086 36.872 35.9393 36.3734 36.4819C35.8747 37.0246 35.2954 37.4499 34.6354 37.7579C33.99 38.0659 33.2787 38.2199 32.5014 38.2199ZM31.8634 36.1519C32.3914 36.1519 32.8754 36.0493 33.3154 35.8439C33.7554 35.6239 34.1367 35.3379 34.4594 34.9859C34.782 34.6339 35.024 34.2233 35.1854 33.7539C35.3614 33.2846 35.4494 32.8006 35.4494 32.3019C35.4494 31.6126 35.3027 30.9673 35.0094 30.3659C34.7307 29.7646 34.3347 29.2806 33.8214 28.9139C33.308 28.5473 32.714 28.3639 32.0394 28.3639C31.5554 28.3639 31.1007 28.4813 30.6754 28.7159C30.25 28.9359 29.8687 29.2366 29.5314 29.6179C29.2087 29.9846 28.9374 30.3953 28.7174 30.8499V33.8859C28.8054 34.2233 28.9594 34.5313 29.1794 34.8099C29.3994 35.0739 29.656 35.3086 29.9494 35.5139C30.2427 35.7046 30.558 35.8586 30.8954 35.9759C31.2327 36.0933 31.5554 36.1519 31.8634 36.1519Z" fill="white"/>
<path id="Vector_3" d="M16.2698 22.3799H18.6018L24.6738 37.9999H22.0778L20.4278 33.7539H14.3998L12.7718 37.9999H10.1538L16.2698 22.3799ZM19.9438 31.9279L17.4358 25.0859L14.8398 31.9279H19.9438Z" fill="white"/>
</g>
</g>
</svg>
