<svg width="877" height="700" viewBox="0 0 877 700" fill="none" xmlns="http://www.w3.org/2000/svg">
<g opacity="0.6">
<path d="M673.373 676.219H55.3194C50.6218 671.731 46.2272 666.907 42.195 661.696C5.00181 613.609 3.38704 539.867 36.8821 488.802C49.1382 470.12 64.6833 455.025 78.651 437.018C111.225 395.02 101.967 333.039 122.719 284.606C142.387 238.705 177.543 201.012 219.899 182.945C282.667 156.175 363.209 177.575 415.863 221.507C459.437 257.859 492.726 294.145 549.075 298.48C620.063 303.943 681.756 327.233 723.116 399.778C745.591 439.204 754.009 487.225 749.333 533.515C742.718 599.01 713.558 644.768 673.373 676.219Z" fill="#E1F2FF"/>
<path d="M24.049 483.631C31.5951 472.159 40.0876 462.324 49.0829 451.91C55.1297 444.943 60.5644 438.622 65.8585 431.795C84.7175 407.467 89.565 375.696 94.2563 344.94C97.6358 322.771 101.131 299.844 109.817 279.565C129.963 232.559 165.525 195.365 207.385 177.522C237.297 164.759 272.623 162.24 309.538 170.242C343.889 177.705 377.434 194.021 403.995 216.186C410.398 221.513 416.798 227.049 422.442 231.934C458.092 262.716 488.879 289.303 536.854 293.007C576.246 296.038 608.42 304.399 635.219 318.562C666.833 335.281 691.758 360.171 711.42 394.654C733.277 432.969 742.628 480.653 737.753 528.92C731.662 589.138 706.004 637.335 661.433 672.22L661.318 672.31H654.253V671.272H661.033C705.279 636.616 730.785 588.682 736.841 528.804C741.695 480.773 732.393 433.332 710.651 395.216C691.083 360.9 666.284 336.133 634.831 319.5C608.139 305.393 576.071 297.062 536.795 294.038C488.545 290.315 457.655 263.641 421.886 232.755C416.242 227.878 409.845 222.345 403.452 217.021C376.997 194.946 343.583 178.696 309.366 171.26C272.62 163.298 237.469 165.797 207.707 178.497C166.066 196.244 130.687 233.248 110.638 280.021C102.008 300.167 98.5259 323.017 95.1527 345.146C90.4458 376.015 85.5764 407.932 66.5488 432.48C61.2391 439.324 55.795 445.659 49.7388 452.636C40.7685 463.023 32.2916 472.835 24.7862 484.25C8.54148 509.037 0.0865009 540.083 0.98291 571.667C1.87619 603.488 12.2114 633.738 30.0834 656.845C34.0001 661.892 38.3885 666.743 43.1297 671.268H50.3291V672.306H42.9517L42.7362 672.28L42.6019 672.123C37.8013 667.549 33.3598 662.638 29.3931 657.531C11.3838 634.244 0.967292 603.761 0.0646365 571.7C-0.834896 539.883 7.67942 508.605 24.049 483.631Z" fill="#C6E5FD"/>
</g>
<path d="M720.05 604.323C721.032 612.1 721.598 619.877 721.792 627.634C721.932 632.587 721.908 637.529 721.734 642.46C721.595 646.653 721.353 650.843 720.984 655.011C720.926 655.873 720.858 656.738 720.776 657.59C720.517 660.291 720.207 662.986 719.87 665.677H735.853C739.845 659.018 742.463 651.775 744.879 644.163C751.254 624.158 753.769 602.279 750.122 581.152C747.985 568.756 742.916 555.653 731.21 547.394C723.67 542.072 715.186 545.568 713.005 552.572C710.533 560.507 713.063 569.203 715.036 577.283C717.245 586.277 718.919 595.244 720.05 604.323Z" fill="#C6E5FD"/>
<path d="M739.064 589.978C741.801 609.131 741.085 629.012 735.785 647.698C734.026 653.889 731.715 659.908 728.865 665.68H730.15C744.733 635.847 745.04 599.176 735.393 568.112C733.13 560.848 730.256 553.599 725.985 547.211C725.593 546.606 724.587 547.165 724.993 547.784C733.246 560.152 737.009 575.552 739.064 589.978Z" fill="#B9E0FB"/>
<path d="M794.977 665.68C801.229 660.143 807.743 654.853 814.597 649.893C822.298 644.321 830.298 639.2 838.67 634.461C846.21 630.201 854.602 625.889 858.897 618.534C862.684 612.033 859.37 603.503 850.031 601.846C835.506 599.278 821.987 604.85 811.056 612.044C792.434 624.292 777.562 641.486 766.838 660.126C765.771 661.979 764.745 663.83 763.75 665.68H794.977Z" fill="#C6E5FD"/>
<path d="M772.665 665.68C786.978 643.853 808.521 625.959 831.679 614.524C838.769 611.027 846.272 607.991 854.122 606.556C854.848 606.423 854.548 605.346 853.822 605.48C838.272 608.315 823.573 616.712 810.931 625.622C795.489 636.505 781.739 650.013 771.451 665.684H772.665V665.68Z" fill="#B9E0FB"/>
<path d="M683.392 594.73C701.846 614.344 712.529 639.682 717.618 665.68H718.787C713.729 639.738 703.179 614.474 684.949 594.741C684.476 594.213 683.991 593.699 683.494 593.182C682.986 592.644 682.168 593.439 682.676 593.967C682.918 594.213 683.16 594.47 683.392 594.73Z" fill="#B9E0FB"/>
<path d="M699.304 624.049C695.415 625.727 690.759 626.23 686.314 625.449C681.869 624.668 677.666 622.614 674.588 619.712C678.314 617.598 682.213 616.314 686.815 617.01C691.413 617.703 696.322 620.922 699.304 624.049Z" fill="#CDE8F9"/>
<path d="M713.874 659.981C709.93 661.244 705.485 661.325 701.466 660.203C697.447 659.081 693.889 656.77 691.533 653.752C695.399 652.06 699.281 651.174 703.46 652.229C707.639 653.28 711.651 656.756 713.874 659.981Z" fill="#CDE8F9"/>
<path d="M701.692 585.602C696.078 590.079 693.978 597.434 696.456 603.935C700.161 603.266 703.243 600.027 703.693 596.851C704.143 593.674 703.57 588.514 701.692 585.602Z" fill="#CDE8F9"/>
<path d="M689.248 605.493C682.506 609.954 673.156 608.649 667.549 602.465C674.482 598.571 683.236 599.953 689.248 605.493Z" fill="#CDE8F9"/>
<path d="M727.242 623.792C719.156 627.897 714.469 636.11 715.553 644.264C720.22 644.243 724.886 641.074 726.359 637.429C727.831 633.789 728.656 627.602 727.242 623.792Z" fill="#CDE8F9"/>
<path d="M706.404 644.609C696.962 648.461 686.068 644.993 681.115 636.565C690.619 633.42 700.773 636.853 706.404 644.609Z" fill="#CDE8F9"/>
<path d="M720.836 658.514C720.032 650.913 726.375 645.193 735.555 645.239C735.691 652.605 729.593 657.86 720.836 658.514Z" fill="#CDE8F9"/>
<path d="M667.378 579.249C671.816 580.086 676.149 581.81 679.462 584.532C682.775 587.251 684.981 591.018 684.946 594.785C680.215 594.778 674.887 593.512 671.544 590.519C668.2 587.525 667.065 583.199 667.378 579.249Z" fill="#CDE8F9"/>
<path d="M718.466 602.683C719.001 606.45 718.486 610.33 716.489 613.598C714.488 616.866 710.912 619.469 706.586 620.264C704.994 616.437 704.654 611.857 706.954 608.505C709.255 605.153 713.833 603.288 718.466 602.683Z" fill="#CDE8F9"/>
<path d="M745.135 665.68H759.898C759.963 665.557 760.034 665.444 760.096 665.318C780.057 624.489 816.7 592.809 835.114 551.302C839.024 542.49 839.733 526.341 825.007 528.008C810.299 529.672 798.109 539.866 788.756 551.013C766.023 578.099 756.333 610.056 748.254 643.618C746.621 650.396 743.911 657.885 744.985 664.959C745.026 665.216 745.087 665.434 745.135 665.68Z" fill="#CDE8F9"/>
<path d="M749.434 665.68C751.428 645.915 758.501 627.001 767.183 609.089C776.547 589.774 787.036 570.93 802.306 555.365C810.508 547.003 819.721 539.651 829.719 533.401C830.343 533.01 829.763 532.039 829.136 532.433C811.687 543.338 796.6 557.662 785.151 574.479C778.5 584.244 773.005 594.772 767.77 605.3C762.882 615.125 758.42 625.178 754.929 635.559C751.636 645.359 749.295 655.433 748.275 665.68H749.434Z" fill="#B9E0FB"/>
<path d="M164.916 647.494C165.424 648.099 165.966 648.704 166.532 649.32C167.364 650.273 168.24 651.258 169.106 652.345C170.595 654.227 171.785 656.323 172.637 658.543C173.533 660.826 174.038 663.239 174.208 665.676H199.661C199.664 664.392 199.572 663.105 199.364 661.825C198.857 658.641 197.981 655.458 198.015 652.331C198.025 651.289 198.141 650.259 198.407 649.225C198.754 647.902 199.306 646.681 200.012 645.528C201.641 642.882 204.017 640.596 206.212 638.221C206.87 637.514 207.504 636.797 208.104 636.058C210.668 632.91 212.444 629.199 213.405 625.287C214.489 620.904 214.56 616.265 213.565 611.882C213.217 610.257 212.709 608.677 212.052 607.15C208.091 597.871 196.385 592.436 195.819 581.419C195.414 573.494 201.822 565.65 199.064 558.175C196.975 552.48 191.712 548.829 186.745 545.578C184.182 543.897 182.151 542.856 180.395 540.221C179.461 538.821 177.314 534.459 177.406 532.141C175.674 535.37 174 538.663 173.158 542.205C172.374 545.522 172.524 549.019 173.656 552.237C174.812 555.498 176.438 558.4 176.485 561.953C176.625 571.144 168.011 577.923 163.935 586.207C161.463 591.205 161.037 596.629 161.961 602.053C162.895 607.478 165.738 612.153 166.856 617.485C167.582 621.003 166.522 624.109 165.114 627.159C164.088 629.41 162.864 631.63 162.053 633.972C161.845 634.588 161.661 635.228 161.521 635.865C161.497 635.932 161.487 635.988 161.473 636.055C160.366 641.289 162.213 644.325 164.903 647.476C164.906 647.483 164.916 647.483 164.916 647.494Z" fill="#C6E5FD"/>
<path d="M153.806 665.68C152.81 663.83 151.788 661.98 150.717 660.126C139.99 641.486 125.121 624.295 106.5 612.044C95.5682 604.847 82.0459 599.278 67.5249 601.846C58.1851 603.506 54.8719 612.033 58.6692 618.534C62.9539 625.885 71.3461 630.202 78.8861 634.461C87.2578 639.203 95.258 644.325 102.958 649.893C109.81 654.853 116.327 660.143 122.579 665.68H153.806Z" fill="#C6E5FD"/>
<path d="M144.735 665.68H146.255C131.785 643.343 109.813 625.027 86.1804 613.423C79.0903 609.937 71.5742 606.912 63.724 605.476C63.0081 605.343 62.6979 606.419 63.424 606.553C78.5483 609.321 92.8069 617.391 105.16 625.977C120.618 636.72 134.396 650.132 144.735 665.68Z" fill="#B9E0FB"/>
<path d="M204.967 665.68C211.928 642.886 223.65 621.267 241.614 604.984C241.856 604.748 242.111 604.537 242.353 604.312C242.895 603.83 242.077 603.035 241.535 603.527C241.062 603.953 240.588 604.379 240.114 604.829C222.324 621.224 210.687 642.886 203.777 665.68H204.967Z" fill="#B9E0FB"/>
<path d="M224.33 631.397C227.858 633.258 232.201 634.071 236.441 633.663C240.682 633.255 244.792 631.626 247.915 629.122C244.574 626.863 241.005 625.372 236.625 625.689C232.242 626.009 227.377 628.675 224.33 631.397Z" fill="#CDE8F9"/>
<path d="M207.844 664.132C211.454 665.606 215.629 666.007 219.495 665.247C223.36 664.487 226.885 662.57 229.336 659.904C225.831 658.033 222.245 656.918 218.237 657.6C214.225 658.282 210.186 661.258 207.844 664.132Z" fill="#CDE8F9"/>
<path d="M225.058 595.068C229.991 599.69 231.399 606.76 228.566 612.69C225.133 611.79 222.485 608.522 222.308 605.501C222.134 602.479 223.068 597.667 225.058 595.068Z" fill="#CDE8F9"/>
<path d="M235.217 614.681C241.213 619.366 250.109 618.821 255.86 613.412C249.642 609.248 241.301 609.909 235.217 614.681Z" fill="#CDE8F9"/>
<path d="M198.073 629.122C205.361 633.571 209.135 641.637 207.481 649.228C203.094 648.869 198.949 645.545 197.848 642.013C196.747 638.478 196.451 632.6 198.073 629.122Z" fill="#CDE8F9"/>
<path d="M216.055 650.216C224.634 654.525 235.154 652.059 240.461 644.493C231.765 640.846 221.952 643.333 216.055 650.216Z" fill="#CDE8F9"/>
<path d="M201.409 662.243C202.752 655.155 197.23 649.313 188.592 648.683C187.897 655.602 193.221 660.987 201.409 662.243Z" fill="#CDE8F9"/>
<path d="M257.815 591.592C253.578 592.057 249.368 593.362 246.041 595.68C242.715 597.994 240.352 601.378 240.09 604.92C244.542 605.261 249.648 604.456 253.026 601.884C256.404 599.317 257.805 595.328 257.815 591.592Z" fill="#CDE8F9"/>
<path d="M207.96 609.909C207.162 613.412 207.35 617.098 208.976 620.317C210.602 623.535 213.765 626.244 217.773 627.306C219.566 623.824 220.241 619.539 218.336 616.219C216.434 612.898 212.268 610.816 207.96 609.909Z" fill="#CDE8F9"/>
<path d="M157.657 665.68H172.42C172.467 665.434 172.529 665.219 172.57 664.959C173.647 657.881 170.933 650.392 169.301 643.618C161.222 610.06 151.531 578.099 128.799 551.013C119.445 539.869 107.256 529.672 92.5473 528.008C77.8218 526.341 78.5308 542.49 82.4406 551.302C100.854 592.806 137.498 624.489 157.459 665.318C157.517 665.444 157.592 665.557 157.657 665.68Z" fill="#CDE8F9"/>
<path d="M131.932 575.83C138.149 585.095 143.348 595.015 148.324 604.949C153.274 614.829 157.8 624.932 161.342 635.372C164.686 645.229 167.079 655.363 168.115 665.68H169.271C167.3 646.055 160.377 627.264 151.808 609.448C142.247 589.57 131.465 570.184 115.724 554.232C107.543 545.941 98.3529 538.645 88.4131 532.433C87.786 532.043 87.2065 533.01 87.8303 533.4C105.378 544.368 120.53 558.84 131.932 575.83Z" fill="#B9E0FB"/>
<path d="M186.37 572.763C186.036 578.725 183.309 583.389 180.541 588.543C178.704 591.951 177.18 595.613 177.944 599.514C178.799 603.886 181.605 607.605 183.752 611.428C186.547 616.37 187.771 621.805 187.263 627.423C186.35 637.701 180.902 646.956 179.839 657.224C179.549 660.038 179.512 662.859 179.583 665.68H180.739C180.681 663.492 180.684 661.304 180.834 659.116C181.55 648.761 186.745 639.569 188.2 629.371C188.869 624.619 188.548 619.811 186.851 615.283C185.279 611.115 182.508 607.552 180.582 603.549C177.753 597.664 179.382 592.901 182.453 587.477C184.775 583.375 186.772 579.443 187.348 574.722C187.972 569.713 187.59 563.951 185.491 559.29C184.475 557.025 183.111 554.953 181.922 552.779C180.2 549.631 179 546.314 178.193 542.849C178.032 542.142 176.921 542.434 177.085 543.141C178.24 548.118 180.398 552.364 182.903 556.793C185.702 561.756 186.68 567.113 186.37 572.763Z" fill="#B9E0FB"/>
<path d="M458.776 690.265C689.756 690.265 877.001 680.499 877.001 668.452C877.001 656.405 689.756 646.639 458.776 646.639C227.797 646.639 40.5508 656.405 40.5508 668.452C40.5508 680.499 227.797 690.265 458.776 690.265Z" fill="#C6E5FD"/>
<path d="M443.611 624.465V662.228H498.87H559.817V624.465H443.611Z" fill="#0F2F65" fill-opacity="0.3"/>
<path d="M438.754 613.893V624.45H563.9V613.893H498.888H438.754Z" fill="#0F2F65" fill-opacity="0.1"/>
<path d="M501.309 662.214H559.818V624.45H563.882V613.893H498.871V623.474L501.309 662.214Z" fill="#0F2F65" fill-opacity="0.1"/>
<path d="M483.425 630.563H459.859V636.247H483.425V630.563Z" fill="#0F2F65" fill-opacity="0.1"/>
<path d="M487.096 643.373H456.836V655.376H487.096V643.373Z" fill="white"/>
<path d="M461.48 576.194V613.957H516.738H577.686V576.194H461.48Z" fill="#0F2F65" fill-opacity="0.3"/>
<path d="M456.602 565.622V576.178H581.746V565.622H516.735H456.602Z" fill="#0F2F65" fill-opacity="0.1"/>
<path d="M519.185 613.942H577.694V576.179H581.757V565.622H516.746V575.203L519.185 613.942Z" fill="#0F2F65" fill-opacity="0.1"/>
<path d="M501.296 582.293H477.73V587.977H501.296V582.293Z" fill="#0F2F65" fill-opacity="0.1"/>
<path d="M504.965 595.101H474.705V607.105H504.965V595.101Z" fill="white"/>
<path d="M657.301 600.289C673.227 593.533 691.665 580.244 699.89 563.948C682.712 570.844 667.563 583.771 657.301 600.289Z" fill="#0F2F65"/>
<path d="M660.689 574.841C676.616 568.085 695.054 554.795 703.279 538.5C686.101 545.398 670.952 558.323 660.689 574.841Z" fill="#0F2F65"/>
<path d="M665.301 550.332C681.227 543.576 699.665 530.287 707.89 513.991C690.712 520.889 675.563 533.814 665.301 550.332Z" fill="#0F2F65"/>
<path d="M671.068 524.538C686.093 515.628 702.841 499.902 709.081 482.626C692.828 491.85 679.306 506.759 671.068 524.538Z" fill="#0F2F65"/>
<path d="M677.244 504.789C688.194 490.478 698.399 469.184 698.265 450.729C686.278 465.832 678.801 485.06 677.244 504.789Z" fill="#0F2F65"/>
<path d="M674.195 514.164C671.983 494.814 664.452 470.483 651.664 455.973C653.696 476.708 661.709 497.405 674.195 514.164Z" fill="#0F2F65"/>
<path d="M669.038 535.359C665.141 515.408 655.288 490.733 640.77 476.739C644.593 498.148 654.648 518.998 669.038 535.359Z" fill="#0F2F65"/>
<path d="M663.128 561.208C659.23 541.257 649.378 516.581 634.859 502.587C638.683 523.996 648.737 544.847 663.128 561.208Z" fill="#0F2F65"/>
<path d="M658.38 592.825C654.482 572.874 644.63 548.199 630.111 534.205C633.935 555.614 643.99 576.464 658.38 592.825Z" fill="#0F2F65"/>
<path d="M677.985 501.068C677.974 501.066 677.932 501.167 677.862 501.366C677.783 501.602 677.683 501.895 677.56 502.258C677.292 503.092 676.924 504.247 676.455 505.71C675.498 508.708 674.203 513.075 672.688 518.494C671.161 523.911 669.485 530.401 667.754 537.638C666.054 544.882 664.322 552.88 662.725 561.319C661.147 569.763 659.858 577.846 658.809 585.213C657.79 592.585 656.999 599.241 656.449 604.842C655.891 610.442 655.51 614.98 655.312 618.12C655.216 619.653 655.139 620.862 655.084 621.737C655.067 622.121 655.053 622.43 655.04 622.678C655.034 622.891 655.037 623 655.047 623C655.057 623.001 655.077 622.893 655.104 622.683C655.132 622.436 655.166 622.128 655.208 621.745C655.291 620.874 655.407 619.669 655.551 618.14C655.824 615.007 656.272 610.477 656.886 604.888C657.49 599.299 658.326 592.655 659.376 585.294C660.455 577.937 661.76 569.868 663.336 561.433C664.932 553.004 666.644 545.012 668.311 537.768C670.01 530.531 671.641 524.037 673.113 518.61C674.572 513.179 675.802 508.796 676.688 505.779C677.109 504.302 677.44 503.137 677.679 502.295C677.778 501.924 677.858 501.624 677.922 501.383C677.974 501.179 677.996 501.071 677.985 501.068Z" fill="#0F2F65"/>
<path d="M649.548 610.768C656.301 596.633 661.214 576.761 657.898 561.249C650.407 576.245 647.436 593.859 649.548 610.768Z" fill="#0F2F65"/>
<path d="M638.306 592.44C645.059 578.305 649.972 558.433 646.656 542.919C639.165 557.916 636.194 575.531 638.306 592.44Z" fill="#0F2F65"/>
<path d="M628.231 573.755C634.984 559.62 639.897 539.748 636.581 524.235C629.09 539.232 626.121 556.845 628.231 573.755Z" fill="#0F2F65"/>
<path d="M618.31 553.685C623.333 538.723 625.853 518.33 620.727 503.41C615.074 519.329 614.215 537.212 618.31 553.685Z" fill="#0F2F65"/>
<path d="M611.84 537.25C611.346 521.333 606.661 501.397 596.771 489.643C597.011 506.706 602.37 523.639 611.84 537.25Z" fill="#0F2F65"/>
<path d="M614.836 545.14C603.122 534.094 585.306 523.126 569.295 521.69C581.629 533.736 597.828 542.077 614.836 545.14Z" fill="#0F2F65"/>
<path d="M622.735 561.884C609.605 551.488 590.1 541.729 573.238 541.691C587.094 553.066 604.699 560.248 622.735 561.884Z" fill="#0F2F65"/>
<path d="M632.612 582.076C619.482 571.681 599.977 561.921 583.115 561.883C596.971 573.259 614.576 580.441 632.612 582.076Z" fill="#0F2F65"/>
<path d="M646.362 605.319C633.232 594.924 613.727 585.165 596.865 585.127C610.721 596.502 628.326 603.684 646.362 605.319Z" fill="#0F2F65"/>
<path d="M610.332 534.362C610.322 534.365 610.348 534.454 610.406 534.624C610.479 534.826 610.569 535.073 610.678 535.373C610.946 536.073 611.314 537.029 611.776 538.235C612.732 540.719 614.194 544.283 616.069 548.658C619.817 557.408 625.368 569.347 632.265 582.138C635.725 588.529 639.185 594.526 642.429 599.921C645.703 605.299 648.734 610.09 651.379 614.05C654.011 618.017 656.196 621.19 657.753 623.349C658.51 624.396 659.109 625.225 659.549 625.834C659.741 626.089 659.899 626.299 660.028 626.471C660.139 626.613 660.199 626.682 660.208 626.676C660.216 626.67 660.173 626.589 660.078 626.436C659.962 626.254 659.82 626.034 659.647 625.765C659.23 625.141 658.662 624.291 657.944 623.218C656.445 621.02 654.315 617.813 651.73 613.821C649.133 609.836 646.142 605.028 642.899 599.64C639.683 594.236 636.242 588.239 632.788 581.857C625.901 569.083 620.298 557.191 616.455 548.492C614.533 544.142 613.012 540.606 611.99 538.149C611.484 536.961 611.083 536.02 610.788 535.331C610.657 535.038 610.55 534.799 610.462 534.602C610.386 534.439 610.342 534.358 610.332 534.362Z" fill="#0F2F65"/>
<path d="M617.379 612.6H684.481V625.525H677.586L671.779 662.386H630.302L624.329 625.525H617.379V612.6Z" fill="#F36339"/>
<path d="M617.377 625.273C617.377 625.1 632.291 624.961 650.684 624.961C669.084 624.961 683.994 625.101 683.994 625.273C683.994 625.444 669.084 625.584 650.684 625.584C632.291 625.584 617.377 625.444 617.377 625.273Z" fill="#0F2F65"/>
<path d="M248.1 662.307H237.209L233.17 613.311H245.995L248.1 662.307Z" fill="#0F2F65"/>
<path d="M342.484 662.307H353.377L357.414 613.311H344.589L342.484 662.307Z" fill="#0F2F65"/>
<path d="M364.904 619.377L224.721 622.666L220.455 532.18C220.038 523.32 227.113 515.907 235.988 515.907H355.425C364.437 515.907 371.562 523.54 370.938 532.524L364.904 619.377Z" fill="#1A86FE"/>
<path d="M372.088 531.869C372.088 531.88 371.955 531.891 371.696 531.903C371.403 531.912 371.024 531.923 370.546 531.937C369.494 531.953 368.014 531.975 366.128 532.004C362.249 532.019 356.706 532.038 349.877 532.063C336.156 532.086 317.199 531.931 296.276 532.416C275.342 533.111 256.37 532.992 242.651 532.784C235.79 532.676 230.239 532.542 226.404 532.427C224.52 532.363 223.04 532.312 221.988 532.276C221.511 532.253 221.133 532.235 220.84 532.22C220.581 532.205 220.449 532.19 220.449 532.179C220.449 532.168 220.582 532.16 220.841 532.155C221.134 532.154 221.514 532.151 221.991 532.148C223.043 532.155 224.523 532.166 226.409 532.179C230.288 532.217 235.828 532.269 242.656 532.335C256.377 532.428 275.33 532.476 296.261 531.782C317.2 531.297 336.159 531.522 349.878 531.613C356.708 531.673 362.247 531.722 366.128 531.755C368.014 531.777 369.494 531.795 370.546 531.807C371.023 531.82 371.403 531.828 371.696 531.835C371.955 531.848 372.088 531.858 372.088 531.869Z" fill="#0F2F65"/>
<path d="M271.586 517.324C271.625 517.536 267.194 517.611 262.485 520.053C257.74 522.431 255.08 525.972 254.931 525.817C254.876 525.775 255.45 524.843 256.667 523.567C257.878 522.29 259.79 520.722 262.198 519.489C264.609 518.265 267 517.638 268.745 517.408C270.493 517.172 271.586 517.255 271.586 517.324Z" fill="#0F2F65"/>
<path d="M329.244 352.544L346.381 383.828L371.485 369.796L383.692 373.823C383.692 373.823 352.893 407.195 347.896 408.895C342.9 410.594 333.437 410.904 328.026 404.139C323.099 397.979 308.762 365.631 308.762 365.631L329.244 352.544Z" fill="#FFBE9D"/>
<path d="M399.802 332.122C399.356 331.57 398.654 331.292 397.951 331.389L386.012 333.03C384.965 333.192 384.037 333.791 383.459 334.679L358.668 372.757L360.574 373.822L373.774 373.408L400.177 332.589L399.802 332.122Z" fill="#0F2F65"/>
<path d="M391.352 337.073C391.606 337.297 392.054 337.202 392.352 336.863C392.649 336.524 392.684 336.068 392.43 335.846C392.176 335.624 391.728 335.717 391.43 336.056C391.132 336.395 391.098 336.851 391.352 337.073Z" fill="white"/>
<path d="M400.162 332.589C400.168 332.638 399.346 332.798 397.854 333.044C396.24 333.294 394.107 333.624 391.527 334.023C390.178 334.221 388.716 334.435 387.154 334.665C386.402 334.733 385.736 335.121 385.309 335.751C384.85 336.462 384.379 337.191 383.896 337.939C381.944 340.948 379.808 344.237 377.566 347.691C373.056 354.601 368.941 360.834 365.931 365.325C364.465 367.487 363.254 369.273 362.337 370.624C361.474 371.867 360.978 372.542 360.936 372.514C360.895 372.487 361.312 371.761 362.102 370.471C362.97 369.088 364.118 367.259 365.506 365.048C368.406 360.485 372.454 354.209 376.964 347.299C379.223 343.856 381.375 340.576 383.342 337.577C383.835 336.831 384.317 336.103 384.787 335.393C385.31 334.611 386.226 334.133 387.058 334.075C388.626 333.877 390.096 333.691 391.449 333.52C394.045 333.212 396.191 332.958 397.815 332.766C399.32 332.607 400.155 332.54 400.162 332.589Z" fill="#455A64"/>
<path d="M386.907 346.221C386.907 346.221 385.843 346.03 385.26 348.94C384.677 351.849 382.801 360.192 382.801 360.192L377.226 357.232L370.252 358.14C370.252 358.14 368.73 359.545 369.846 360.309C370.963 361.071 375.371 361.859 375.371 361.859L378.623 366.531L369.291 362.035C369.291 362.035 366.178 362.846 367.089 364.745C368.002 366.644 374.293 372.585 374.293 372.585L369.618 372.231L364.059 368.858C364.059 368.858 362.354 368.935 362.99 370.387C363.626 371.839 369.407 377.084 369.407 377.084L376.417 380.483C376.417 380.483 380.244 380.183 380.612 379.06C380.979 377.937 381.073 376.334 381.073 376.334C381.073 376.334 383.104 375.787 383.484 374.802C383.863 373.818 383.619 372.26 383.619 372.26C383.619 372.26 386.807 372.82 387.204 371.044C387.6 369.267 387.267 365.767 386.946 364.401C386.625 363.034 388.306 350.333 388.175 349.95C388.043 349.564 388.906 345.381 386.907 346.221Z" fill="#FFBE9D"/>
<path d="M380.873 379.116C380.896 379.199 380.218 379.497 379.044 379.684C377.874 379.875 376.2 379.893 374.424 379.474C372.648 379.048 371.162 378.278 370.204 377.581C369.239 376.886 368.769 376.315 368.827 376.251C368.96 376.072 371.18 377.993 374.591 378.775C377.985 379.612 380.835 378.895 380.873 379.116Z" fill="#EB996E"/>
<path d="M379.208 376.598C379.098 376.76 377.856 376.109 376.53 375.021C375.202 373.935 374.32 372.846 374.457 372.707C374.599 372.564 375.685 373.404 376.985 374.467C378.284 375.532 379.321 376.431 379.208 376.598Z" fill="#EB996E"/>
<path d="M382.91 370.517C382.804 370.679 381.571 370.044 380.327 368.893C379.08 367.746 378.349 366.568 378.503 366.45C378.661 366.323 379.613 367.262 380.815 368.367C382.012 369.475 383.024 370.349 382.91 370.517Z" fill="#EB996E"/>
<path d="M386.77 365.666C386.579 365.747 385.875 364.432 384.763 363C383.663 361.559 382.573 360.541 382.699 360.377C382.808 360.222 384.164 361.036 385.332 362.563C386.51 364.083 386.949 365.602 386.77 365.666Z" fill="#EB996E"/>
<path d="M391.529 591.17C391.57 591.167 391.61 590.755 391.495 590.018C391.374 589.287 391.074 588.219 390.329 587.087C390.138 586.81 389.948 586.512 389.635 586.24C389.338 585.97 388.824 585.763 388.329 585.946C388.084 586.025 387.838 586.249 387.753 586.525C387.66 586.805 387.706 587.082 387.779 587.307C387.941 587.771 388.183 588.102 388.386 588.484C388.839 589.244 389.212 590.002 389.79 590.859C390.082 591.297 390.739 591.658 391.339 591.555C391.929 591.48 392.406 591.195 392.835 590.893C393.668 590.289 394.402 589.601 395.033 588.869C395.348 588.503 395.637 588.125 395.899 587.742C396.148 587.363 396.44 586.976 396.55 586.448C396.662 585.938 396.469 585.269 395.89 585.036C395.302 584.825 394.824 585.119 394.497 585.351C393.833 585.902 393.434 586.467 393.029 587.013C392.256 588.104 391.83 589.105 391.589 589.804C391.353 590.507 391.298 590.915 391.339 590.926C391.458 590.975 391.853 589.353 393.42 587.303C393.81 586.817 394.293 586.226 394.831 585.814C395.106 585.617 395.451 585.491 395.659 585.597C395.879 585.676 396 586.005 395.929 586.322C395.861 586.651 395.614 587.002 395.358 587.368C395.104 587.728 394.825 588.082 394.524 588.428C393.919 589.116 393.217 589.766 392.433 590.335C392.054 590.606 391.644 590.829 391.261 590.876C390.877 590.923 390.575 590.771 390.322 590.443C389.841 589.745 389.38 588.882 388.936 588.165C388.723 587.791 388.467 587.427 388.355 587.115C388.238 586.786 388.303 586.573 388.532 586.482C389.06 586.264 389.574 586.86 389.93 587.365C391.413 589.467 391.394 591.212 391.529 591.17Z" fill="#0F2F65"/>
<path d="M361.625 591.976L346.782 624.125L322.828 613.067L338.181 573.277L361.625 591.976Z" fill="#FFBE9D"/>
<path d="M349.581 621.98L340.909 638.508C340.909 638.508 363.108 661.447 361.023 666.575L308.836 641.569L323.173 608.418L349.581 621.98Z" fill="#455A64"/>
<path d="M325.871 628.515C324.728 628.307 323.486 629.107 323.231 630.238C322.977 631.37 323.779 632.64 324.918 632.868C326.057 633.096 327.577 632.181 327.704 631.027C327.83 629.874 326.805 628.435 325.646 628.487" fill="#E0E0E0"/>
<g opacity="0.6">
<path d="M308.836 641.57L311.007 637.413L360.232 662.943C360.232 662.943 362.072 665.067 361.024 666.576L308.836 641.57Z" fill="white"/>
</g>
<path d="M341.905 638.648C341.774 638.899 340.445 638.404 338.798 638.623C337.146 638.798 335.969 639.591 335.783 639.378C335.573 639.216 336.682 637.875 338.681 637.647C340.677 637.399 342.072 638.44 341.905 638.648Z" fill="#0F2F65"/>
<path d="M346.27 643.581C346.21 643.855 344.899 643.759 343.516 644.422C342.114 645.044 341.337 646.103 341.089 645.97C340.83 645.896 341.37 644.32 343.103 643.53C344.831 642.724 346.38 643.335 346.27 643.581Z" fill="#0F2F65"/>
<path d="M346.254 651.626C345.996 651.569 346.252 650.127 347.576 649.046C348.892 647.956 350.358 647.982 350.364 648.245C350.408 648.524 349.275 648.902 348.202 649.806C347.108 650.682 346.519 651.722 346.254 651.626Z" fill="#0F2F65"/>
<path d="M344.363 632.311C344.146 632.493 343.145 631.581 341.657 630.989C340.181 630.367 338.828 630.312 338.8 630.03C338.741 629.775 340.288 629.357 342.03 630.08C343.777 630.787 344.585 632.17 344.363 632.311Z" fill="#0F2F65"/>
<path d="M354.485 617.731L393.612 519.873C393.612 519.873 392.732 503.176 389.655 497.904C386.577 492.631 293.369 461.874 293.369 461.874C293.369 461.874 269.627 456.161 253.799 461.874C237.971 467.585 226.1 487.358 228.298 498.343C230.496 509.328 239.773 517.396 239.773 517.396L308.317 519.433L345.676 533.053L320.517 605.112L354.485 617.731Z" fill="#0F2F65"/>
<path d="M389.288 550.98L390.171 586.377L363.792 587.021L359.992 544.544L389.288 550.98Z" fill="#FFBE9D"/>
<path d="M391.72 583.267L391.239 601.923C391.239 601.923 421.291 612.713 421.686 618.233L363.813 618.819L362.033 582.748L391.72 583.267Z" fill="#455A64"/>
<path d="M373.328 599.622C372.211 599.939 371.45 601.206 371.721 602.334C371.992 603.462 373.275 604.247 374.397 603.949C375.519 603.651 376.48 602.16 376.085 601.069C375.688 599.978 374.132 599.14 373.115 599.697" fill="#E0E0E0"/>
<g opacity="0.6">
<path d="M363.814 618.862L363.926 614.175L419.372 615.367C419.372 615.367 421.96 616.461 421.687 618.276L363.814 618.862Z" fill="white"/>
</g>
<path d="M392.198 601.62C392.192 601.902 390.78 602.044 389.399 602.967C387.994 603.853 387.288 605.083 387.028 604.974C386.766 604.922 387.171 603.23 388.864 602.143C390.545 601.04 392.256 601.36 392.198 601.62Z" fill="#0F2F65"/>
<path d="M398.254 604.067C398.321 604.339 397.102 604.833 396.154 606.036C395.171 607.212 394.943 608.506 394.66 608.496C394.395 608.543 394.183 606.892 395.39 605.417C396.584 603.933 398.245 603.798 398.254 604.067Z" fill="#0F2F65"/>
<path d="M401.787 611.323C401.53 611.387 401.123 609.979 401.833 608.426C402.533 606.866 403.859 606.243 403.98 606.477C404.142 606.708 403.293 607.546 402.73 608.83C402.137 610.102 402.068 611.293 401.787 611.323Z" fill="#0F2F65"/>
<path d="M391.58 594.822C391.464 595.08 390.164 594.704 388.568 594.829C386.97 594.921 385.732 595.469 385.582 595.229C385.416 595.026 386.619 593.97 388.501 593.85C390.382 593.714 391.718 594.599 391.58 594.822Z" fill="#0F2F65"/>
<path d="M373.879 452.58C373.879 452.58 389.683 451.317 391.441 468.453C393.2 485.59 394.926 565.559 394.926 565.559L357.994 568.635L352.279 486.909L293.363 461.864C293.363 461.864 363.327 450.383 373.879 452.58Z" fill="#0F2F65"/>
<path d="M308.746 429.424C308.746 429.424 318.338 456.298 316.51 459.293C314.683 462.289 290.019 474.613 290.019 474.613L228.302 498.301C228.302 498.301 221.963 488.224 221.963 472.745C221.963 457.267 243.43 429.424 243.43 429.424H308.746Z" fill="#0F2F65"/>
<path d="M290.447 460.46C290.444 460.47 290.541 460.522 290.737 460.616C290.963 460.72 291.251 460.854 291.613 461.021C292.427 461.383 293.569 461.89 295.031 462.54C298.061 463.859 302.413 465.753 307.86 468.125C318.868 472.86 334.297 479.498 352.151 487.179L351.952 486.898C352.511 494.971 353.117 503.69 353.743 512.71C355.245 533.797 356.629 553.238 357.724 568.619L357.743 568.898L358.021 568.873C369.254 567.889 378.471 567.08 384.926 566.514C388.099 566.217 390.592 565.985 392.334 565.822C393.154 565.737 393.796 565.67 394.269 565.621C394.706 565.571 394.93 565.539 394.929 565.525C394.928 565.511 394.701 565.517 394.262 565.539C393.786 565.569 393.142 565.609 392.319 565.66C390.575 565.788 388.077 565.971 384.899 566.204C378.439 566.713 369.215 567.44 357.973 568.327L358.27 568.582C357.213 553.197 355.878 533.752 354.43 512.663C353.795 503.643 353.18 494.924 352.611 486.853L352.596 486.651L352.41 486.572C334.517 478.983 319.054 472.423 308.023 467.744C302.543 465.447 298.166 463.613 295.119 462.336C293.638 461.729 292.483 461.255 291.658 460.916C291.287 460.77 290.99 460.654 290.759 460.564C290.557 460.486 290.451 460.452 290.447 460.46Z" fill="#455A64"/>
<path d="M241.36 463.148C241.376 463.193 241.992 463.022 243.092 462.676C244.318 462.281 245.876 461.779 247.739 461.178C251.66 459.936 257.1 458.203 263.29 457.252C269.481 456.298 275.21 456.592 279.211 457.456C283.23 458.286 285.54 459.433 285.591 459.303C285.608 459.266 285.05 458.951 283.985 458.491C282.923 458.026 281.336 457.464 279.315 456.98C275.285 455.979 269.454 455.603 263.187 456.57C256.922 457.534 251.471 459.354 247.582 460.716C245.636 461.407 244.075 461.999 243.001 462.422C241.929 462.847 241.344 463.103 241.36 463.148Z" fill="#455A64"/>
<path d="M250.084 448.983C250.101 449.093 252.151 448.693 255.48 448.953C257.142 449.069 259.12 449.324 261.322 449.578C263.52 449.839 265.934 450.135 268.432 450.608C273.447 451.5 277.762 453.247 280.525 455.091C283.316 456.906 284.624 458.56 284.719 458.467C284.745 458.445 284.463 458.001 283.822 457.307C283.182 456.615 282.191 455.655 280.798 454.687C278.049 452.698 273.638 450.832 268.561 449.932C266.031 449.453 263.598 449.174 261.391 448.947C259.186 448.727 257.194 448.522 255.505 448.466C253.817 448.405 252.445 448.502 251.511 448.643C250.576 448.785 250.076 448.943 250.084 448.983Z" fill="#455A64"/>
<path d="M277.346 233.016C270.244 231.81 264.002 234.543 258.012 238.543C252.024 242.544 247.513 248.581 244.91 255.293C242.167 262.362 241.5 270.317 243.607 277.601C245.715 284.885 250.706 291.404 257.471 294.839C266.709 299.528 278.522 297.893 286.787 291.648C295.052 285.402 299.777 275.077 300.173 264.731C300.446 257.603 298.742 250.31 294.756 244.392C290.77 238.475 284.409 234.053 277.346 233.016Z" fill="#0F2F65"/>
<path d="M257.145 257.15C258.184 254.435 257.781 251.403 258.193 248.525C259.098 242.189 264.207 237.107 270.115 234.637C275.611 232.339 282.325 232.84 288.946 234.98C293.485 236.446 297.757 239.003 300.783 242.688C304.799 247.578 306.214 254.487 304.443 260.561L272.002 255.839C268.965 258.351 265.855 260.904 262.172 262.304C261.09 262.715 259.927 263.024 258.785 262.844C257.643 262.663 256.532 261.887 256.262 260.763C255.966 259.536 256.694 258.33 257.145 257.15Z" fill="#0F2F65"/>
<path d="M289.641 243.931L261.317 249.929C258.578 250.111 256.433 252.359 256.381 255.103L256.721 316.357C256.745 320.542 258.148 324.602 260.714 327.908L263.415 331.389C269.574 339.327 282.049 338.527 286.753 329.652C287.081 329.032 287.309 328.489 287.405 328.049C287.5 327.498 287.646 327.134 287.671 326.666L288.211 320.695C288.488 315.241 288.525 309.699 288.526 309.75C288.526 309.75 300.117 308.286 303.087 293.362C304.563 285.94 304.664 273.681 304.421 263.648C304.203 254.615 298.66 243.33 289.641 243.931Z" fill="#FFBE9D"/>
<path d="M300.083 275.197C300.079 276.215 299.213 277.051 298.15 277.067C297.088 277.083 296.227 276.272 296.23 275.254C296.234 274.235 297.1 273.398 298.162 273.382C299.227 273.367 300.087 274.179 300.083 275.197Z" fill="#0F2F65"/>
<path d="M301.484 269.959C301.236 270.201 299.817 269.065 297.743 268.989C295.673 268.885 294.11 269.892 293.894 269.63C293.787 269.513 294.05 269.07 294.73 268.613C295.401 268.158 296.532 267.735 297.823 267.79C299.115 267.847 300.183 268.365 300.789 268.875C301.407 269.389 301.605 269.851 301.484 269.959Z" fill="#0F2F65"/>
<path d="M281.531 274.732C281.527 275.75 280.661 276.587 279.598 276.602C278.536 276.618 277.676 275.807 277.68 274.79C277.683 273.771 278.549 272.934 279.611 272.918C280.675 272.901 281.535 273.713 281.531 274.732Z" fill="#0F2F65"/>
<path d="M281.836 269.456C281.587 269.698 280.167 268.562 278.094 268.487C276.024 268.383 274.461 269.389 274.245 269.127C274.14 269.01 274.399 268.566 275.082 268.111C275.754 267.656 276.884 267.232 278.176 267.287C279.467 267.344 280.535 267.862 281.142 268.372C281.758 268.886 281.958 269.348 281.836 269.456Z" fill="#0F2F65"/>
<path d="M288.036 285.218C288.031 285.1 289.328 284.927 291.427 284.741C291.959 284.707 292.465 284.622 292.567 284.264C292.707 283.885 292.508 283.307 292.275 282.682C291.828 281.382 291.358 280.02 290.865 278.591C288.914 272.771 287.523 267.992 287.759 267.915C287.993 267.839 289.767 272.495 291.718 278.317C292.187 279.751 292.634 281.12 293.061 282.428C293.239 283.037 293.556 283.732 293.256 284.515C293.098 284.905 292.697 285.176 292.354 285.255C292.011 285.345 291.713 285.339 291.451 285.345C289.344 285.377 288.04 285.336 288.036 285.218Z" fill="#0F2F65"/>
<path d="M288.515 309.797C288.515 309.797 278.38 310.056 268.6 303.652C268.6 303.652 273.255 314.243 288.349 313.421L288.515 309.797Z" fill="#EB996E"/>
<path d="M286.988 290.208C286.28 289.194 284.995 288.602 283.692 288.691C282.788 288.753 281.863 289.15 281.287 289.862C280.712 290.573 280.557 291.609 281.027 292.326C281.556 293.135 282.718 293.361 283.719 293.119C284.72 292.876 285.596 292.258 286.431 291.641C286.662 291.469 286.898 291.292 287.046 291.051C287.196 290.811 287.238 290.491 287.073 290.281" fill="#EB996E"/>
<path d="M281.876 286.415C282.214 286.408 282.13 288.657 283.996 290.329C285.856 292.005 288.266 291.846 288.271 292.16C288.297 292.303 287.72 292.577 286.707 292.565C285.712 292.56 284.274 292.186 283.133 291.164C281.995 290.139 281.54 288.813 281.5 287.888C281.45 286.942 281.723 286.395 281.876 286.415Z" fill="#0F2F65"/>
<path d="M281.69 263.296C281.463 263.851 279.403 263.504 276.959 263.703C274.51 263.853 272.521 264.488 272.217 263.97C272.082 263.723 272.446 263.207 273.26 262.692C274.067 262.178 275.342 261.708 276.808 261.603C278.275 261.499 279.603 261.783 280.476 262.178C281.355 262.571 281.787 263.032 281.69 263.296Z" fill="#0F2F65"/>
<path d="M301.277 260.863C300.893 261.319 299.485 260.776 297.767 260.686C296.053 260.536 294.582 260.879 294.267 260.374C294.13 260.129 294.377 259.666 295.03 259.246C295.673 258.826 296.735 258.504 297.914 258.585C299.093 258.669 300.099 259.135 300.678 259.641C301.267 260.146 301.447 260.64 301.277 260.863Z" fill="#0F2F65"/>
<path d="M251.956 252.78C254.893 244.16 267.714 232.417 276.787 233.231L291.125 242.218C290.148 247.141 286.244 251.368 281.411 252.735C278.83 253.464 275.736 253.617 274.167 255.792C272.564 258.012 273.409 261.309 271.913 263.602C269.839 266.78 264.349 266.518 262.772 269.97C262.084 271.478 262.391 273.302 261.675 274.797C260.721 276.79 255.578 279.237 253.484 278.528C251.392 277.82 251.457 274.234 250.806 272.343C249.693 269.11 250.211 267.457 250.634 265.672C251.635 261.444 250.556 256.891 251.956 252.78Z" fill="#0F2F65"/>
<path d="M259.661 280.426C259.701 279.307 258.51 276.621 257.412 276.405C254.479 275.832 249.151 275.862 248.81 283.349C248.345 293.585 258.724 291.94 258.756 291.647C258.779 291.419 259.52 284.287 259.661 280.426Z" fill="#FFBE9D"/>
<path d="M255.79 287.692C255.746 287.657 255.606 287.809 255.298 287.933C254.998 288.053 254.488 288.124 253.962 287.9C252.898 287.454 252.065 285.696 252.099 283.85C252.115 282.916 252.351 282.038 252.714 281.319C253.061 280.584 253.569 280.082 254.118 280.012C254.665 279.911 255.037 280.254 255.148 280.548C255.273 280.841 255.198 281.043 255.252 281.062C255.279 281.09 255.479 280.9 255.416 280.475C255.382 280.27 255.274 280.023 255.043 279.815C254.805 279.605 254.449 279.485 254.067 279.51C253.275 279.529 252.531 280.222 252.132 281.012C251.689 281.804 251.402 282.79 251.383 283.837C251.355 285.903 252.324 287.881 253.786 288.376C254.498 288.596 255.109 288.406 255.431 288.179C255.76 287.939 255.824 287.713 255.79 287.692Z" fill="#EB996E"/>
<path d="M249.764 250.124C249.798 246.922 245.796 244.827 242.674 244.101C239.553 243.377 236.253 244.325 233.443 245.864C231.798 246.764 230.142 248.045 229.775 249.882C229.406 251.719 231.176 253.908 232.932 253.251C229.568 254.401 227.863 258.89 229.614 261.982C231.366 265.073 236.096 265.921 238.812 263.63C237.935 266.564 236.02 269.176 233.486 270.897C238.755 271.647 244.35 269.399 247.63 265.211C250.912 261.023 251.756 255.056 249.764 250.124Z" fill="#0F2F65"/>
<path d="M242.651 266.404C242.578 266.415 242.304 265.254 242.268 263.332C242.226 261.416 242.511 258.737 243.448 255.946C244.393 253.156 245.789 250.851 246.981 249.351C248.174 247.842 249.094 247.083 249.147 247.136C249.335 247.268 245.899 250.67 244.091 256.162C242.205 261.625 242.882 266.412 242.651 266.404Z" fill="#1A86FE"/>
<path d="M288.148 239.13C289.091 243.298 295.429 248.642 298.211 251.887C303.52 258.077 304.566 260.133 304.514 273.973C307.02 269.192 308.939 264.51 308.747 259.117C308.555 253.724 306.567 248.321 302.816 244.441C299.065 240.559 293.492 238.356 288.148 239.13Z" fill="#0F2F65"/>
<path d="M331.594 353.014C331.594 353.014 320.554 334.619 317.491 330.898C314.619 327.409 310.919 325.352 308.448 324.271C307.073 323.67 305.628 323.257 304.15 323.001L288.274 319.487C288.274 319.487 288.246 330.317 276.891 330.987C265.536 331.656 255.976 315.85 255.976 315.85C255.976 315.85 237.634 318.685 233.245 320.941C228.856 323.198 221.958 326.063 218.164 345.056L215.5 363.637L247.127 366.558L250.154 413.526L265.839 424.442C265.839 424.442 309.324 435.739 312.102 436.487C314.881 437.233 315.802 366.558 315.802 366.558C315.802 366.558 326.971 359.342 331.594 353.014Z" fill="#0F2F65"/>
<path d="M310.775 345.116C310.816 345.1 311.031 345.583 311.385 346.471C311.747 347.356 312.208 348.661 312.721 350.292C313.752 353.552 314.882 358.16 315.522 363.346C316.152 368.535 316.167 373.281 315.955 376.693C315.85 378.398 315.717 379.776 315.58 380.721C315.45 381.668 315.357 382.189 315.315 382.184C315.271 382.179 315.281 381.65 315.335 380.699C315.397 379.75 315.461 378.373 315.507 376.674C315.604 373.276 315.518 368.573 314.893 363.424C314.258 358.279 313.207 353.694 312.291 350.42C311.836 348.782 311.441 347.462 311.152 346.554C310.871 345.642 310.733 345.13 310.775 345.116Z" fill="#455A64"/>
<path d="M309.423 422.05L249.874 409.097L247.122 366.561L220.641 364.115C220.641 364.115 221.62 393.193 222.639 401.839C224.104 414.272 231.459 431.239 235.76 434.629C240.063 438.019 312.097 436.491 312.097 436.491L309.423 422.05Z" fill="#FFBE9D"/>
<path d="M343.23 429.823C342.812 430.653 341.941 431.194 341.014 431.114C340.829 431.098 340.636 431.061 340.437 430.997C339.12 430.575 339.244 427.894 339.244 427.894L332.933 426.865C332.933 426.865 324.726 432.153 321.807 435.659C318.887 439.164 311.439 436.325 311.439 436.325L308.857 422.883L320.474 412.386C320.474 412.386 319.761 413.011 320.561 411.047C321.363 409.084 325.012 409.827 325.012 409.827C325.58 408.855 327.965 408.508 327.965 408.508L338.154 409.681C340.254 409.923 342.131 411.102 343.26 412.887L347.568 419.703C347.568 419.703 349.844 424.61 349.478 425.751C348.926 427.473 347.104 427.09 347.104 427.09C347.104 427.09 346.602 430.316 345.755 430.428C344.907 430.54 343.23 429.823 343.23 429.823Z" fill="#FFBE9D"/>
<path d="M321.541 420.105C321.552 420.212 322.907 420.087 325.083 420.181C327.255 420.286 330.258 420.667 333.398 421.735C334.967 422.263 336.415 422.9 337.685 423.567C338.916 424.26 340.201 424.829 340.595 425.725C340.793 426.164 340.704 426.61 340.484 426.939C340.269 427.267 339.976 427.482 339.715 427.588C339.18 427.808 338.833 427.657 338.822 427.719C338.797 427.734 339.139 427.999 339.798 427.826C340.117 427.74 340.485 427.527 340.781 427.148C341.084 426.788 341.258 426.145 341.022 425.554C340.802 424.961 340.296 424.501 339.754 424.123C339.2 423.76 338.618 423.389 337.971 423.04C336.689 422.329 335.213 421.66 333.606 421.119C330.392 420.025 327.301 419.709 325.093 419.72C322.876 419.745 321.53 420.035 321.541 420.105Z" fill="#EB996E"/>
<path d="M320.828 426.598C320.84 426.791 324.986 426.618 330.081 426.916C335.178 427.196 339.277 427.836 339.31 427.646C339.325 427.563 338.316 427.294 336.657 427.003C334.999 426.711 332.686 426.415 330.117 426.268C327.549 426.123 325.218 426.156 323.537 426.258C321.856 426.361 320.823 426.513 320.828 426.598Z" fill="#EB996E"/>
<path d="M343.169 429.572C343.203 429.566 343.248 429.19 343.296 428.488C343.339 427.788 343.382 426.769 343.302 425.506C343.26 424.875 343.192 424.181 343.018 423.44C342.856 422.696 342.501 421.913 342.017 421.222C341.098 419.833 339.822 418.394 338.198 417.315C336.58 416.248 334.962 415.348 333.325 414.853C331.7 414.362 330.18 414.24 328.924 414.183C327.663 414.139 326.649 414.166 325.948 414.193C325.247 414.222 324.861 414.258 324.859 414.303C324.855 414.408 326.413 414.46 328.894 414.641C330.129 414.754 331.605 414.923 333.146 415.423C334.675 415.913 336.265 416.817 337.83 417.848C339.396 418.895 340.589 420.213 341.523 421.56C342.508 422.843 342.692 424.317 342.844 425.545C343.091 428.011 343.029 429.576 343.169 429.572Z" fill="#EB996E"/>
<path d="M328.447 411.031C328.446 411.128 329.972 411.169 332.407 411.448C334.751 411.807 338.503 411.979 340.64 415.208C342.954 418.145 344.922 420.919 345.782 423.195C346.695 425.455 346.614 427.018 346.747 427.007C346.782 427.009 346.842 426.624 346.806 425.928C346.777 425.233 346.628 424.219 346.213 423.036C345.431 420.635 343.474 417.756 341.147 414.802C340.554 414.061 339.911 413.357 339.167 412.801C338.425 412.235 337.562 411.905 336.769 411.676C335.162 411.222 333.684 411.09 332.451 410.99C329.976 410.826 328.446 410.95 328.447 411.031Z" fill="#EB996E"/>
<path d="M324.028 433.427C324.041 433.442 324.249 433.284 324.633 432.965C325.069 432.615 325.635 432.162 326.338 431.596C327.843 430.433 330.08 428.778 333.035 426.986L332.89 427.014C334.772 427.334 336.895 427.696 339.194 428.086L338.977 427.82C338.964 428.335 338.993 428.838 339.095 429.361C339.201 429.874 339.365 430.427 339.811 430.877C340.042 431.095 340.374 431.225 340.648 431.261C340.929 431.332 341.233 431.36 341.534 431.313C342.136 431.227 342.702 430.911 343.104 430.445C343.207 430.331 343.296 430.203 343.379 430.072L343.436 429.971L343.464 429.92L343.478 429.894L343.479 429.891C343.561 429.859 342.775 430.147 343.11 430.026L343.117 430.028L343.13 430.033L343.33 430.114C343.596 430.22 343.866 430.316 344.145 430.402C344.423 430.489 344.708 430.565 345.009 430.618C345.159 430.643 345.313 430.665 345.477 430.669C345.63 430.675 345.815 430.68 346.061 430.556C346.416 430.303 346.544 430.004 346.679 429.722C346.805 429.436 346.908 429.147 346.993 428.855C347.167 428.27 347.293 427.682 347.398 427.07L347.029 427.325C347.848 427.469 348.813 427.272 349.379 426.524C349.635 426.177 349.844 425.747 349.812 425.255C349.792 424.814 349.693 424.427 349.589 424.036C349.147 422.489 348.523 421.005 347.849 419.501L347.841 419.484L347.828 419.465C347.096 418.305 346.318 417.073 345.532 415.829C345.043 415.054 344.556 414.287 344.074 413.525C343.59 412.787 343.156 411.957 342.476 411.293C341.821 410.631 341.036 410.115 340.189 409.774C339.348 409.412 338.414 409.322 337.59 409.235C334.215 408.855 330.996 408.493 327.986 408.155L327.945 408.15L327.911 408.156C327.321 408.256 326.769 408.394 326.226 408.6C325.698 408.813 325.139 409.053 324.763 409.622L325.115 409.512C324.036 409.069 322.787 409.064 321.843 409.694C320.894 410.318 320.456 411.326 320.224 412.273L320.301 412.14C316.965 415.138 314.243 417.584 312.295 419.335C311.397 420.161 310.679 420.821 310.138 421.32C309.65 421.781 309.401 422.03 309.417 422.048C309.433 422.066 309.712 421.85 310.231 421.424C310.794 420.95 311.539 420.322 312.473 419.535C314.454 417.825 317.224 415.432 320.619 412.501L320.674 412.454L320.696 412.367C320.91 411.532 321.341 410.613 322.124 410.129C322.886 409.616 323.979 409.632 324.883 410.01L325.106 410.104L325.237 409.899C325.455 409.56 325.939 409.305 326.424 409.128C326.916 408.945 327.458 408.814 327.994 408.728L327.919 408.729C330.927 409.084 334.144 409.463 337.517 409.861C338.378 409.955 339.182 410.034 339.949 410.366C340.714 410.676 341.425 411.146 342.016 411.745C342.617 412.325 343.026 413.104 343.526 413.87C344.007 414.632 344.493 415.401 344.982 416.175C345.77 417.42 346.549 418.651 347.281 419.81L347.262 419.773C347.925 421.244 348.55 422.731 348.974 424.204C349.074 424.568 349.165 424.945 349.18 425.279C349.214 425.569 349.067 425.881 348.879 426.144C348.513 426.66 347.775 426.823 347.153 426.722L346.836 426.67L346.785 426.977C346.689 427.553 346.567 428.135 346.406 428.683C346.254 429.203 346.027 429.835 345.747 430.046C345.732 430.054 345.624 430.088 345.49 430.074C345.367 430.073 345.235 430.056 345.105 430.034C344.842 429.99 344.576 429.921 344.314 429.842C344.052 429.763 343.792 429.673 343.539 429.575L343.352 429.499L343.341 429.494L343.336 429.492C343.668 429.37 342.88 429.656 342.961 429.628L342.96 429.63L342.949 429.651L342.927 429.691L342.883 429.771C342.819 429.875 342.75 429.976 342.669 430.067C342.355 430.438 341.913 430.686 341.453 430.756C341.223 430.795 340.992 430.774 340.759 430.716C340.508 430.681 340.34 430.61 340.183 430.475C339.582 429.849 339.496 428.732 339.492 427.842L339.491 427.609L339.275 427.575C336.971 427.215 334.844 426.883 332.957 426.589L332.875 426.577L332.811 426.617C329.856 428.476 327.657 430.186 326.188 431.413C325.457 432.03 324.909 432.526 324.55 432.873C324.195 433.224 324.013 433.413 324.028 433.427Z" fill="#EB996E"/>
<path d="M420.496 390.656L342.058 391.293C339.513 391.293 337.083 392.515 336.701 395.029L328.128 452.161H287.726C286.426 452.161 285.371 453.215 285.371 454.515C285.371 455.814 286.426 456.868 287.726 456.868H327.421H334.956H416.764L425.582 396.57C426.056 393.458 423.645 390.656 420.496 390.656Z" fill="#E0E0E0"/>
<path d="M420.498 390.656C420.498 390.656 420.925 390.601 421.734 390.772C422.518 390.954 423.756 391.439 424.73 392.757C425.215 393.402 425.585 394.264 425.699 395.259C425.827 396.268 425.538 397.333 425.411 398.483C425.083 400.791 424.704 403.451 424.28 406.44C422.554 418.418 420.066 435.68 417.007 456.902L416.976 457.109H416.766C383.376 457.128 339.496 457.155 291.58 457.183C290.454 457.183 289.332 457.183 288.21 457.183C287.691 457.205 286.967 457.175 286.428 456.844C285.871 456.538 285.438 456.023 285.221 455.429C284.752 454.233 285.312 452.768 286.439 452.173C286.977 451.849 287.693 451.821 288.206 451.841H289.866C294.285 451.843 298.66 451.843 302.977 451.844C311.613 451.846 320.024 451.85 328.129 451.852L327.827 452.113C330.912 431.652 333.79 412.566 336.373 395.442C336.462 394.358 336.953 393.185 337.824 392.458C338.676 391.703 339.754 391.302 340.823 391.135C341.914 390.97 342.953 391.058 343.986 391.023C345.021 391.016 346.048 391.009 347.066 391.003C351.139 390.975 355.078 390.949 358.874 390.924C366.465 390.875 373.486 390.831 379.861 390.791C392.597 390.725 402.748 390.674 409.738 390.638C413.211 390.632 415.895 390.627 417.732 390.623C418.628 390.628 419.314 390.631 419.796 390.633C420.261 390.64 420.498 390.656 420.498 390.656C420.498 390.656 420.262 390.676 419.797 390.689C419.315 390.699 418.63 390.713 417.734 390.731C415.898 390.758 413.215 390.797 409.742 390.847C402.752 390.925 392.6 391.038 379.866 391.179C373.492 391.242 366.471 391.311 358.88 391.387C355.084 391.423 351.145 391.461 347.072 391.499C346.054 391.508 345.027 391.518 343.992 391.528C342.96 391.563 341.898 391.483 340.907 391.641C339.909 391.798 338.922 392.174 338.171 392.847C337.4 393.518 336.992 394.453 336.895 395.523C334.338 412.649 331.489 431.74 328.433 452.205L328.394 452.465H328.131C320.026 452.467 311.614 452.471 302.979 452.474C298.662 452.475 294.288 452.475 289.868 452.476H288.209C287.624 452.46 287.187 452.483 286.748 452.729C285.888 453.184 285.46 454.301 285.818 455.213C285.983 455.665 286.314 456.06 286.739 456.292C287.181 456.543 287.621 456.567 288.214 456.55C289.334 456.55 290.457 456.55 291.583 456.55C339.499 456.578 383.379 456.605 416.769 456.624L416.53 456.831C419.677 435.621 422.237 418.369 424.013 406.398C424.462 403.413 424.861 400.757 425.208 398.451C425.347 397.296 425.644 396.237 425.528 395.276C425.428 394.313 425.082 393.473 424.618 392.838C423.687 391.541 422.488 391.043 421.719 390.84C420.925 390.651 420.495 390.688 420.498 390.656Z" fill="#0F2F65"/>
<path d="M377.946 427.981C380.658 427.981 382.857 425.784 382.857 423.073C382.857 420.363 380.658 418.166 377.946 418.166C375.234 418.166 373.035 420.363 373.035 423.073C373.035 425.784 375.234 427.981 377.946 427.981Z" fill="white"/>
<path d="M331.305 456.341C331.415 456.359 333.913 441.81 336.88 423.851C339.849 405.885 342.165 391.311 342.055 391.292C341.944 391.273 339.448 405.818 336.478 423.784C333.511 441.745 331.194 456.322 331.305 456.341Z" fill="#0F2F65"/>
<path d="M616 227L616 -168" stroke="#BFD0E0" stroke-miterlimit="10"/>
<path d="M653.323 263.022L650.334 269.597H581.984L579.004 263.022L608.103 242.867H624.223L653.323 263.022Z" fill="#A8BACF"/>
<path d="M626.242 223.447L624.222 242.867H608.102L606.082 223.447H626.242Z" fill="#D3E2EE"/>
<path d="M653.319 263.025L650.33 269.599H581.98L579 263.025H653.319Z" fill="#99ACC4"/>
<path d="M687 206L687 -168" stroke="#BFD0E0" stroke-miterlimit="10"/>
<path d="M724.444 241.811L721.455 248.386H653.105L650.125 241.811L679.224 221.655H695.345L724.444 241.811Z" fill="#A8BACF"/>
<path d="M697.362 202.236L695.343 221.655H679.222L677.203 202.236H697.362Z" fill="#D3E2EE"/>
<path d="M724.44 241.814L721.451 248.388H653.101L650.121 241.814H724.44Z" fill="#99ACC4"/>
</svg>
