<svg width="40" height="40" viewBox="0 0 40 40" fill="none" xmlns="http://www.w3.org/2000/svg">
<g clip-path="url(#clip0_964_16222)">
<path d="M36.16 0H3.84C1.71923 0 0 1.71923 0 3.84V36.16C0 38.2808 1.71923 40 3.84 40H36.16C38.2808 40 40 38.2808 40 36.16V3.84C40 1.71923 38.2808 0 36.16 0Z" fill="#1A86FE"/>
<path d="M7.04004 10.08C7.04004 7.66641 7.04004 6.45961 7.78985 5.70981C8.53964 4.96 9.74644 4.96 12.16 4.96H32C32.4526 4.96 32.6788 4.96 32.8195 5.10059C32.96 5.24118 32.96 5.46745 32.96 5.92V6.39272C32.96 8.80632 32.96 10.0131 32.2102 10.7629C31.4604 11.5127 30.2536 11.5127 27.84 11.5127H8.00004C7.54749 11.5127 7.32122 11.5127 7.18063 11.3722C7.04004 11.2315 7.04004 11.0053 7.04004 10.5527V10.08Z" fill="white"/>
<path d="M21.3044 34.9759C18.415 34.7741 16.9704 34.6732 16.0801 33.7751C15.9768 33.671 15.8805 33.5602 15.7917 33.4434C15.0264 32.4369 15.1275 30.9922 15.3298 28.1029L16.7941 7.18437L24.1362 7.69721L22.2864 34.1222C22.2575 34.535 22.243 34.7414 22.1147 34.8686C22.0998 34.8834 22.084 34.8971 22.0673 34.9098C21.9235 35.0191 21.7171 35.0047 21.3044 34.9759Z" fill="white"/>
</g>
<defs>
<clipPath id="clip0_964_16222">
<rect width="40" height="40" fill="white"/>
</clipPath>
</defs>
</svg>
