<svg width="877" height="700" viewBox="0 0 877 700" fill="none" xmlns="http://www.w3.org/2000/svg">
<g opacity="0.6">
<path d="M673.373 676.22H55.3194C50.6218 671.732 46.2272 666.907 42.195 661.697C5.00181 613.61 3.38704 539.867 36.8821 488.803C49.1382 470.121 64.6833 455.026 78.651 437.019C111.225 395.021 101.967 333.04 122.719 284.606C142.387 238.705 177.543 201.012 219.899 182.946C282.667 156.176 363.209 177.576 415.863 221.507C459.437 257.86 492.726 294.145 549.075 298.481C620.063 303.944 681.756 327.234 723.116 399.778C745.591 439.205 754.009 487.226 749.333 533.516C742.718 599.01 713.558 644.768 673.373 676.22Z" fill="#E1F2FF"/>
<path d="M24.049 483.631C31.5951 472.159 40.0876 462.324 49.0829 451.91C55.1297 444.943 60.5644 438.622 65.8585 431.795C84.7175 407.467 89.565 375.696 94.2563 344.94C97.6358 322.771 101.131 299.844 109.817 279.565C129.963 232.559 165.525 195.365 207.385 177.522C237.297 164.759 272.623 162.24 309.538 170.242C343.889 177.705 377.434 194.021 403.995 216.186C410.398 221.513 416.798 227.049 422.442 231.934C458.092 262.716 488.879 289.303 536.854 293.007C576.246 296.038 608.42 304.399 635.219 318.562C666.833 335.281 691.758 360.171 711.42 394.654C733.277 432.969 742.628 480.653 737.753 528.92C731.662 589.138 706.004 637.335 661.433 672.22L661.318 672.31H654.253V671.272H661.033C705.279 636.616 730.785 588.682 736.841 528.804C741.695 480.773 732.393 433.332 710.651 395.216C691.083 360.9 666.284 336.133 634.831 319.5C608.139 305.393 576.071 297.062 536.795 294.038C488.545 290.315 457.655 263.641 421.886 232.755C416.242 227.878 409.845 222.345 403.452 217.021C376.997 194.946 343.583 178.696 309.366 171.26C272.62 163.298 237.469 165.797 207.707 178.497C166.066 196.244 130.687 233.248 110.638 280.021C102.008 300.167 98.5259 323.017 95.1527 345.146C90.4458 376.015 85.5764 407.932 66.5488 432.48C61.2391 439.324 55.795 445.659 49.7388 452.636C40.7685 463.023 32.2916 472.835 24.7862 484.25C8.54148 509.037 0.0865009 540.083 0.98291 571.667C1.87619 603.488 12.2114 633.738 30.0834 656.845C34.0001 661.892 38.3885 666.743 43.1297 671.268H50.3291V672.306H42.9517L42.7362 672.28L42.6019 672.123C37.8013 667.549 33.3598 662.638 29.3931 657.531C11.3838 634.244 0.967292 603.761 0.0646365 571.7C-0.834896 539.883 7.67942 508.605 24.049 483.631Z" fill="#C6E5FD"/>
</g>
<path d="M720.05 604.323C721.032 612.1 721.598 619.878 721.792 627.634C721.932 632.587 721.908 637.529 721.734 642.461C721.595 646.654 721.353 650.843 720.984 655.011C720.926 655.873 720.858 656.739 720.776 657.59C720.517 660.291 720.207 662.986 719.87 665.677H735.853C739.845 659.018 742.463 651.775 744.879 644.163C751.254 624.159 753.769 602.279 750.122 581.152C747.985 568.756 742.916 555.653 731.21 547.394C723.67 542.072 715.186 545.568 713.005 552.572C710.533 560.508 713.063 569.203 715.036 577.283C717.245 586.277 718.919 595.244 720.05 604.323Z" fill="#C6E5FD"/>
<path d="M739.064 589.978C741.801 609.132 741.085 629.013 735.785 647.699C734.026 653.89 731.715 659.908 728.865 665.681H730.15C744.733 635.848 745.04 599.177 735.393 568.113C733.13 560.849 730.256 553.599 725.985 547.211C725.593 546.606 724.587 547.165 724.993 547.785C733.246 560.152 737.009 575.553 739.064 589.978Z" fill="#B9E0FB"/>
<path d="M794.977 665.681C801.229 660.144 807.743 654.854 814.597 649.894C822.298 644.322 830.298 639.2 838.67 634.462C846.21 630.202 854.602 625.89 858.897 618.534C862.684 612.034 859.37 603.504 850.031 601.847C835.506 599.279 821.987 604.851 811.056 612.044C792.434 624.293 777.562 641.487 766.838 660.127C765.771 661.98 764.745 663.831 763.75 665.681H794.977Z" fill="#C6E5FD"/>
<path d="M772.665 665.68C786.978 643.854 808.521 625.96 831.679 614.524C838.769 611.027 846.272 607.992 854.122 606.557C854.848 606.423 854.548 605.347 853.822 605.48C838.272 608.315 823.573 616.712 810.931 625.622C795.489 636.505 781.739 650.013 771.451 665.684H772.665V665.68Z" fill="#B9E0FB"/>
<path d="M683.392 594.731C701.846 614.345 712.529 639.682 717.618 665.681H718.787C713.729 639.739 703.179 614.475 684.949 594.742C684.476 594.214 683.991 593.7 683.494 593.183C682.986 592.645 682.168 593.44 682.676 593.968C682.918 594.214 683.16 594.471 683.392 594.731Z" fill="#B9E0FB"/>
<path d="M699.304 624.049C695.415 625.727 690.759 626.23 686.314 625.449C681.869 624.668 677.666 622.614 674.588 619.712C678.314 617.598 682.213 616.314 686.815 617.011C691.413 617.704 696.322 620.922 699.304 624.049Z" fill="#CDE8F9"/>
<path d="M713.874 659.982C709.93 661.245 705.485 661.326 701.466 660.204C697.447 659.082 693.889 656.771 691.533 653.753C695.399 652.061 699.281 651.174 703.46 652.23C707.639 653.281 711.651 656.757 713.874 659.982Z" fill="#CDE8F9"/>
<path d="M701.692 585.604C696.078 590.081 693.978 597.436 696.456 603.937C700.161 603.268 703.243 600.029 703.693 596.852C704.143 593.676 703.57 588.516 701.692 585.604Z" fill="#CDE8F9"/>
<path d="M689.248 605.496C682.506 609.956 673.156 608.651 667.549 602.467C674.482 598.573 683.236 599.955 689.248 605.496Z" fill="#CDE8F9"/>
<path d="M727.242 623.793C719.156 627.898 714.469 636.111 715.553 644.265C720.22 644.244 724.886 641.074 726.359 637.43C727.831 633.79 728.656 627.602 727.242 623.793Z" fill="#CDE8F9"/>
<path d="M706.404 644.611C696.962 648.463 686.068 644.994 681.115 636.567C690.619 633.422 700.773 636.855 706.404 644.611Z" fill="#CDE8F9"/>
<path d="M720.836 658.515C720.032 650.914 726.375 645.195 735.555 645.241C735.691 652.606 729.593 657.861 720.836 658.515Z" fill="#CDE8F9"/>
<path d="M667.378 579.25C671.816 580.087 676.149 581.811 679.462 584.533C682.775 587.252 684.981 591.019 684.946 594.787C680.215 594.78 674.887 593.513 671.544 590.52C668.2 587.527 667.065 583.2 667.378 579.25Z" fill="#CDE8F9"/>
<path d="M718.466 602.684C719.001 606.451 718.486 610.331 716.489 613.598C714.488 616.866 710.912 619.469 706.586 620.264C704.994 616.437 704.654 611.857 706.954 608.505C709.255 605.153 713.833 603.289 718.466 602.684Z" fill="#CDE8F9"/>
<path d="M745.135 665.68H759.898C759.963 665.557 760.034 665.445 760.096 665.318C780.057 624.489 816.7 592.81 835.114 551.302C839.024 542.49 839.733 526.341 825.007 528.008C810.299 529.672 798.109 539.866 788.756 551.014C766.023 578.099 756.333 610.056 748.254 643.618C746.621 650.396 743.911 657.885 744.985 664.959C745.026 665.216 745.087 665.434 745.135 665.68Z" fill="#CDE8F9"/>
<path d="M749.434 665.681C751.428 645.916 758.501 627.001 767.183 609.09C776.547 589.775 787.036 570.931 802.306 555.365C810.508 547.004 819.721 539.652 829.719 533.401C830.343 533.011 829.763 532.04 829.136 532.434C811.687 543.339 796.6 557.662 785.151 574.48C778.5 584.245 773.005 594.773 767.77 605.301C762.882 615.126 758.42 625.179 754.929 635.56C751.636 645.36 749.295 655.434 748.275 665.681H749.434Z" fill="#B9E0FB"/>
<path d="M164.916 647.493C165.424 648.098 165.966 648.703 166.532 649.319C167.364 650.272 168.24 651.257 169.106 652.344C170.595 654.226 171.785 656.323 172.637 658.542C173.533 660.825 174.038 663.238 174.208 665.676H199.661C199.664 664.392 199.572 663.105 199.364 661.824C198.857 658.641 197.981 655.457 198.015 652.33C198.025 651.289 198.141 650.258 198.407 649.224C198.754 647.901 199.306 646.681 200.012 645.527C201.641 642.882 204.017 640.595 206.212 638.221C206.87 637.514 207.504 636.796 208.104 636.058C210.668 632.909 212.444 629.198 213.405 625.287C214.489 620.904 214.56 616.264 213.565 611.881C213.217 610.256 212.709 608.677 212.052 607.15C208.091 597.871 196.385 592.436 195.819 581.419C195.414 573.494 201.822 565.649 199.064 558.174C196.975 552.479 191.712 548.828 186.745 545.578C184.182 543.896 182.151 542.855 180.395 540.221C179.461 538.821 177.314 534.459 177.406 532.141C175.674 535.37 174 538.662 173.158 542.204C172.374 545.522 172.524 549.018 173.656 552.237C174.812 555.498 176.438 558.4 176.485 561.952C176.625 571.144 168.011 577.922 163.935 586.206C161.463 591.205 161.037 596.629 161.961 602.053C162.895 607.477 165.738 612.152 166.856 617.485C167.582 621.002 166.522 624.108 165.114 627.158C164.088 629.409 162.864 631.629 162.053 633.972C161.845 634.587 161.661 635.228 161.521 635.864C161.497 635.931 161.487 635.987 161.473 636.054C160.366 641.288 162.213 644.324 164.903 647.476C164.906 647.483 164.916 647.483 164.916 647.493Z" fill="#C6E5FD"/>
<path d="M153.806 665.681C152.81 663.831 151.788 661.981 150.717 660.127C139.99 641.487 125.121 624.296 106.5 612.045C95.5682 604.848 82.0459 599.279 67.5249 601.847C58.1851 603.507 54.8719 612.034 58.6692 618.535C62.9539 625.886 71.3461 630.203 78.8861 634.462C87.2578 639.204 95.258 644.326 102.958 649.894C109.81 654.854 116.327 660.144 122.579 665.681H153.806Z" fill="#C6E5FD"/>
<path d="M144.735 665.68H146.255C131.785 643.343 109.813 625.027 86.1804 613.423C79.0903 609.937 71.5742 606.911 63.724 605.476C63.0081 605.343 62.6979 606.419 63.424 606.553C78.5483 609.321 92.8069 617.39 105.16 625.977C120.618 636.72 134.396 650.132 144.735 665.68Z" fill="#B9E0FB"/>
<path d="M204.967 665.681C211.928 642.887 223.65 621.267 241.614 604.984C241.856 604.749 242.111 604.538 242.353 604.313C242.895 603.831 242.077 603.036 241.535 603.528C241.062 603.954 240.588 604.379 240.114 604.83C222.324 621.225 210.687 642.887 203.777 665.681H204.967Z" fill="#B9E0FB"/>
<path d="M224.33 631.4C227.858 633.26 232.201 634.073 236.441 633.665C240.682 633.257 244.792 631.628 247.915 629.124C244.574 626.866 241.005 625.374 236.625 625.691C232.242 626.011 227.377 628.677 224.33 631.4Z" fill="#CDE8F9"/>
<path d="M207.844 664.132C211.454 665.606 215.629 666.007 219.495 665.247C223.36 664.488 226.885 662.571 229.336 659.904C225.831 658.033 222.245 656.918 218.237 657.601C214.225 658.283 210.186 661.259 207.844 664.132Z" fill="#CDE8F9"/>
<path d="M225.058 595.068C229.991 599.69 231.399 606.76 228.566 612.691C225.133 611.79 222.485 608.523 222.308 605.501C222.134 602.48 223.068 597.668 225.058 595.068Z" fill="#CDE8F9"/>
<path d="M235.217 614.683C241.213 619.368 250.109 618.823 255.86 613.414C249.642 609.25 241.301 609.911 235.217 614.683Z" fill="#CDE8F9"/>
<path d="M198.073 629.123C205.361 633.573 209.135 641.638 207.481 649.229C203.094 648.87 198.949 645.546 197.848 642.015C196.747 638.48 196.451 632.602 198.073 629.123Z" fill="#CDE8F9"/>
<path d="M216.055 650.217C224.634 654.526 235.154 652.06 240.461 644.494C231.765 640.846 221.952 643.333 216.055 650.217Z" fill="#CDE8F9"/>
<path d="M201.409 662.243C202.752 655.156 197.23 649.313 188.592 648.684C187.897 655.602 193.221 660.988 201.409 662.243Z" fill="#CDE8F9"/>
<path d="M257.815 591.594C253.578 592.058 249.368 593.363 246.041 595.681C242.715 597.996 240.352 601.379 240.09 604.921C244.542 605.263 249.648 604.457 253.026 601.886C256.404 599.318 257.805 595.329 257.815 591.594Z" fill="#CDE8F9"/>
<path d="M207.96 609.91C207.162 613.414 207.35 617.1 208.976 620.318C210.602 623.537 213.765 626.245 217.773 627.308C219.566 623.825 220.241 619.541 218.336 616.221C216.434 612.9 212.268 610.818 207.96 609.91Z" fill="#CDE8F9"/>
<path d="M157.657 665.68H172.42C172.467 665.434 172.529 665.22 172.57 664.959C173.647 657.882 170.933 650.393 169.301 643.618C161.222 610.06 151.531 578.099 128.799 551.014C119.445 539.87 107.256 529.672 92.5473 528.008C77.8218 526.341 78.5308 542.49 82.4406 551.302C100.854 592.806 137.498 624.489 157.459 665.318C157.517 665.445 157.592 665.557 157.657 665.68Z" fill="#CDE8F9"/>
<path d="M131.932 575.83C138.149 585.095 143.348 595.015 148.324 604.948C153.274 614.829 157.8 624.932 161.342 635.372C164.686 645.228 167.079 655.363 168.115 665.68H169.271C167.3 646.055 160.377 627.264 151.808 609.447C142.247 589.569 131.465 570.184 115.724 554.231C107.543 545.94 98.3529 538.645 88.4131 532.433C87.786 532.042 87.2065 533.01 87.8303 533.4C105.378 544.368 120.53 558.84 131.932 575.83Z" fill="#B9E0FB"/>
<path d="M186.37 572.763C186.036 578.726 183.309 583.39 180.541 588.543C178.704 591.952 177.18 595.614 177.944 599.515C178.799 603.887 181.605 607.605 183.752 611.429C186.547 616.371 187.771 621.806 187.263 627.423C186.35 637.702 180.902 646.957 179.839 657.225C179.549 660.039 179.512 662.86 179.583 665.681H180.739C180.681 663.493 180.684 661.305 180.834 659.117C181.55 648.761 186.745 639.57 188.2 629.372C188.869 624.62 188.548 619.811 186.851 615.284C185.279 611.116 182.508 607.552 180.582 603.549C177.753 597.664 179.382 592.902 182.453 587.477C184.775 583.376 186.772 579.443 187.348 574.723C187.972 569.714 187.59 563.952 185.491 559.291C184.475 557.026 183.111 554.954 181.922 552.78C180.2 549.632 179 546.314 178.193 542.85C178.032 542.143 176.921 542.435 177.085 543.142C178.24 548.119 180.398 552.365 182.903 556.793C185.702 561.757 186.68 567.114 186.37 572.763Z" fill="#B9E0FB"/>
<path d="M458.776 690.266C689.756 690.266 877.001 680.5 877.001 668.453C877.001 656.406 689.756 646.641 458.776 646.641C227.797 646.641 40.5508 656.406 40.5508 668.453C40.5508 680.5 227.797 690.266 458.776 690.266Z" fill="#C6E5FD"/>
<path d="M443.611 624.467V662.23H498.87H559.817V624.467H443.611Z" fill="#0F2F65" fill-opacity="0.3"/>
<path d="M438.754 613.895V624.451H563.9V613.895H498.888H438.754Z" fill="#0F2F65" fill-opacity="0.1"/>
<path d="M501.309 662.215H559.818V624.452H563.882V613.895H498.871V623.476L501.309 662.215Z" fill="#0F2F65" fill-opacity="0.1"/>
<path d="M483.425 630.564H459.859V636.248H483.425V630.564Z" fill="#0F2F65" fill-opacity="0.1"/>
<path d="M487.096 643.375H456.836V655.378H487.096V643.375Z" fill="white"/>
<path d="M461.48 576.195V613.959H516.738H577.686V576.195H461.48Z" fill="#0F2F65" fill-opacity="0.3"/>
<path d="M456.602 565.623V576.18H581.746V565.623H516.735H456.602Z" fill="#0F2F65" fill-opacity="0.1"/>
<path d="M519.185 613.944H577.694V576.18H581.757V565.623H516.746V575.204L519.185 613.944Z" fill="#0F2F65" fill-opacity="0.1"/>
<path d="M501.296 582.295H477.73V587.979H501.296V582.295Z" fill="#0F2F65" fill-opacity="0.1"/>
<path d="M504.965 595.104H474.705V607.107H504.965V595.104Z" fill="white"/>
<path d="M657.301 600.29C673.227 593.535 691.665 580.246 699.89 563.949C682.712 570.846 667.563 583.773 657.301 600.29Z" fill="#0F2F65"/>
<path d="M660.689 574.841C676.616 568.085 695.054 554.795 703.279 538.5C686.101 545.398 670.952 558.323 660.689 574.841Z" fill="#0F2F65"/>
<path d="M665.301 550.333C681.227 543.578 699.665 530.289 707.89 513.992C690.712 520.89 675.563 533.815 665.301 550.333Z" fill="#0F2F65"/>
<path d="M671.068 524.54C686.093 515.63 702.841 499.903 709.081 482.627C692.828 491.852 679.306 506.76 671.068 524.54Z" fill="#0F2F65"/>
<path d="M677.244 504.791C688.194 490.479 698.399 469.185 698.265 450.73C686.278 465.833 678.801 485.061 677.244 504.791Z" fill="#0F2F65"/>
<path d="M674.195 514.164C671.983 494.814 664.452 470.483 651.664 455.973C653.696 476.708 661.709 497.405 674.195 514.164Z" fill="#0F2F65"/>
<path d="M669.038 535.36C665.141 515.409 655.288 490.734 640.77 476.74C644.593 498.149 654.648 518.999 669.038 535.36Z" fill="#0F2F65"/>
<path d="M663.128 561.208C659.23 541.257 649.378 516.582 634.859 502.588C638.683 523.996 648.737 544.847 663.128 561.208Z" fill="#0F2F65"/>
<path d="M658.38 592.827C654.482 572.876 644.63 548.201 630.111 534.207C633.935 555.616 643.99 576.466 658.38 592.827Z" fill="#0F2F65"/>
<path d="M677.985 501.068C677.974 501.066 677.932 501.167 677.862 501.366C677.783 501.602 677.683 501.895 677.56 502.259C677.292 503.093 676.924 504.247 676.455 505.71C675.498 508.708 674.203 513.075 672.688 518.494C671.161 523.912 669.485 530.401 667.754 537.638C666.054 544.882 664.322 552.881 662.725 561.319C661.147 569.763 659.858 577.846 658.809 585.214C657.79 592.586 656.999 599.242 656.449 604.842C655.891 610.442 655.51 614.98 655.312 618.12C655.216 619.653 655.139 620.862 655.084 621.737C655.067 622.121 655.053 622.43 655.04 622.678C655.034 622.891 655.037 623 655.047 623C655.057 623.001 655.077 622.893 655.104 622.683C655.132 622.436 655.166 622.129 655.208 621.746C655.291 620.874 655.407 619.669 655.551 618.14C655.824 615.007 656.272 610.477 656.886 604.889C657.49 599.299 658.326 592.655 659.376 585.294C660.455 577.938 661.76 569.868 663.336 561.433C664.932 553.005 666.644 545.013 668.311 537.768C670.01 530.531 671.641 524.037 673.113 518.61C674.572 513.179 675.802 508.797 676.688 505.779C677.109 504.302 677.44 503.138 677.679 502.295C677.778 501.924 677.858 501.624 677.922 501.383C677.974 501.179 677.996 501.071 677.985 501.068Z" fill="#0F2F65"/>
<path d="M649.548 610.769C656.301 596.634 661.214 576.762 657.898 561.25C650.407 576.246 647.436 593.86 649.548 610.769Z" fill="#0F2F65"/>
<path d="M638.306 592.441C645.059 578.306 649.972 558.434 646.656 542.92C639.165 557.917 636.194 575.531 638.306 592.441Z" fill="#0F2F65"/>
<path d="M628.231 573.756C634.984 559.621 639.897 539.749 636.581 524.236C629.09 539.233 626.121 556.846 628.231 573.756Z" fill="#0F2F65"/>
<path d="M618.31 553.686C623.333 538.724 625.853 518.331 620.727 503.41C615.074 519.33 614.215 537.213 618.31 553.686Z" fill="#0F2F65"/>
<path d="M611.84 537.252C611.346 521.334 606.661 501.398 596.771 489.645C597.011 506.707 602.37 523.641 611.84 537.252Z" fill="#0F2F65"/>
<path d="M614.836 545.141C603.122 534.095 585.306 523.127 569.295 521.691C581.629 533.737 597.828 542.078 614.836 545.141Z" fill="#0F2F65"/>
<path d="M622.735 561.885C609.605 551.49 590.1 541.731 573.238 541.693C587.094 553.068 604.699 560.25 622.735 561.885Z" fill="#0F2F65"/>
<path d="M632.612 582.078C619.482 571.683 599.977 561.924 583.115 561.885C596.971 573.261 614.576 580.443 632.612 582.078Z" fill="#0F2F65"/>
<path d="M646.362 605.321C633.232 594.926 613.727 585.167 596.865 585.129C610.721 596.504 628.326 603.686 646.362 605.321Z" fill="#0F2F65"/>
<path d="M610.332 534.363C610.322 534.367 610.348 534.456 610.406 534.626C610.479 534.828 610.569 535.075 610.678 535.375C610.946 536.075 611.314 537.031 611.776 538.237C612.732 540.72 614.194 544.285 616.069 548.66C619.817 557.41 625.368 569.349 632.265 582.139C635.725 588.53 639.185 594.528 642.429 599.923C645.703 605.301 648.734 610.092 651.379 614.052C654.011 618.019 656.196 621.192 657.753 623.351C658.51 624.397 659.109 625.227 659.549 625.836C659.741 626.091 659.899 626.301 660.028 626.473C660.139 626.615 660.199 626.684 660.208 626.678C660.216 626.672 660.173 626.591 660.078 626.437C659.962 626.256 659.82 626.036 659.647 625.766C659.23 625.143 658.662 624.293 657.944 623.219C656.445 621.021 654.315 617.814 651.73 613.823C649.133 609.838 646.142 605.03 642.899 599.642C639.683 594.238 636.242 588.241 632.788 581.859C625.901 569.085 620.298 557.193 616.455 548.494C614.533 544.144 613.012 540.607 611.99 538.15C611.484 536.963 611.083 536.022 610.788 535.332C610.657 535.039 610.55 534.801 610.462 534.604C610.386 534.441 610.342 534.36 610.332 534.363Z" fill="#0F2F65"/>
<path d="M617.379 612.602H684.481V625.527H677.586L671.779 662.387H630.302L624.329 625.527H617.379V612.602Z" fill="#F36339"/>
<path d="M617.377 625.274C617.377 625.102 632.291 624.963 650.684 624.963C669.084 624.963 683.994 625.103 683.994 625.274C683.994 625.446 669.084 625.586 650.684 625.586C632.291 625.586 617.377 625.446 617.377 625.274Z" fill="#0F2F65"/>
<path d="M529.893 420.726H351.258C347.635 420.726 344.697 417.789 344.697 414.166V249.817C344.697 246.194 347.634 243.256 351.258 243.256H529.893C533.516 243.256 536.453 246.193 536.453 249.817V414.165C536.454 417.788 533.516 420.726 529.893 420.726Z" fill="white"/>
<path d="M529.894 420.726C529.894 420.726 530.053 420.709 530.366 420.689C530.678 420.668 531.145 420.603 531.739 420.431C532.326 420.247 533.046 419.945 533.778 419.395C534.504 418.848 535.258 418.055 535.765 416.961C536.332 415.88 536.447 414.514 536.39 413.021C536.386 411.526 536.382 409.891 536.378 408.121C536.371 404.579 536.363 400.493 536.354 395.894C536.334 377.488 536.306 350.867 536.271 317.973C536.261 301.523 536.251 283.506 536.239 264.164C536.23 259.333 536.221 254.419 536.212 249.427C536.096 247.005 534.425 244.725 532.107 243.889C530.96 243.411 529.703 243.488 528.416 243.485C527.138 243.486 525.854 243.486 524.567 243.487C514.264 243.49 503.66 243.494 492.786 243.498C449.289 243.504 401.47 243.511 351.277 243.519C349.766 243.521 348.273 244.073 347.138 245.062C345.994 246.039 345.229 247.441 345.03 248.926C344.927 249.656 344.968 250.444 344.959 251.223V253.557C344.959 255.112 344.959 256.664 344.959 258.213C344.959 264.411 344.958 270.568 344.958 276.681C344.957 288.906 344.955 300.951 344.954 312.787C344.949 336.459 344.944 359.292 344.939 381.043C344.935 391.919 344.932 402.524 344.928 412.828C344.933 413.468 344.911 414.127 344.956 414.736C345.024 415.35 345.149 415.961 345.388 416.532C345.849 417.678 346.652 418.673 347.657 419.374C348.666 420.07 349.87 420.467 351.088 420.494C352.345 420.497 353.598 420.501 354.845 420.504C359.843 420.506 364.762 420.509 369.598 420.511C388.941 420.522 406.959 420.533 423.409 420.543C456.303 420.578 482.922 420.606 501.326 420.626C510.52 420.647 517.66 420.664 522.51 420.675C524.927 420.686 526.771 420.695 528.019 420.701C529.258 420.708 529.894 420.726 529.894 420.726C529.894 420.726 529.258 420.744 528.017 420.753C526.769 420.759 524.925 420.767 522.508 420.779C517.659 420.79 510.518 420.807 501.324 420.828C482.92 420.848 456.301 420.876 423.407 420.911C406.957 420.921 388.939 420.931 369.596 420.943C364.76 420.945 359.841 420.948 354.843 420.95C353.592 420.948 352.335 420.945 351.074 420.943C349.771 420.915 348.478 420.491 347.397 419.746C346.319 418.996 345.458 417.931 344.963 416.703C344.708 416.091 344.571 415.436 344.499 414.777C344.45 414.104 344.474 413.477 344.468 412.829C344.464 402.525 344.461 391.92 344.457 381.044C344.452 359.293 344.447 336.459 344.442 312.788C344.441 300.952 344.439 288.906 344.438 276.682C344.438 270.57 344.437 264.412 344.437 258.214C344.437 256.664 344.437 255.112 344.437 253.558V251.224C344.447 250.449 344.401 249.67 344.513 248.854C344.729 247.246 345.558 245.727 346.795 244.67C348.022 243.6 349.644 243 351.275 243C401.468 243.007 449.288 243.014 492.784 243.02C503.658 243.024 514.262 243.027 524.565 243.031C525.853 243.031 527.136 243.032 528.414 243.032C529.665 243.036 531.03 242.954 532.263 243.468C534.746 244.367 536.532 246.808 536.655 249.402C536.66 254.404 536.664 259.326 536.669 264.166C536.657 283.508 536.647 301.525 536.637 317.975C536.602 350.869 536.574 377.49 536.554 395.896C536.545 400.495 536.537 404.581 536.53 408.123C536.525 409.893 536.521 411.528 536.518 413.023C536.567 414.504 536.441 415.922 535.857 417.009C535.334 418.117 534.563 418.915 533.823 419.461C533.077 420.011 532.346 420.307 531.751 420.485C531.15 420.65 530.679 420.706 530.365 420.718C530.053 420.727 529.894 420.726 529.894 420.726Z" fill="#263238"/>
<path d="M359.169 255.555C359.169 257.386 357.685 258.87 355.854 258.87C354.023 258.87 352.539 257.386 352.539 255.555C352.539 253.724 354.023 252.24 355.854 252.24C357.685 252.24 359.169 253.724 359.169 255.555Z" fill="#0F2F65"/>
<path d="M365.538 258.87C367.368 258.87 368.853 257.386 368.853 255.555C368.853 253.724 367.368 252.24 365.538 252.24C363.707 252.24 362.223 253.724 362.223 255.555C362.223 257.386 363.707 258.87 365.538 258.87Z" fill="#0F2F65"/>
<path d="M375.219 258.87C377.05 258.87 378.534 257.386 378.534 255.555C378.534 253.724 377.05 252.24 375.219 252.24C373.388 252.24 371.904 253.724 371.904 255.555C371.904 257.386 373.388 258.87 375.219 258.87Z" fill="#0F2F65"/>
<path d="M536.454 264.959C536.454 265.103 493.524 265.219 440.58 265.219C387.618 265.219 344.697 265.102 344.697 264.959C344.697 264.816 387.617 264.699 440.58 264.699C493.524 264.699 536.454 264.816 536.454 264.959Z" fill="#263238"/>
<path d="M467.663 331.814C467.663 331.814 467.739 331.708 467.892 331.506C467.931 331.455 467.974 331.399 468.021 331.336C468.065 331.271 468.104 331.193 468.151 331.112C468.244 330.949 468.36 330.763 468.443 330.529C468.488 330.414 468.543 330.295 468.589 330.164C468.626 330.031 468.664 329.891 468.705 329.743C468.752 329.597 468.777 329.44 468.802 329.275C468.823 329.11 468.868 328.94 468.874 328.759C468.952 328.039 468.904 327.199 468.76 326.271C468.473 324.41 467.684 322.219 466.476 319.838C465.27 317.451 463.61 314.884 461.57 312.208C459.529 309.531 457.075 306.767 454.255 303.991C451.431 301.218 448.234 298.433 444.651 295.793C442.858 294.475 440.967 293.197 438.974 291.994C436.983 290.787 434.883 289.662 432.668 288.687C430.453 287.724 428.116 286.885 425.651 286.487C424.423 286.298 423.156 286.206 421.909 286.395C421.287 286.491 420.677 286.66 420.101 286.918C419.535 287.194 419.014 287.562 418.584 288.027C418.171 288.507 417.862 289.066 417.651 289.659C417.46 290.26 417.359 290.886 417.335 291.515C417.288 292.775 417.523 294.024 417.851 295.223C418.526 297.627 419.626 299.854 420.834 301.946C422.055 304.036 423.412 305.995 424.837 307.836C426.26 309.68 427.745 311.414 429.259 313.045C432.29 316.305 435.421 319.165 438.497 321.655C441.576 324.142 444.602 326.265 447.494 327.988C450.385 329.71 453.124 331.067 455.632 331.994C458.135 332.923 460.402 333.457 462.283 333.531C463.221 333.568 464.061 333.52 464.767 333.361C464.946 333.335 465.11 333.271 465.271 333.231C465.432 333.188 465.586 333.145 465.725 333.081C465.866 333.024 466.001 332.97 466.129 332.918C466.253 332.857 466.366 332.79 466.475 332.732C466.698 332.623 466.869 332.487 467.021 332.376C467.096 332.32 467.169 332.272 467.229 332.221C467.286 332.167 467.337 332.117 467.383 332.073C467.566 331.902 467.663 331.814 467.663 331.814C467.663 331.814 467.574 331.908 467.393 332.088C467.348 332.133 467.297 332.183 467.241 332.239C467.182 332.291 467.109 332.34 467.035 332.397C466.884 332.51 466.713 332.649 466.49 332.761C466.381 332.821 466.268 332.889 466.144 332.951C466.015 333.004 465.88 333.06 465.738 333.118C465.598 333.183 465.444 333.227 465.282 333.272C465.12 333.313 464.955 333.379 464.775 333.406C464.065 333.571 463.221 333.624 462.279 333.591C460.389 333.526 458.114 332.998 455.602 332.074C453.085 331.153 450.338 329.8 447.439 328.081C444.539 326.361 441.506 324.24 438.419 321.754C435.335 319.265 432.196 316.405 429.158 313.142C427.641 311.509 426.152 309.773 424.724 307.926C423.294 306.081 421.933 304.118 420.707 302.022C419.493 299.924 418.388 297.689 417.707 295.265C417.377 294.056 417.138 292.794 417.186 291.512C417.21 290.872 417.313 290.232 417.509 289.615C417.725 289.004 418.044 288.428 418.471 287.931C418.916 287.45 419.454 287.07 420.036 286.786C420.627 286.52 421.251 286.348 421.884 286.25C423.152 286.058 424.432 286.152 425.671 286.343C428.155 286.744 430.501 287.588 432.723 288.555C434.944 289.534 437.049 290.663 439.044 291.873C441.041 293.081 442.935 294.362 444.729 295.684C448.316 298.331 451.514 301.124 454.338 303.904C457.159 306.688 459.612 309.46 461.651 312.145C463.689 314.829 465.346 317.405 466.548 319.8C467.752 322.191 468.535 324.391 468.815 326.262C468.955 327.194 468.999 328.039 468.916 328.763C468.91 328.945 468.863 329.116 468.841 329.282C468.815 329.448 468.788 329.606 468.74 329.753C468.698 329.901 468.658 330.041 468.62 330.175C468.573 330.305 468.517 330.425 468.47 330.54C468.384 330.775 468.266 330.96 468.17 331.123C468.121 331.204 468.081 331.281 468.036 331.346C467.987 331.408 467.943 331.464 467.903 331.514C467.747 331.714 467.663 331.814 467.663 331.814Z" fill="#1A86FE"/>
<path d="M476.74 309.9C476.74 309.9 476.726 309.77 476.706 309.517C476.701 309.454 476.696 309.383 476.689 309.304C476.678 309.226 476.656 309.142 476.637 309.05C476.597 308.866 476.561 308.651 476.466 308.421C476.423 308.305 476.384 308.18 476.332 308.052C476.271 307.928 476.206 307.798 476.139 307.661C476.077 307.521 475.991 307.387 475.9 307.247C475.806 307.11 475.727 306.953 475.61 306.814C475.189 306.225 474.594 305.63 473.869 305.034C472.416 303.837 470.369 302.727 467.882 301.754C465.393 300.776 462.446 299.965 459.142 299.326C455.837 298.687 452.166 298.257 448.213 298.063C444.26 297.874 440.02 297.923 435.589 298.339C433.374 298.549 431.112 298.854 428.823 299.283C426.534 299.708 424.218 300.267 421.916 301.013C419.622 301.769 417.32 302.698 415.216 304.042C414.173 304.718 413.167 305.494 412.363 306.464C411.963 306.949 411.62 307.482 411.362 308.058C411.124 308.641 410.98 309.262 410.969 309.896C410.98 310.53 411.122 311.152 411.36 311.735C411.618 312.311 411.959 312.845 412.36 313.33C413.163 314.302 414.17 315.077 415.213 315.754C417.317 317.099 419.62 318.029 421.914 318.785C424.216 319.532 426.533 320.09 428.822 320.516C431.111 320.945 433.374 321.25 435.589 321.46C440.021 321.875 444.261 321.925 448.214 321.735C452.167 321.541 455.839 321.111 459.144 320.472C462.447 319.833 465.395 319.022 467.883 318.044C470.369 317.071 472.417 315.961 473.869 314.764C474.594 314.168 475.188 313.572 475.609 312.984C475.726 312.845 475.805 312.689 475.899 312.551C475.99 312.411 476.077 312.277 476.138 312.137C476.206 312 476.27 311.87 476.331 311.746C476.383 311.618 476.422 311.493 476.465 311.377C476.559 311.147 476.596 310.932 476.636 310.748C476.654 310.656 476.677 310.572 476.688 310.494C476.694 310.416 476.7 310.345 476.705 310.281C476.726 310.03 476.74 309.9 476.74 309.9C476.74 309.9 476.736 310.03 476.721 310.284C476.717 310.348 476.713 310.419 476.708 310.498C476.698 310.576 476.677 310.661 476.66 310.754C476.623 310.939 476.588 311.156 476.496 311.388C476.454 311.505 476.416 311.631 476.365 311.76C476.304 311.885 476.241 312.017 476.174 312.155C476.113 312.296 476.027 312.432 475.936 312.573C475.842 312.712 475.763 312.87 475.647 313.01C475.227 313.605 474.632 314.207 473.907 314.809C472.453 316.018 470.404 317.139 467.914 318.122C465.423 319.11 462.471 319.929 459.164 320.575C455.855 321.222 452.179 321.658 448.221 321.858C444.263 322.053 440.017 322.008 435.577 321.596C433.358 321.387 431.091 321.083 428.797 320.655C426.502 320.23 424.18 319.671 421.87 318.923C419.568 318.165 417.255 317.233 415.134 315.878C414.083 315.195 413.065 314.413 412.247 313.425C411.839 312.931 411.49 312.385 411.225 311.794C410.98 311.194 410.833 310.552 410.822 309.897C410.833 309.242 410.982 308.6 411.227 308.001C411.491 307.41 411.842 306.865 412.25 306.371C413.069 305.384 414.086 304.601 415.138 303.92C417.259 302.566 419.571 301.634 421.873 300.877C424.183 300.129 426.504 299.57 428.799 299.146C431.093 298.718 433.359 298.414 435.578 298.205C440.017 297.793 444.263 297.748 448.221 297.943C452.179 298.143 455.855 298.579 459.164 299.225C462.471 299.871 465.423 300.69 467.914 301.678C470.404 302.661 472.453 303.781 473.907 304.991C474.632 305.593 475.227 306.195 475.647 306.79C475.763 306.93 475.842 307.088 475.936 307.227C476.027 307.368 476.113 307.504 476.174 307.646C476.241 307.784 476.305 307.916 476.365 308.041C476.416 308.17 476.455 308.296 476.496 308.413C476.588 308.645 476.623 308.862 476.66 309.047C476.677 309.14 476.699 309.224 476.708 309.303C476.713 309.382 476.717 309.453 476.721 309.517C476.736 309.77 476.74 309.9 476.74 309.9Z" fill="#1A86FE"/>
<path d="M464.711 282.624C464.711 282.624 464.6 282.555 464.388 282.416C464.335 282.381 464.275 282.342 464.21 282.299C464.142 282.26 464.062 282.226 463.978 282.185C463.809 282.104 463.616 282.001 463.376 281.934C463.258 281.897 463.135 281.851 463.002 281.814C462.867 281.787 462.724 281.758 462.574 281.727C462.426 281.69 462.266 281.676 462.1 281.663C461.934 281.653 461.761 281.62 461.58 281.627C460.856 281.599 460.021 281.704 459.106 281.912C457.27 282.327 455.138 283.265 452.845 284.634C450.547 286.001 448.1 287.835 445.572 290.054C443.042 292.274 440.453 294.913 437.878 297.918C435.306 300.926 432.748 304.307 430.361 308.064C429.17 309.943 428.025 311.918 426.962 313.99C425.895 316.06 424.918 318.232 424.098 320.509C423.29 322.785 422.614 325.174 422.387 327.66C422.283 328.899 422.279 330.169 422.553 331.399C422.691 332.012 422.902 332.61 423.2 333.166C423.514 333.712 423.918 334.206 424.411 334.603C424.919 334.982 425.497 335.251 426.104 335.421C426.717 335.57 427.348 335.628 427.977 335.608C429.237 335.568 430.467 335.248 431.641 334.838C433.993 333.999 436.139 332.748 438.142 331.399C440.143 330.037 442.003 328.549 443.742 327C445.484 325.453 447.111 323.852 448.634 322.23C451.678 318.982 454.315 315.661 456.587 312.42C458.856 309.177 460.765 306.012 462.285 303.008C463.804 300.006 464.969 297.179 465.721 294.613C466.475 292.052 466.852 289.754 466.796 287.872C466.769 286.934 466.663 286.099 466.455 285.406C466.417 285.229 466.342 285.07 466.291 284.912C466.237 284.754 466.183 284.604 466.111 284.469C466.044 284.332 465.981 284.201 465.92 284.077C465.851 283.958 465.776 283.85 465.711 283.745C465.587 283.53 465.439 283.369 465.318 283.225C465.257 283.154 465.204 283.085 465.149 283.029C465.091 282.976 465.038 282.928 464.991 282.886C464.805 282.714 464.711 282.624 464.711 282.624C464.711 282.624 464.811 282.707 465.003 282.874C465.051 282.916 465.105 282.963 465.164 283.015C465.22 283.071 465.274 283.139 465.336 283.21C465.459 283.353 465.61 283.513 465.737 283.728C465.804 283.833 465.88 283.94 465.951 284.06C466.013 284.185 466.078 284.316 466.146 284.453C466.22 284.588 466.275 284.739 466.331 284.897C466.384 285.056 466.46 285.215 466.5 285.393C466.713 286.09 466.824 286.928 466.856 287.87C466.921 289.76 466.551 292.066 465.803 294.636C465.058 297.21 463.897 300.044 462.381 303.055C460.865 306.066 458.958 309.239 456.69 312.49C454.419 315.738 451.782 319.066 448.736 322.322C447.211 323.948 445.583 325.553 443.838 327.104C442.096 328.658 440.232 330.151 438.225 331.518C436.215 332.873 434.062 334.13 431.691 334.976C430.507 335.389 429.265 335.714 427.983 335.755C427.343 335.775 426.697 335.716 426.068 335.563C425.444 335.389 424.847 335.112 424.322 334.719C423.811 334.309 423.395 333.798 423.072 333.237C422.766 332.666 422.551 332.055 422.41 331.43C422.131 330.178 422.137 328.895 422.242 327.646C422.471 325.14 423.151 322.742 423.963 320.459C424.787 318.175 425.768 315.998 426.838 313.924C427.905 311.848 429.054 309.871 430.248 307.99C432.642 304.229 435.208 300.846 437.787 297.837C440.37 294.831 442.967 292.193 445.505 289.974C448.042 287.756 450.498 285.925 452.805 284.562C455.107 283.196 457.249 282.263 459.095 281.855C460.015 281.651 460.855 281.549 461.583 281.582C461.765 281.576 461.938 281.61 462.106 281.621C462.273 281.636 462.433 281.651 462.582 281.689C462.732 281.721 462.875 281.751 463.011 281.78C463.144 281.818 463.268 281.866 463.386 281.904C463.626 281.973 463.819 282.079 463.988 282.163C464.072 282.206 464.152 282.241 464.22 282.281C464.285 282.326 464.344 282.366 464.397 282.402C464.606 282.547 464.711 282.624 464.711 282.624Z" fill="#1A86FE"/>
<path d="M410.536 323.489C411.014 323.967 411.014 324.741 410.536 325.218C410.059 325.695 409.284 325.695 408.807 325.218C408.33 324.741 408.33 323.966 408.807 323.489C409.285 323.012 410.059 323.012 410.536 323.489Z" fill="#1A86FE"/>
<path d="M479.522 285.6C479.522 286.275 478.975 286.823 478.299 286.823C477.624 286.823 477.076 286.276 477.076 285.6C477.076 284.925 477.623 284.377 478.299 284.377C478.974 284.377 479.522 284.925 479.522 285.6Z" fill="#1A86FE"/>
<path d="M418.259 327.51C418.259 327.682 418.12 327.821 417.948 327.821C417.776 327.821 417.637 327.682 417.637 327.51C417.637 327.338 417.776 327.199 417.948 327.199C418.12 327.199 418.259 327.338 418.259 327.51Z" fill="#1A86FE"/>
<path d="M424.89 293.247C424.89 293.419 424.751 293.558 424.579 293.558C424.407 293.558 424.268 293.419 424.268 293.247C424.268 293.075 424.407 292.936 424.579 292.936C424.751 292.936 424.89 293.075 424.89 293.247Z" fill="#1A86FE"/>
<path d="M473.382 309.901C473.382 310.073 473.243 310.212 473.071 310.212C472.899 310.212 472.76 310.073 472.76 309.901C472.76 309.729 472.899 309.59 473.071 309.59C473.243 309.591 473.382 309.73 473.382 309.901Z" fill="#1A86FE"/>
<path d="M477.698 295.415C477.698 295.587 477.559 295.726 477.387 295.726C477.215 295.726 477.076 295.587 477.076 295.415C477.076 295.243 477.215 295.104 477.387 295.104C477.559 295.104 477.698 295.243 477.698 295.415Z" fill="#1A86FE"/>
<path d="M456.757 316.733H452.914V295.818C452.914 290.895 448.909 286.89 443.986 286.89C439.063 286.89 435.058 290.895 435.058 295.818V316.733H431.215V295.818C431.215 288.776 436.944 283.047 443.985 283.047C451.026 283.047 456.756 288.776 456.756 295.818V316.733H456.757Z" fill="#1A86FE"/>
<g opacity="0.3">
<path d="M456.757 316.733H452.914V295.818C452.914 290.895 448.909 286.89 443.986 286.89C439.063 286.89 435.058 290.895 435.058 295.818V316.733H431.215V295.818C431.215 288.776 436.944 283.047 443.985 283.047C451.026 283.047 456.756 288.776 456.756 295.818V316.733H456.757Z" fill="black"/>
</g>
<path d="M458.943 329.513H429.027C427.783 329.513 426.775 328.505 426.775 327.261V309.682C426.775 308.438 427.783 307.43 429.027 307.43H458.943C460.187 307.43 461.195 308.438 461.195 309.682V327.261C461.195 328.504 460.187 329.513 458.943 329.513Z" fill="#1A86FE"/>
<g opacity="0.3">
<path d="M446.863 315.592C446.863 314.003 445.575 312.715 443.986 312.715C442.397 312.715 441.109 314.003 441.109 315.592C441.109 316.907 441.996 318.004 443.201 318.347V322.648H444.771V318.347C445.976 318.004 446.863 316.907 446.863 315.592Z" fill="black"/>
</g>
<path d="M428.612 327.419C428.533 327.419 428.469 323.736 428.469 319.194C428.469 314.651 428.533 310.969 428.612 310.969C428.691 310.969 428.755 314.651 428.755 319.194C428.754 323.736 428.69 327.419 428.612 327.419Z" fill="#FAFAFA"/>
<path d="M441.732 319.282C441.723 319.296 441.597 319.237 441.395 319.091C441.192 318.946 440.922 318.697 440.653 318.335C440.116 317.631 439.626 316.353 439.944 314.973C440.278 313.596 441.29 312.674 442.085 312.285C442.487 312.082 442.84 311.981 443.087 311.942C443.334 311.902 443.472 311.906 443.474 311.922C443.486 311.976 442.928 312.028 442.182 312.462C441.447 312.877 440.53 313.766 440.222 315.038C439.927 316.312 440.348 317.519 440.819 318.219C441.292 318.943 441.767 319.239 441.732 319.282Z" fill="#FAFAFA"/>
<path d="M495.09 368.219H389.11C383.964 368.219 379.793 364.048 379.793 358.902V357.755C379.793 352.609 383.964 348.438 389.11 348.438H495.09C500.236 348.438 504.407 352.609 504.407 357.755V358.902C504.407 364.047 500.236 368.219 495.09 368.219Z" fill="#F5F5F5"/>
<path d="M496.006 395.343H390.026C384.88 395.343 380.709 391.173 380.709 386.027V384.88C380.709 379.734 384.88 375.562 390.026 375.562H496.006C501.152 375.562 505.323 379.734 505.323 384.88V386.027C505.323 391.173 501.151 395.343 496.006 395.343Z" fill="#F5F5F5"/>
<path d="M399.488 358.174V355.309H400.673V358.13C400.673 359.102 401.097 359.504 401.813 359.504C402.537 359.504 402.954 359.102 402.954 358.13V355.309H404.123V358.174C404.123 359.679 403.261 360.513 401.807 360.513C400.351 360.513 399.488 359.68 399.488 358.174Z" fill="#0F2F65"/>
<path d="M404.832 360.06L405.212 359.241C405.563 359.468 406.096 359.621 406.578 359.621C407.104 359.621 407.302 359.482 407.302 359.263C407.302 358.62 404.927 359.278 404.927 357.706C404.927 356.96 405.6 356.434 406.747 356.434C407.287 356.434 407.887 356.558 408.26 356.778L407.88 357.589C407.492 357.37 407.105 357.297 406.747 357.297C406.235 357.297 406.016 357.458 406.016 357.663C406.016 358.335 408.392 357.685 408.392 359.234C408.392 359.965 407.712 360.484 406.536 360.484C405.869 360.484 405.197 360.301 404.832 360.06Z" fill="#0F2F65"/>
<path d="M412.923 358.78H409.948C410.057 359.27 410.473 359.569 411.073 359.569C411.49 359.569 411.79 359.445 412.06 359.189L412.666 359.847C412.301 360.264 411.752 360.483 411.043 360.483C409.684 360.483 408.799 359.628 408.799 358.458C408.799 357.281 409.698 356.434 410.898 356.434C412.052 356.434 412.944 357.209 412.944 358.473C412.945 358.561 412.93 358.685 412.923 358.78ZM409.934 358.115H411.871C411.791 357.618 411.418 357.296 410.906 357.296C410.387 357.296 410.014 357.61 409.934 358.115Z" fill="#0F2F65"/>
<path d="M416.147 356.434V357.487C416.051 357.48 415.979 357.472 415.891 357.472C415.262 357.472 414.845 357.815 414.845 358.568V360.424H413.705V356.492H414.794V357.011C415.071 356.631 415.539 356.434 416.147 356.434Z" fill="#0F2F65"/>
<path d="M420.846 358.174V360.425H419.706V358.349C419.706 357.713 419.413 357.421 418.909 357.421C418.361 357.421 417.966 357.757 417.966 358.481V360.425H416.826V356.493H417.915V356.953C418.222 356.617 418.683 356.434 419.216 356.434C420.145 356.435 420.846 356.976 420.846 358.174Z" fill="#0F2F65"/>
<path d="M425.357 358.181V360.425H424.291V359.935C424.079 360.293 423.67 360.483 423.092 360.483C422.171 360.483 421.623 359.971 421.623 359.292C421.623 358.598 422.112 358.115 423.311 358.115H424.217C424.217 357.625 423.924 357.34 423.311 357.34C422.894 357.34 422.463 357.479 422.178 357.706L421.769 356.909C422.2 356.602 422.835 356.434 423.464 356.434C424.662 356.434 425.357 356.989 425.357 358.181ZM424.217 359.182V358.78H423.435C422.902 358.78 422.734 358.977 422.734 359.24C422.734 359.525 422.975 359.715 423.377 359.715C423.756 359.715 424.085 359.54 424.217 359.182Z" fill="#0F2F65"/>
<path d="M433.031 358.174V360.425H431.891V358.349C431.891 357.713 431.606 357.421 431.145 357.421C430.633 357.421 430.276 357.75 430.276 358.451V360.425H429.135V358.349C429.135 357.713 428.864 357.421 428.39 357.421C427.885 357.421 427.527 357.75 427.527 358.451V360.425H426.387V356.493H427.476V356.946C427.768 356.61 428.206 356.434 428.711 356.434C429.259 356.434 429.727 356.646 430.005 357.077C430.319 356.675 430.83 356.434 431.423 356.434C432.359 356.435 433.031 356.976 433.031 358.174Z" fill="#0F2F65"/>
<path d="M437.928 358.78H434.953C435.062 359.27 435.478 359.569 436.078 359.569C436.495 359.569 436.795 359.445 437.065 359.189L437.671 359.847C437.306 360.264 436.757 360.483 436.048 360.483C434.689 360.483 433.805 359.628 433.805 358.458C433.805 357.281 434.703 356.434 435.903 356.434C437.057 356.434 437.949 357.209 437.949 358.473C437.949 358.561 437.935 358.685 437.928 358.78ZM434.939 358.115H436.875C436.795 357.618 436.422 357.296 435.91 357.296C435.392 357.296 435.019 357.61 434.939 358.115Z" fill="#0F2F65"/>
<path d="M445.464 358.421C445.464 359.729 444.865 360.475 443.966 360.475C443.469 360.475 443.118 360.256 442.965 359.839C442.709 360.249 442.292 360.475 441.715 360.475C440.772 360.475 440.026 359.729 440.026 358.626C440.026 357.529 440.764 356.784 441.715 356.784C442.197 356.784 442.577 356.952 442.841 357.266V356.834H443.834V359.202C443.834 359.553 443.988 359.67 444.186 359.67C444.522 359.67 444.727 359.283 444.727 358.435C444.727 356.952 443.63 355.928 442.007 355.928C440.377 355.928 439.288 357.039 439.288 358.567C439.288 360.124 440.355 361.228 441.978 361.228C442.439 361.228 442.957 361.133 443.418 360.906L443.651 361.578C443.206 361.805 442.555 361.929 441.977 361.929C439.865 361.929 438.469 360.496 438.469 358.567C438.469 356.659 439.879 355.234 442.006 355.234C444.061 355.234 445.464 356.586 445.464 358.421ZM442.856 358.626C442.856 357.99 442.468 357.632 441.942 357.632C441.409 357.632 441.036 358.005 441.036 358.626C441.036 359.254 441.409 359.634 441.942 359.634C442.468 359.634 442.856 359.269 442.856 358.626Z" fill="#0F2F65"/>
<path d="M452.917 358.174V360.425H451.777V358.349C451.777 357.713 451.492 357.421 451.031 357.421C450.519 357.421 450.162 357.75 450.162 358.451V360.425H449.021V358.349C449.021 357.713 448.75 357.421 448.276 357.421C447.771 357.421 447.413 357.75 447.413 358.451V360.425H446.273V356.493H447.362V356.946C447.654 356.61 448.092 356.434 448.597 356.434C449.145 356.434 449.613 356.646 449.891 357.077C450.205 356.675 450.716 356.434 451.309 356.434C452.245 356.435 452.917 356.976 452.917 358.174Z" fill="#0F2F65"/>
<path d="M457.421 358.181V360.425H456.355V359.935C456.143 360.293 455.734 360.483 455.156 360.483C454.235 360.483 453.687 359.971 453.687 359.292C453.687 358.598 454.176 358.115 455.375 358.115H456.281C456.281 357.625 455.989 357.34 455.375 357.34C454.958 357.34 454.527 357.479 454.242 357.706L453.833 356.909C454.264 356.602 454.899 356.434 455.528 356.434C456.727 356.434 457.421 356.989 457.421 358.181ZM456.281 359.182V358.78H455.499C454.966 358.78 454.798 358.977 454.798 359.24C454.798 359.525 455.039 359.715 455.441 359.715C455.82 359.715 456.149 359.54 456.281 359.182Z" fill="#0F2F65"/>
<path d="M458.314 355.308C458.314 354.95 458.599 354.672 459.023 354.672C459.447 354.672 459.732 354.935 459.732 355.286C459.732 355.666 459.447 355.944 459.023 355.944C458.599 355.944 458.314 355.666 458.314 355.308ZM458.452 356.492H459.592V360.424H458.452V356.492Z" fill="#0F2F65"/>
<path d="M460.652 355H461.792V360.423H460.652V355Z" fill="#0F2F65"/>
<path d="M462.574 359.766C462.574 359.342 462.888 359.064 463.283 359.064C463.679 359.064 463.992 359.342 463.992 359.766C463.992 360.182 463.678 360.482 463.283 360.482C462.889 360.482 462.574 360.182 462.574 359.766Z" fill="#0F2F65"/>
<path d="M464.424 358.458C464.424 357.274 465.338 356.434 466.617 356.434C467.443 356.434 468.094 356.792 468.379 357.435L467.494 357.91C467.282 357.537 466.968 357.369 466.609 357.369C466.032 357.369 465.579 357.771 465.579 358.458C465.579 359.145 466.032 359.547 466.609 359.547C466.967 359.547 467.282 359.386 467.494 359.006L468.379 359.488C468.094 360.116 467.443 360.482 466.617 360.482C465.338 360.483 464.424 359.642 464.424 358.458Z" fill="#0F2F65"/>
<path d="M468.691 358.458C468.691 357.274 469.604 356.434 470.854 356.434C472.104 356.434 473.01 357.274 473.01 358.458C473.01 359.642 472.104 360.483 470.854 360.483C469.604 360.483 468.691 359.642 468.691 358.458ZM471.856 358.458C471.856 357.778 471.425 357.369 470.855 357.369C470.285 357.369 469.846 357.778 469.846 358.458C469.846 359.138 470.285 359.547 470.855 359.547C471.425 359.547 471.856 359.138 471.856 358.458Z" fill="#0F2F65"/>
<path d="M480.415 358.174V360.425H479.275V358.349C479.275 357.713 478.99 357.421 478.529 357.421C478.017 357.421 477.66 357.75 477.66 358.451V360.425H476.52V358.349C476.52 357.713 476.249 357.421 475.775 357.421C475.27 357.421 474.911 357.75 474.911 358.451V360.425H473.771V356.493H474.861V356.946C475.153 356.61 475.59 356.434 476.095 356.434C476.643 356.434 477.111 356.646 477.389 357.077C477.702 356.675 478.214 356.434 478.807 356.434C479.743 356.435 480.415 356.976 480.415 358.174Z" fill="#0F2F65"/>
<path d="M414.761 385.558L416.612 386.56L415.78 387.953L413.912 386.849L413.946 388.904H412.349L412.367 386.832L410.499 387.953L409.684 386.56L411.535 385.558L409.684 384.539L410.499 383.146L412.367 384.267L412.349 382.195H413.946L413.912 384.267L415.78 383.146L416.612 384.539L414.761 385.558Z" fill="#0F2F65"/>
<path d="M422.468 385.558L424.319 386.56L423.487 387.953L421.619 386.849L421.653 388.904H420.056L420.074 386.832L418.206 387.953L417.391 386.56L419.243 385.558L417.391 384.539L418.206 383.146L420.074 384.267L420.056 382.195H421.653L421.619 384.267L423.487 383.146L424.319 384.539L422.468 385.558Z" fill="#0F2F65"/>
<path d="M430.173 385.558L432.024 386.56L431.192 387.953L429.324 386.849L429.358 388.904H427.761L427.779 386.832L425.911 387.953L425.096 386.56L426.948 385.558L425.096 384.539L425.911 383.146L427.779 384.267L427.761 382.195H429.358L429.324 384.267L431.192 383.146L432.024 384.539L430.173 385.558Z" fill="#0F2F65"/>
<path d="M437.88 385.558L439.731 386.56L438.899 387.953L437.031 386.849L437.065 388.904H435.468L435.486 386.832L433.618 387.953L432.803 386.56L434.655 385.558L432.803 384.539L433.618 383.146L435.486 384.267L435.468 382.195H437.065L437.031 384.267L438.899 383.146L439.731 384.539L437.88 385.558Z" fill="#0F2F65"/>
<path d="M445.587 385.558L447.438 386.56L446.606 387.953L444.738 386.849L444.772 388.904H443.175L443.193 386.832L441.325 387.953L440.51 386.56L442.362 385.558L440.51 384.539L441.325 383.146L443.193 384.267L443.175 382.195H444.772L444.738 384.267L446.606 383.146L447.438 384.539L445.587 385.558Z" fill="#0F2F65"/>
<path d="M453.295 385.558L455.146 386.56L454.314 387.953L452.446 386.849L452.48 388.904H450.883L450.9 386.832L449.032 387.953L448.217 386.56L450.069 385.558L448.217 384.539L449.032 383.146L450.9 384.267L450.883 382.195H452.48L452.446 384.267L454.314 383.146L455.146 384.539L453.295 385.558Z" fill="#0F2F65"/>
<path d="M461.001 385.558L462.852 386.56L462.02 387.953L460.152 386.849L460.186 388.904H458.589L458.607 386.832L456.739 387.953L455.924 386.56L457.776 385.558L455.924 384.539L456.739 383.146L458.607 384.267L458.589 382.195H460.186L460.152 384.267L462.02 383.146L462.852 384.539L461.001 385.558Z" fill="#0F2F65"/>
<path d="M468.707 385.558L470.557 386.56L469.725 387.953L467.857 386.849L467.891 388.904H466.294L466.312 386.832L464.444 387.953L463.629 386.56L465.481 385.558L463.629 384.539L464.444 383.146L466.312 384.267L466.294 382.195H467.891L467.857 384.267L469.725 383.146L470.557 384.539L468.707 385.558Z" fill="#0F2F65"/>
<path d="M552.982 530.589H403.956C400.434 530.589 397.578 527.733 397.578 524.211V447.071C397.578 443.549 400.433 440.693 403.956 440.693H552.982C556.504 440.693 559.36 443.549 559.36 447.071V524.211C559.36 527.734 556.504 530.589 552.982 530.589Z" fill="white"/>
<path d="M552.982 530.59C552.98 530.562 553.417 530.598 554.24 530.438C555.044 530.261 556.285 529.843 557.451 528.689C558.024 528.113 558.552 527.347 558.896 526.405C559.083 525.939 559.18 525.42 559.253 524.879C559.294 524.336 559.286 523.759 559.283 523.159C559.276 520.759 559.268 517.993 559.259 514.88C559.239 502.412 559.211 484.387 559.176 462.117C559.173 459.332 559.17 456.482 559.167 453.567C559.166 452.11 559.164 450.636 559.163 449.147C559.127 447.656 559.32 446.131 558.71 444.768C558.159 443.403 557.096 442.235 555.753 441.562C555.084 441.224 554.349 441.009 553.596 440.932C552.852 440.876 552.041 440.913 551.259 440.903C548.099 440.905 544.881 440.908 541.607 440.91C528.509 440.917 514.515 440.926 499.789 440.934C470.336 440.94 437.956 440.947 403.968 440.954C402.947 440.959 401.935 441.217 401.038 441.694C400.154 442.192 399.376 442.889 398.829 443.742C398.289 444.595 397.928 445.573 397.864 446.584C397.814 447.594 397.85 448.676 397.839 449.716C397.839 453.913 397.838 458.082 397.838 462.221C397.837 470.499 397.835 478.655 397.834 486.67C397.832 494.684 397.83 502.557 397.827 510.267C397.826 514.122 397.824 517.936 397.823 521.707C397.83 522.644 397.807 523.602 397.837 524.515C397.879 525.416 398.122 526.302 398.541 527.094C399.383 528.682 400.942 529.846 402.677 530.213C403.534 530.415 404.449 530.331 405.371 530.35C406.286 530.35 407.198 530.351 408.107 530.351C409.925 530.352 411.731 530.353 413.525 530.354C417.113 530.356 420.653 530.358 424.141 530.36C431.118 530.365 437.892 530.369 444.441 530.373C457.539 530.385 469.739 530.395 480.878 530.405C503.148 530.44 521.171 530.468 533.638 530.488C539.86 530.509 544.693 530.526 547.982 530.537C549.615 530.548 550.862 530.557 551.712 530.563C552.552 530.573 552.982 530.59 552.982 530.59C552.982 530.59 552.552 530.608 551.711 530.617C550.861 530.623 549.613 530.631 547.981 530.643C544.692 530.654 539.859 530.671 533.637 530.692C521.17 530.712 503.147 530.74 480.877 530.775C469.738 530.785 457.538 530.795 444.44 530.807C437.891 530.811 431.117 530.815 424.14 530.82C420.651 530.822 417.112 530.824 413.524 530.826C411.73 530.827 409.924 530.828 408.106 530.829C407.197 530.829 406.285 530.83 405.37 530.83C404.468 530.811 403.526 530.902 402.577 530.685C400.705 530.29 399.023 529.037 398.113 527.324C397.66 526.469 397.397 525.511 397.351 524.54C397.318 523.58 397.341 522.656 397.334 521.708C397.333 517.937 397.331 514.122 397.33 510.268C397.328 502.558 397.326 494.685 397.324 486.671C397.323 478.657 397.321 470.5 397.32 462.222C397.32 458.083 397.319 453.914 397.319 449.717C397.331 448.659 397.292 447.637 397.345 446.544C397.415 445.449 397.805 444.384 398.392 443.459C398.987 442.533 399.829 441.776 400.789 441.237C401.762 440.719 402.864 440.439 403.968 440.434C437.955 440.441 470.335 440.448 499.789 440.454C514.515 440.462 528.509 440.47 541.607 440.478C544.881 440.48 548.1 440.483 551.259 440.485C552.056 440.497 552.819 440.459 553.637 440.52C554.441 440.603 555.225 440.834 555.938 441.196C557.369 441.916 558.499 443.162 559.083 444.617C559.381 445.343 559.537 446.121 559.55 446.896C559.552 447.65 559.554 448.4 559.557 449.146C559.556 450.635 559.554 452.108 559.553 453.566C559.55 456.481 559.547 459.332 559.544 462.116C559.509 484.386 559.481 502.411 559.461 514.879C559.452 517.992 559.444 520.759 559.437 523.158C559.436 523.757 559.441 524.333 559.394 524.893C559.315 525.446 559.211 525.975 559.017 526.449C558.658 527.407 558.113 528.183 557.524 528.762C556.327 529.923 555.063 530.327 554.25 530.489C553.832 530.554 553.516 530.591 553.302 530.586C553.09 530.594 552.982 530.59 552.982 530.59Z" fill="#263238"/>
<path d="M453.945 472.458V473.581H449.264V467.535H453.832V468.658H450.654V469.971H453.461V471.06H450.654V472.458H453.945Z" fill="#0F2F65"/>
<path d="M460.606 467.535V473.581H459.458L456.443 469.91V473.581H455.061V467.535H456.218L459.224 471.206V467.535H460.606Z" fill="#0F2F65"/>
<path d="M463.292 468.676H461.357V467.535H466.626V468.676H464.691V473.581H463.292V468.676Z" fill="#0F2F65"/>
<path d="M472.06 472.458V473.581H467.379V467.535H471.947V468.658H468.769V469.971H471.576V471.06H468.769V472.458H472.06Z" fill="#0F2F65"/>
<path d="M477.027 473.581L475.861 471.896H475.793H474.575V473.581H473.176V467.535H475.793C477.407 467.535 478.418 468.373 478.418 469.729C478.418 470.635 477.96 471.3 477.175 471.637L478.53 473.58H477.027V473.581ZM475.715 468.675H474.575V470.782H475.715C476.57 470.782 477.002 470.384 477.002 469.728C477.002 469.064 476.57 468.675 475.715 468.675Z" fill="#0F2F65"/>
<path d="M481.59 470.559C481.59 468.737 482.989 467.432 484.872 467.432C485.917 467.432 486.789 467.812 487.359 468.503L486.461 469.332C486.055 468.865 485.545 468.624 484.94 468.624C483.809 468.624 483.005 469.418 483.005 470.559C483.005 471.699 483.809 472.494 484.94 472.494C485.544 472.494 486.054 472.252 486.461 471.777L487.359 472.606C486.789 473.305 485.917 473.685 484.863 473.685C482.989 473.685 481.59 472.381 481.59 470.559Z" fill="#0F2F65"/>
<path d="M487.793 470.559C487.793 468.762 489.192 467.432 491.101 467.432C493.001 467.432 494.409 468.753 494.409 470.559C494.409 472.364 493.002 473.685 491.101 473.685C489.192 473.685 487.793 472.355 487.793 470.559ZM492.992 470.559C492.992 469.41 492.181 468.624 491.1 468.624C490.021 468.624 489.208 469.409 489.208 470.559C489.208 471.707 490.021 472.494 491.1 472.494C492.181 472.494 492.992 471.708 492.992 470.559Z" fill="#0F2F65"/>
<path d="M495.463 467.535H498.209C500.187 467.535 501.543 468.727 501.543 470.558C501.543 472.389 500.188 473.58 498.209 473.58H495.463V467.535ZM498.141 472.432C499.341 472.432 500.127 471.715 500.127 470.558C500.127 469.401 499.341 468.684 498.141 468.684H496.863V472.432H498.141Z" fill="#0F2F65"/>
<path d="M507.281 472.458V473.581H502.6V467.535H507.168V468.658H503.99V469.971H506.797V471.06H503.99V472.458H507.281Z" fill="#0F2F65"/>
<path d="M431.005 514.007H416.321C414.138 514.007 412.369 512.238 412.369 510.055V487.186C412.369 485.003 414.138 483.234 416.321 483.234H431.005C433.188 483.234 434.957 485.004 434.957 487.186V510.055C434.957 512.237 433.187 514.007 431.005 514.007Z" fill="#EBEBEB"/>
<path d="M459.212 514.007H444.528C442.345 514.007 440.576 512.238 440.576 510.055V487.186C440.576 485.003 442.345 483.234 444.528 483.234H459.212C461.395 483.234 463.164 485.004 463.164 487.186V510.055C463.164 512.237 461.395 514.007 459.212 514.007Z" fill="#EBEBEB"/>
<path d="M487.418 514.007H472.735C470.552 514.007 468.783 512.238 468.783 510.055V487.186C468.783 485.003 470.553 483.234 472.735 483.234H487.418C489.601 483.234 491.37 485.004 491.37 487.186V510.055C491.371 512.237 489.601 514.007 487.418 514.007Z" fill="#EBEBEB"/>
<path d="M515.626 514.007H500.942C498.759 514.007 496.99 512.238 496.99 510.055V487.186C496.99 485.003 498.76 483.234 500.942 483.234H515.626C517.809 483.234 519.578 485.004 519.578 487.186V510.055C519.578 512.237 517.809 514.007 515.626 514.007Z" fill="#EBEBEB"/>
<path d="M543.833 514.007H529.149C526.966 514.007 525.197 512.238 525.197 510.055V487.186C525.197 485.003 526.966 483.234 529.149 483.234H543.833C546.016 483.234 547.785 485.004 547.785 487.186V510.055C547.786 512.237 546.016 514.007 543.833 514.007Z" fill="#EBEBEB"/>
<path d="M428.585 500.998C428.585 503.195 426.886 504.62 424.585 504.62C421.427 504.62 419.762 502.354 419.762 498.595C419.762 494.527 421.925 492.432 425.101 492.432C426.13 492.432 427.092 492.604 427.83 493.05L427.469 493.754C426.852 493.359 426.01 493.204 425.101 493.204C422.406 493.204 420.637 494.973 420.637 498.457C420.637 498.817 420.655 499.35 420.741 499.899C421.239 498.32 422.749 497.427 424.569 497.427C426.972 497.427 428.585 498.835 428.585 500.998ZM427.709 501.014C427.709 499.298 426.474 498.182 424.448 498.182C422.473 498.182 421.117 499.435 421.117 501.049C421.117 502.456 422.302 503.863 424.551 503.863C426.422 503.864 427.709 502.749 427.709 501.014Z" fill="#1A86FE"/>
<path d="M456.489 501.203H453.966V504.533H453.108V501.203H446.258V500.567L452.781 492.516H453.759L447.357 500.43H453.125V497.494H453.966V500.43H456.489V501.203Z" fill="#1A86FE"/>
<path d="M485.58 506.239C485.58 506.383 483.236 506.499 480.346 506.499C477.454 506.499 475.111 506.382 475.111 506.239C475.111 506.095 477.454 505.979 480.346 505.979C483.236 505.979 485.58 506.096 485.58 506.239Z" fill="#1A86FE"/>
<path d="M407.849 452.115C409.202 452.115 410.298 451.018 410.298 449.666C410.298 448.313 409.202 447.217 407.849 447.217C406.497 447.217 405.4 448.313 405.4 449.666C405.4 451.018 406.497 452.115 407.849 452.115Z" fill="#0F2F65"/>
<path d="M417.359 449.666C417.359 451.019 416.263 452.115 414.91 452.115C413.557 452.115 412.461 451.018 412.461 449.666C412.461 448.314 413.557 447.217 414.91 447.217C416.263 447.217 417.359 448.313 417.359 449.666Z" fill="#0F2F65"/>
<path d="M421.84 452.115C423.192 452.115 424.289 451.018 424.289 449.666C424.289 448.313 423.192 447.217 421.84 447.217C420.487 447.217 419.391 448.313 419.391 449.666C419.391 451.018 420.487 452.115 421.84 452.115Z" fill="#0F2F65"/>
<path d="M559.603 456.569C559.603 456.713 523.381 456.829 478.709 456.829C434.022 456.829 397.807 456.712 397.807 456.569C397.807 456.425 434.021 456.309 478.709 456.309C523.381 456.308 559.603 456.425 559.603 456.569Z" fill="#263238"/>
<path d="M377.884 330.322H299.988C297.75 330.322 295.936 332.136 295.936 334.374V369.861C295.936 372.099 297.75 373.913 299.988 373.913H332.667L339.608 382.814L345.393 373.913H377.885C380.123 373.913 381.937 372.099 381.937 369.861V334.374C381.936 332.136 380.122 330.322 377.884 330.322Z" fill="white"/>
<path d="M377.884 330.322C377.884 330.322 378.013 330.315 378.269 330.321C378.522 330.347 378.908 330.383 379.38 330.568C379.848 330.746 380.416 331.056 380.921 331.61C381.433 332.148 381.868 332.948 381.988 333.925C382.063 337.791 382.05 343.409 382.082 350.529C382.091 354.088 382.101 358.018 382.111 362.281C382.115 364.413 382.12 366.629 382.124 368.924C382.114 369.49 382.166 370.08 382.045 370.693C381.929 371.294 381.671 371.871 381.304 372.371C380.578 373.382 379.363 374.058 378.074 374.104C368.274 374.118 357.283 374.135 345.392 374.152L345.593 374.043C343.777 376.842 341.815 379.865 339.815 382.948L339.625 383.24L339.411 382.965C337.219 380.157 334.863 377.138 332.466 374.068L332.666 374.166C323.665 374.168 314.246 374.17 304.582 374.172C303.454 374.172 302.329 374.172 301.208 374.172C300.638 374.162 300.11 374.197 299.501 374.143C298.91 374.077 298.334 373.885 297.823 373.585C296.796 372.991 296.039 371.961 295.784 370.809C295.644 370.225 295.682 369.64 295.676 369.103V367.452C295.677 363.058 295.679 358.728 295.68 354.473C295.682 350.218 295.684 346.039 295.686 341.946C295.687 339.9 295.689 337.875 295.69 335.873L295.691 334.376C295.694 333.849 295.791 333.323 295.981 332.835C296.357 331.855 297.101 331.034 298.022 330.561C298.482 330.324 298.983 330.167 299.495 330.114C300.02 330.066 300.487 330.091 300.973 330.085C301.938 330.086 302.897 330.087 303.849 330.088C305.754 330.09 307.633 330.092 309.485 330.094C313.189 330.099 316.785 330.103 320.261 330.107C327.213 330.119 333.69 330.129 339.604 330.139C351.417 330.174 360.982 330.202 367.612 330.222C370.906 330.243 373.468 330.26 375.227 330.271C376.085 330.282 376.744 330.291 377.207 330.297C377.656 330.304 377.884 330.322 377.884 330.322C377.884 330.322 377.655 330.34 377.209 330.349C376.745 330.355 376.087 330.364 375.229 330.375C373.47 330.386 370.908 330.403 367.614 330.424C360.984 330.444 351.419 330.472 339.606 330.507C333.692 330.517 327.215 330.527 320.263 330.539C316.786 330.543 313.19 330.547 309.487 330.552C307.635 330.554 305.756 330.556 303.851 330.558C302.899 330.559 301.94 330.56 300.975 330.561C300.497 330.567 299.994 330.546 299.551 330.589C299.096 330.637 298.652 330.777 298.244 330.988C297.427 331.41 296.767 332.14 296.436 333.01C296.269 333.444 296.183 333.909 296.181 334.378L296.182 335.875C296.183 337.877 296.185 339.902 296.186 341.948C296.188 346.041 296.19 350.22 296.192 354.475C296.193 358.73 296.195 363.06 296.196 367.454V369.105C296.201 369.667 296.169 370.199 296.292 370.697C296.516 371.709 297.183 372.615 298.086 373.137C298.536 373.4 299.041 373.569 299.561 373.627C300.065 373.674 300.659 373.644 301.21 373.653C302.331 373.653 303.456 373.653 304.584 373.653C314.248 373.655 323.667 373.657 332.668 373.659H332.792L332.868 373.757C335.262 376.83 337.615 379.851 339.804 382.661L339.4 382.678C341.405 379.598 343.371 376.578 345.191 373.782L345.262 373.672H345.392C357.276 373.683 368.261 373.693 378.056 373.702C379.224 373.664 380.326 373.056 380.989 372.14C381.324 371.686 381.561 371.164 381.668 370.618C381.781 370.081 381.735 369.502 381.747 368.924C381.752 366.629 381.756 364.413 381.76 362.281C381.771 358.018 381.781 354.089 381.789 350.529C381.808 343.43 381.823 337.808 381.833 333.942C381.729 333.001 381.322 332.22 380.833 331.689C380.352 331.143 379.805 330.828 379.35 330.641C378.423 330.276 377.876 330.363 377.884 330.322Z" fill="#263238"/>
<path d="M324.352 340.337V341.651H323.494V340.328L322.059 337.945H322.97L323.96 339.591L324.95 337.945H325.792L324.352 340.337Z" fill="#263238"/>
<path d="M325.764 339.797C325.764 338.697 326.622 337.881 327.792 337.881C328.957 337.881 329.82 338.691 329.82 339.797C329.82 340.904 328.957 341.714 327.792 341.714C326.622 341.714 325.764 340.899 325.764 339.797ZM328.951 339.797C328.951 339.093 328.454 338.611 327.791 338.611C327.129 338.611 326.631 339.092 326.631 339.797C326.631 340.501 327.129 340.984 327.791 340.984C328.454 340.983 328.951 340.501 328.951 339.797Z" fill="#263238"/>
<path d="M330.438 340.02V337.945H331.296V339.989C331.296 340.693 331.603 340.984 332.122 340.984C332.646 340.984 332.947 340.693 332.947 339.989V337.945H333.794V340.02C333.794 341.111 333.169 341.714 332.115 341.714C331.062 341.714 330.438 341.11 330.438 340.02Z" fill="#263238"/>
<path d="M337.008 341.651L336.293 340.619H336.251H335.504V341.651H334.646V337.945H336.251C337.241 337.945 337.86 338.459 337.86 339.29C337.86 339.846 337.579 340.254 337.098 340.46L337.929 341.651H337.008ZM336.203 338.643H335.504V339.935H336.203C336.727 339.935 336.992 339.692 336.992 339.289C336.992 338.881 336.728 338.643 336.203 338.643Z" fill="#263238"/>
<path d="M339.809 339.797C339.809 338.68 340.667 337.881 341.821 337.881C342.462 337.881 342.996 338.113 343.346 338.537L342.795 339.045C342.546 338.76 342.233 338.611 341.863 338.611C341.17 338.611 340.677 339.098 340.677 339.797C340.677 340.496 341.17 340.984 341.863 340.984C342.234 340.984 342.546 340.836 342.795 340.545L343.346 341.053C342.996 341.483 342.462 341.715 341.816 341.715C340.667 341.714 339.809 340.914 339.809 339.797Z" fill="#263238"/>
<path d="M343.613 339.797C343.613 338.697 344.471 337.881 345.641 337.881C346.806 337.881 347.669 338.691 347.669 339.797C347.669 340.904 346.806 341.714 345.641 341.714C344.471 341.714 343.613 340.899 343.613 339.797ZM346.801 339.797C346.801 339.093 346.303 338.611 345.641 338.611C344.979 338.611 344.481 339.092 344.481 339.797C344.481 340.501 344.979 340.984 345.641 340.984C346.303 340.983 346.801 340.501 346.801 339.797Z" fill="#263238"/>
<path d="M348.32 337.943H350.004C351.217 337.943 352.048 338.673 352.048 339.795C352.048 340.918 351.217 341.649 350.004 341.649H348.32V337.943ZM349.962 340.945C350.698 340.945 351.18 340.506 351.18 339.795C351.18 339.086 350.698 338.647 349.962 338.647H349.178V340.945H349.962Z" fill="#263238"/>
<path d="M355.567 340.962V341.651H352.697V337.945H355.498V338.633H353.55V339.438H355.271V340.105H353.55V340.962H355.567Z" fill="#263238"/>
<path d="M370.285 365.878H307.588C305.63 365.878 304.043 364.291 304.043 362.333V349.088C304.043 347.13 305.63 345.543 307.588 345.543H370.285C372.243 345.543 373.83 347.13 373.83 349.088V362.333C373.83 364.29 372.243 365.878 370.285 365.878Z" fill="#F5F5F5"/>
<path d="M318.229 356.956C318.229 358.757 316.836 359.925 314.951 359.925C312.362 359.925 310.998 358.068 310.998 354.986C310.998 351.652 312.77 349.936 315.373 349.936C316.217 349.936 317.005 350.077 317.61 350.442L317.314 351.019C316.808 350.696 316.118 350.569 315.373 350.569C313.165 350.569 311.715 352.018 311.715 354.874C311.715 355.17 311.729 355.605 311.799 356.056C312.207 354.762 313.445 354.031 314.936 354.031C316.907 354.03 318.229 355.184 318.229 356.956ZM317.512 356.971C317.512 355.564 316.499 354.65 314.839 354.65C313.221 354.65 312.11 355.676 312.11 357C312.11 358.153 313.081 359.307 314.923 359.307C316.457 359.306 317.512 358.392 317.512 356.971Z" fill="#1A86FE"/>
<path d="M331.301 357.124H329.233V359.854H328.529V357.124H322.916V356.604L328.262 350.006H329.064L323.816 356.491H328.543V354.085H329.232V356.491H331.3L331.301 357.124Z" fill="#1A86FE"/>
<path d="M342.235 357.082C342.235 358.714 341.053 359.924 338.788 359.924C337.339 359.924 336.002 359.39 335.313 358.602L335.679 358.053C336.284 358.742 337.437 359.263 338.788 359.263C340.561 359.263 341.503 358.419 341.503 357.082C341.503 355.76 340.603 354.901 338.633 354.901H338.014V354.381L340.926 350.652H335.678V350.006H341.854V350.512L338.9 354.297C341.137 354.353 342.235 355.479 342.235 357.082Z" fill="#1A86FE"/>
<path d="M354.138 350.006V350.512L349.903 359.854H349.115L353.308 350.653H347.779V352.539H347.076V350.007H354.138V350.006Z" fill="#1A86FE"/>
<path d="M359.162 354.932C359.162 351.851 360.752 349.938 363.016 349.938C365.281 349.938 366.871 351.851 366.871 354.932C366.871 358.013 365.281 359.925 363.016 359.925C360.752 359.925 359.162 358.013 359.162 354.932ZM366.154 354.932C366.154 352.189 364.874 350.598 363.016 350.598C361.159 350.598 359.879 352.189 359.879 354.932C359.879 357.675 361.159 359.264 363.016 359.264C364.874 359.264 366.154 357.675 366.154 354.932Z" fill="#1A86FE"/>
<path d="M224.802 663.527H215.849L212.529 623.225H223.072L224.802 663.527Z" fill="#0F2F65"/>
<path d="M302.393 663.527H311.347L314.666 623.225H304.123L302.393 663.527Z" fill="#0F2F65"/>
<path d="M320.818 628.326L205.582 631.031L202.075 556.6C201.732 549.312 207.548 543.215 214.844 543.215H313.026C320.434 543.215 326.291 549.493 325.778 556.883L320.818 628.326Z" fill="#0177FB"/>
<path d="M326.725 556.345C326.725 556.354 326.616 556.363 326.403 556.373C326.162 556.38 325.851 556.389 325.458 556.401C324.593 556.414 323.376 556.432 321.826 556.456C318.637 556.468 314.081 556.484 308.467 556.504C297.188 556.523 281.604 556.396 264.405 556.795C247.196 557.367 231.6 557.269 220.323 557.098C214.683 557.009 210.12 556.899 206.967 556.804C205.418 556.751 204.202 556.709 203.337 556.68C202.945 556.661 202.634 556.646 202.393 556.634C202.18 556.621 202.072 556.609 202.072 556.6C202.072 556.591 202.181 556.584 202.394 556.58C202.635 556.579 202.947 556.577 203.339 556.574C204.204 556.58 205.421 556.589 206.971 556.6C210.16 556.631 214.714 556.674 220.327 556.728C231.606 556.805 247.186 556.844 264.392 556.273C281.605 555.874 297.19 556.059 308.468 556.134C314.082 556.183 318.636 556.224 321.826 556.251C323.376 556.269 324.593 556.284 325.458 556.294C325.85 556.304 326.162 556.311 326.403 556.317C326.616 556.327 326.725 556.336 326.725 556.345Z" fill="#0F2F65"/>
<path d="M244.108 544.378C244.14 544.552 240.497 544.614 236.626 546.623C232.726 548.579 230.539 551.492 230.417 551.364C230.371 551.33 230.843 550.563 231.844 549.513C232.839 548.463 234.411 547.173 236.39 546.159C238.372 545.152 240.338 544.636 241.772 544.447C243.209 544.253 244.108 544.321 244.108 544.378Z" fill="#0F2F65"/>
<path d="M291.505 409.049L305.593 434.782L326.229 423.24L336.264 426.552C336.264 426.552 310.946 454.003 306.838 455.401C302.731 456.799 294.952 457.054 290.504 451.489C286.454 446.422 274.668 419.814 274.668 419.814L291.505 409.049Z" fill="#FFBE9D"/>
<path d="M349.5 392.252C349.133 391.798 348.556 391.569 347.978 391.649L338.164 392.999C337.303 393.132 336.54 393.625 336.065 394.355L315.686 425.677L317.253 426.553L328.104 426.212L349.808 392.636L349.5 392.252Z" fill="#0F2F65"/>
<path d="M342.554 396.32C342.763 396.504 343.131 396.426 343.376 396.147C343.62 395.868 343.649 395.493 343.44 395.31C343.231 395.127 342.863 395.204 342.618 395.483C342.373 395.762 342.345 396.137 342.554 396.32Z" fill="white"/>
<path d="M349.808 392.634C349.813 392.675 349.137 392.806 347.911 393.009C346.584 393.214 344.831 393.486 342.71 393.814C341.601 393.977 340.399 394.153 339.115 394.342C338.497 394.398 337.949 394.717 337.598 395.235C337.221 395.82 336.834 396.42 336.437 397.035C334.832 399.51 333.076 402.216 331.233 405.057C327.526 410.741 324.143 415.868 321.669 419.562C320.464 421.34 319.468 422.809 318.714 423.921C318.005 424.943 317.597 425.498 317.563 425.475C317.529 425.453 317.872 424.856 318.521 423.795C319.235 422.657 320.178 421.153 321.319 419.334C323.703 415.581 327.031 410.418 330.738 404.734C332.595 401.902 334.364 399.204 335.981 396.737C336.387 396.124 336.783 395.525 337.169 394.941C337.599 394.298 338.352 393.904 339.036 393.857C340.325 393.694 341.533 393.541 342.646 393.4C344.78 393.147 346.544 392.938 347.879 392.78C349.116 392.649 349.802 392.594 349.808 392.634Z" fill="#455A64"/>
<path d="M338.922 403.832C338.922 403.832 338.047 403.675 337.568 406.068C337.089 408.461 335.547 415.324 335.547 415.324L330.964 412.889L325.231 413.636C325.231 413.636 323.98 414.792 324.897 415.42C325.815 416.047 329.439 416.695 329.439 416.695L332.112 420.538L324.441 416.84C324.441 416.84 321.882 417.507 322.631 419.069C323.381 420.631 328.553 425.518 328.553 425.518L324.71 425.227L320.14 422.452C320.14 422.452 318.738 422.516 319.261 423.71C319.784 424.904 324.536 429.219 324.536 429.219L330.299 432.015C330.299 432.015 333.445 431.768 333.747 430.844C334.049 429.92 334.126 428.602 334.126 428.602C334.126 428.602 335.796 428.152 336.108 427.342C336.42 426.532 336.219 425.251 336.219 425.251C336.219 425.251 338.84 425.711 339.166 424.25C339.492 422.789 339.218 419.91 338.954 418.786C338.69 417.662 340.072 407.214 339.964 406.899C339.856 406.582 340.565 403.141 338.922 403.832Z" fill="#FFBE9D"/>
<path d="M333.949 430.855C333.968 430.923 333.411 431.168 332.446 431.322C331.484 431.479 330.108 431.494 328.648 431.149C327.188 430.799 325.966 430.165 325.179 429.592C324.386 429.02 323.999 428.55 324.047 428.498C324.156 428.35 325.981 429.931 328.785 430.574C331.575 431.263 333.918 430.673 333.949 430.855Z" fill="#EB996E"/>
<path d="M332.583 428.788C332.493 428.921 331.472 428.386 330.382 427.491C329.29 426.597 328.565 425.701 328.678 425.587C328.794 425.469 329.687 426.16 330.756 427.035C331.824 427.911 332.676 428.651 332.583 428.788Z" fill="#EB996E"/>
<path d="M335.614 423.816C335.527 423.949 334.513 423.427 333.491 422.48C332.466 421.536 331.865 420.567 331.991 420.47C332.121 420.366 332.904 421.138 333.892 422.047C334.876 422.959 335.708 423.678 335.614 423.816Z" fill="#EB996E"/>
<path d="M338.803 419.81C338.646 419.877 338.067 418.795 337.153 417.617C336.249 416.431 335.353 415.594 335.457 415.459C335.546 415.331 336.661 416.001 337.621 417.257C338.589 418.508 338.95 419.757 338.803 419.81Z" fill="#EB996E"/>
<path d="M342.701 605.272C342.735 605.27 342.768 604.931 342.673 604.324C342.574 603.723 342.327 602.844 341.715 601.913C341.558 601.685 341.402 601.44 341.144 601.216C340.9 600.994 340.478 600.824 340.071 600.974C339.869 601.039 339.667 601.224 339.597 601.451C339.521 601.681 339.559 601.909 339.619 602.094C339.752 602.476 339.951 602.748 340.118 603.062C340.49 603.688 340.797 604.311 341.272 605.016C341.512 605.377 342.052 605.674 342.545 605.589C343.03 605.527 343.422 605.293 343.775 605.044C344.46 604.547 345.063 603.981 345.582 603.379C345.841 603.078 346.078 602.767 346.294 602.452C346.498 602.14 346.738 601.822 346.829 601.387C346.921 600.968 346.762 600.417 346.286 600.226C345.803 600.052 345.41 600.294 345.141 600.485C344.595 600.938 344.267 601.403 343.934 601.852C343.299 602.75 342.949 603.573 342.751 604.148C342.557 604.727 342.511 605.062 342.545 605.071C342.643 605.112 342.968 603.777 344.256 602.091C344.576 601.691 344.973 601.205 345.416 600.866C345.642 600.704 345.925 600.6 346.096 600.687C346.277 600.752 346.377 601.023 346.318 601.284C346.262 601.554 346.059 601.843 345.849 602.144C345.64 602.44 345.411 602.732 345.163 603.016C344.666 603.582 344.089 604.117 343.444 604.585C343.133 604.808 342.796 604.992 342.481 605.03C342.165 605.069 341.917 604.944 341.709 604.674C341.314 604.1 340.935 603.39 340.57 602.8C340.395 602.492 340.184 602.193 340.092 601.936C339.996 601.665 340.049 601.49 340.238 601.415C340.672 601.236 341.094 601.726 341.387 602.142C342.606 603.871 342.59 605.307 342.701 605.272Z" fill="#0F2F65"/>
<path d="M318.127 606.111L305.925 632.556L286.234 623.46L298.855 590.73L318.127 606.111Z" fill="#FFBE9D"/>
<path d="M308.23 630.793L301.101 644.388C301.101 644.388 319.35 663.257 317.636 667.475L274.736 646.906L286.522 619.637L308.23 630.793Z" fill="#455A64"/>
<path d="M288.726 636.168C287.787 635.997 286.766 636.655 286.556 637.586C286.347 638.517 287.007 639.562 287.943 639.749C288.879 639.937 290.129 639.184 290.233 638.235C290.337 637.286 289.494 636.102 288.541 636.145" fill="#E0E0E0"/>
<g opacity="0.6">
<path d="M274.736 646.905L276.521 643.486L316.986 664.486C316.986 664.486 318.498 666.233 317.637 667.474L274.736 646.905Z" fill="white"/>
</g>
<path d="M301.9 644.504C301.793 644.71 300.7 644.303 299.346 644.483C297.988 644.627 297.021 645.28 296.868 645.104C296.695 644.971 297.607 643.868 299.25 643.68C300.891 643.476 302.038 644.333 301.9 644.504Z" fill="#0F2F65"/>
<path d="M305.509 648.522C305.46 648.748 304.382 648.669 303.245 649.214C302.093 649.726 301.454 650.597 301.25 650.488C301.037 650.427 301.481 649.13 302.906 648.48C304.326 647.817 305.6 648.32 305.509 648.522Z" fill="#0F2F65"/>
<path d="M305.482 655.133C305.27 655.086 305.481 653.9 306.569 653.011C307.651 652.114 308.856 652.135 308.861 652.352C308.897 652.581 307.966 652.892 307.084 653.636C306.184 654.357 305.7 655.212 305.482 655.133Z" fill="#0F2F65"/>
<path d="M303.947 639.266C303.768 639.415 302.945 638.665 301.722 638.178C300.509 637.666 299.397 637.621 299.374 637.389C299.325 637.179 300.597 636.835 302.029 637.43C303.465 638.012 304.129 639.15 303.947 639.266Z" fill="#0F2F65"/>
<path d="M312.25 627.264L344.414 546.769C344.414 546.769 343.691 533.035 341.161 528.698C338.631 524.361 262.01 499.061 262.01 499.061C262.01 499.061 242.493 494.362 229.482 499.061C216.471 503.759 206.712 520.023 208.519 529.059C210.326 538.095 217.952 544.732 217.952 544.732L274.298 546.407L305.009 557.611L284.327 616.884L312.25 627.264Z" fill="#0F2F65"/>
<path d="M340.858 572.259L341.584 601.375L319.9 601.905L316.776 566.965L340.858 572.259Z" fill="#FFBE9D"/>
<path d="M342.873 598.773L342.477 614.119C342.477 614.119 367.181 622.994 367.506 627.535L319.932 628.017L318.469 598.346L342.873 598.773Z" fill="#455A64"/>
<path d="M327.745 612.207C326.827 612.468 326.201 613.51 326.424 614.438C326.647 615.366 327.701 616.012 328.624 615.767C329.546 615.522 330.336 614.295 330.011 613.397C329.685 612.5 328.406 611.81 327.57 612.269" fill="#E0E0E0"/>
<g opacity="0.6">
<path d="M319.932 628.016L320.024 624.16L365.603 625.14C365.603 625.14 367.73 626.04 367.506 627.534L319.932 628.016Z" fill="white"/>
</g>
<path d="M343.245 613.868C343.24 614.1 342.079 614.217 340.944 614.976C339.789 615.705 339.209 616.717 338.995 616.627C338.78 616.584 339.113 615.192 340.504 614.298C341.886 613.391 343.293 613.654 343.245 613.868Z" fill="#0F2F65"/>
<path d="M348.257 615.882C348.312 616.106 347.31 616.512 346.531 617.502C345.723 618.47 345.535 619.534 345.303 619.526C345.085 619.565 344.911 618.206 345.903 616.993C346.884 615.772 348.25 615.661 348.257 615.882Z" fill="#0F2F65"/>
<path d="M351.15 621.825C350.939 621.877 350.604 620.719 351.188 619.441C351.763 618.158 352.853 617.645 352.953 617.838C353.086 618.028 352.388 618.717 351.925 619.774C351.438 620.82 351.381 621.8 351.15 621.825Z" fill="#0F2F65"/>
<path d="M342.77 608.265C342.675 608.478 341.606 608.168 340.294 608.271C338.98 608.347 337.963 608.798 337.839 608.6C337.703 608.433 338.692 607.564 340.239 607.465C341.785 607.353 342.883 608.082 342.77 608.265Z" fill="#0F2F65"/>
<path d="M328.195 491.423C328.195 491.423 341.187 490.384 342.632 504.48C344.078 518.576 345.497 584.356 345.497 584.356L315.137 586.886L310.439 519.661L262.008 499.06C262.008 499.06 319.521 489.616 328.195 491.423Z" fill="#0F2F65"/>
<path d="M274.648 472.402C274.648 472.402 282.533 494.508 281.031 496.972C279.529 499.436 259.254 509.573 259.254 509.573L208.52 529.058C208.52 529.058 203.309 520.769 203.309 508.037C203.309 495.305 220.956 472.402 220.956 472.402H274.648Z" fill="#0F2F65"/>
<path d="M259.61 497.933C259.607 497.941 259.687 497.984 259.848 498.061C260.034 498.147 260.271 498.257 260.568 498.394C261.237 498.692 262.176 499.109 263.378 499.644C265.869 500.729 269.446 502.287 273.924 504.238C282.973 508.133 295.656 513.593 310.333 519.911L310.169 519.68C310.629 526.32 311.127 533.492 311.642 540.912C312.876 558.257 314.014 574.249 314.914 586.901L314.93 587.13L315.158 587.11C324.392 586.3 331.969 585.635 337.275 585.169C339.884 584.925 341.933 584.734 343.365 584.6C344.039 584.53 344.567 584.475 344.956 584.435C345.315 584.394 345.499 584.367 345.498 584.356C345.497 584.344 345.311 584.349 344.95 584.367C344.559 584.392 344.029 584.425 343.353 584.467C341.919 584.572 339.866 584.723 337.253 584.914C331.943 585.333 324.36 585.931 315.119 586.661L315.363 586.87C314.494 574.215 313.397 558.22 312.206 540.873C311.684 533.454 311.179 526.282 310.711 519.643L310.699 519.477L310.546 519.412C295.837 513.169 283.126 507.773 274.058 503.924C269.553 502.035 265.955 500.526 263.45 499.476C262.233 498.977 261.283 498.587 260.605 498.308C260.3 498.188 260.056 498.092 259.866 498.018C259.7 497.954 259.613 497.926 259.61 497.933Z" fill="#455A64"/>
<path d="M219.26 500.144C219.273 500.181 219.78 500.04 220.684 499.755C221.692 499.43 222.973 499.017 224.504 498.523C227.727 497.501 232.199 496.075 237.288 495.293C242.377 494.508 247.086 494.75 250.375 495.461C253.679 496.144 255.578 497.087 255.62 496.98C255.634 496.95 255.175 496.691 254.3 496.312C253.427 495.93 252.122 495.467 250.461 495.069C247.148 494.246 242.355 493.936 237.203 494.732C232.053 495.525 227.572 497.022 224.375 498.143C222.775 498.711 221.492 499.198 220.609 499.546C219.728 499.896 219.247 500.107 219.26 500.144Z" fill="#455A64"/>
<path d="M226.432 488.492C226.446 488.582 228.131 488.253 230.868 488.467C232.234 488.562 233.86 488.772 235.67 488.981C237.477 489.196 239.461 489.439 241.515 489.828C245.637 490.562 249.184 491.999 251.456 493.516C253.75 495.009 254.825 496.37 254.903 496.293C254.925 496.275 254.693 495.91 254.166 495.339C253.64 494.77 252.825 493.98 251.68 493.184C249.42 491.548 245.794 490.013 241.621 489.272C239.541 488.878 237.541 488.649 235.727 488.462C233.914 488.281 232.277 488.112 230.888 488.066C229.501 488.016 228.373 488.096 227.605 488.212C226.836 488.329 226.425 488.459 226.432 488.492Z" fill="#455A64"/>
<path d="M248.842 310.844C243.004 309.852 237.873 312.1 232.949 315.39C228.026 318.681 224.318 323.647 222.178 329.168C219.923 334.983 219.375 341.526 221.107 347.518C222.84 353.509 226.943 358.872 232.504 361.697C240.098 365.554 249.809 364.209 256.603 359.072C263.397 353.935 267.281 345.442 267.607 336.931C267.831 331.068 266.43 325.069 263.154 320.201C259.877 315.334 254.648 311.697 248.842 310.844Z" fill="#0F2F65"/>
<path d="M232.239 330.696C233.093 328.463 232.762 325.969 233.1 323.602C233.844 318.39 238.044 314.21 242.901 312.178C247.419 310.288 252.938 310.7 258.381 312.46C262.112 313.666 265.624 315.769 268.111 318.8C271.412 322.823 272.576 328.506 271.12 333.502L244.452 329.618C241.955 331.684 239.399 333.784 236.371 334.936C235.482 335.274 234.526 335.528 233.587 335.38C232.648 335.231 231.735 334.593 231.513 333.668C231.27 332.659 231.868 331.667 232.239 330.696Z" fill="#0F2F65"/>
<path d="M258.952 319.822L235.669 324.755C233.417 324.905 231.654 326.754 231.611 329.011L231.891 379.397C231.91 382.839 233.064 386.179 235.173 388.898L237.393 391.762C242.456 398.291 252.711 397.633 256.578 390.333C256.848 389.823 257.035 389.376 257.114 389.014C257.192 388.561 257.312 388.262 257.333 387.877L257.777 382.965C258.004 378.479 258.035 373.92 258.036 373.962C258.036 373.962 267.564 372.758 270.005 360.482C271.219 354.377 271.302 344.293 271.102 336.04C270.923 328.61 266.366 319.327 258.952 319.822Z" fill="#FFBE9D"/>
<path d="M267.562 345.497C267.559 346.335 266.847 347.023 265.973 347.036C265.1 347.049 264.392 346.382 264.395 345.544C264.398 344.706 265.11 344.017 265.983 344.004C266.858 343.992 267.565 344.66 267.562 345.497Z" fill="#0F2F65"/>
<path d="M268.715 341.195C268.511 341.394 267.345 340.459 265.64 340.397C263.938 340.311 262.653 341.14 262.476 340.924C262.388 340.828 262.604 340.463 263.163 340.087C263.715 339.713 264.644 339.365 265.706 339.41C266.768 339.457 267.646 339.883 268.144 340.303C268.652 340.726 268.815 341.106 268.715 341.195Z" fill="#0F2F65"/>
<path d="M252.281 345.113C252.278 345.951 251.566 346.639 250.692 346.652C249.819 346.665 249.112 345.998 249.115 345.161C249.118 344.323 249.83 343.634 250.703 343.621C251.577 343.607 252.284 344.275 252.281 345.113Z" fill="#0F2F65"/>
<path d="M252.526 340.779C252.321 340.978 251.154 340.043 249.45 339.982C247.748 339.896 246.463 340.724 246.286 340.508C246.199 340.412 246.412 340.047 246.974 339.672C247.526 339.298 248.455 338.949 249.517 338.994C250.578 339.041 251.456 339.467 251.955 339.887C252.462 340.31 252.626 340.69 252.526 340.779Z" fill="#0F2F65"/>
<path d="M257.642 353.744C257.638 353.647 258.704 353.505 260.43 353.352C260.867 353.324 261.283 353.254 261.367 352.959C261.482 352.648 261.318 352.172 261.127 351.658C260.759 350.589 260.373 349.468 259.968 348.293C258.364 343.505 257.22 339.574 257.414 339.511C257.607 339.448 259.065 343.278 260.669 348.067C261.054 349.247 261.422 350.373 261.773 351.449C261.919 351.95 262.18 352.522 261.933 353.166C261.803 353.487 261.474 353.71 261.192 353.775C260.91 353.849 260.665 353.844 260.449 353.849C258.717 353.875 257.645 353.841 257.642 353.744Z" fill="#0F2F65"/>
<path d="M258.035 373.961C258.035 373.961 249.704 374.174 241.664 368.906C241.664 368.906 245.491 377.618 257.899 376.942L258.035 373.961Z" fill="#EB996E"/>
<path d="M256.76 357.826C256.178 356.992 255.122 356.505 254.051 356.578C253.308 356.629 252.547 356.956 252.074 357.542C251.601 358.127 251.474 358.979 251.86 359.569C252.295 360.234 253.25 360.42 254.073 360.221C254.896 360.021 255.616 359.513 256.302 359.005C256.492 358.864 256.686 358.718 256.808 358.52C256.931 358.322 256.966 358.059 256.83 357.886" fill="#EB996E"/>
<path d="M252.578 354.729C252.856 354.723 252.787 356.574 254.321 357.949C255.85 359.328 257.831 359.197 257.835 359.456C257.856 359.573 257.382 359.799 256.549 359.789C255.731 359.785 254.549 359.477 253.611 358.636C252.676 357.793 252.302 356.702 252.269 355.941C252.228 355.163 252.452 354.713 252.578 354.729Z" fill="#0F2F65"/>
<path d="M252.431 335.719C252.245 336.176 250.551 335.89 248.542 336.054C246.529 336.177 244.894 336.7 244.644 336.274C244.533 336.07 244.832 335.646 245.501 335.222C246.165 334.799 247.213 334.413 248.418 334.326C249.624 334.241 250.716 334.474 251.433 334.799C252.156 335.123 252.511 335.502 252.431 335.719Z" fill="#0F2F65"/>
<path d="M268.507 333.72C268.192 334.095 267.034 333.648 265.622 333.574C264.213 333.451 263.004 333.733 262.745 333.317C262.632 333.116 262.835 332.735 263.372 332.389C263.901 332.044 264.774 331.779 265.743 331.846C266.712 331.915 267.539 332.298 268.015 332.714C268.499 333.13 268.647 333.536 268.507 333.72Z" fill="#0F2F65"/>
<path d="M227.971 327.101C230.385 320.011 240.924 310.351 248.383 311.021L260.169 318.413C259.366 322.463 256.157 325.94 252.184 327.064C250.062 327.664 247.519 327.79 246.229 329.579C244.911 331.405 245.606 334.117 244.376 336.003C242.671 338.617 238.158 338.402 236.862 341.241C236.296 342.482 236.549 343.982 235.96 345.212C235.176 346.851 230.948 348.864 229.227 348.281C227.507 347.698 227.56 344.749 227.025 343.193C226.11 340.534 226.536 339.174 226.884 337.706C227.707 334.228 226.82 330.483 227.971 327.101Z" fill="#0F2F65"/>
<path d="M234.307 349.842C234.34 348.922 233.361 346.712 232.458 346.535C230.047 346.063 225.667 346.088 225.387 352.247C225.005 360.667 233.537 359.314 233.563 359.073C233.582 358.885 234.191 353.018 234.307 349.842Z" fill="#FFBE9D"/>
<path d="M231.136 355.765C231.1 355.736 230.985 355.861 230.732 355.963C230.485 356.062 230.066 356.12 229.634 355.936C228.759 355.569 228.074 354.123 228.102 352.604C228.115 351.836 228.309 351.114 228.608 350.522C228.893 349.918 229.311 349.505 229.762 349.447C230.212 349.364 230.517 349.646 230.609 349.888C230.711 350.129 230.65 350.295 230.694 350.311C230.716 350.334 230.881 350.178 230.829 349.828C230.801 349.659 230.712 349.456 230.522 349.285C230.327 349.112 230.034 349.014 229.72 349.034C229.069 349.05 228.457 349.62 228.129 350.27C227.765 350.921 227.529 351.732 227.514 352.594C227.491 354.293 228.287 355.92 229.489 356.327C230.074 356.508 230.577 356.352 230.841 356.165C231.112 355.968 231.164 355.782 231.136 355.765Z" fill="#EB996E"/>
<path d="M226.169 324.916C226.197 322.282 222.907 320.559 220.341 319.962C217.775 319.366 215.062 320.146 212.752 321.412C211.4 322.152 210.039 323.206 209.737 324.717C209.434 326.228 210.889 328.029 212.332 327.488C209.567 328.434 208.165 332.127 209.605 334.67C211.045 337.213 214.933 337.91 217.166 336.026C216.445 338.439 214.871 340.588 212.788 342.003C217.119 342.62 221.718 340.771 224.415 337.326C227.113 333.881 227.806 328.973 226.169 324.916Z" fill="#0F2F65"/>
<path d="M220.324 338.307C220.264 338.316 220.039 337.361 220.009 335.78C219.975 334.204 220.209 332 220.979 329.704C221.756 327.409 222.904 325.513 223.884 324.279C224.864 323.038 225.621 322.414 225.664 322.457C225.819 322.566 222.994 325.364 221.508 329.882C219.958 334.376 220.514 338.314 220.324 338.307Z" fill="#FF725E"/>
<path d="M257.723 315.865C258.498 319.293 263.708 323.689 265.995 326.358C270.359 331.45 271.219 333.141 271.176 344.525C273.236 340.593 274.814 336.741 274.656 332.305C274.498 327.869 272.864 323.425 269.78 320.233C266.697 317.04 262.116 315.228 257.723 315.865Z" fill="#0F2F65"/>
<path d="M293.434 409.55C293.434 409.55 284.359 394.419 281.841 391.358C279.48 388.488 276.438 386.796 274.407 385.907C273.277 385.413 272.089 385.073 270.874 384.862L257.823 381.972C257.823 381.972 257.8 390.88 248.466 391.431C239.132 391.982 231.273 378.98 231.273 378.98C231.273 378.98 216.195 381.312 212.587 383.168C208.979 385.024 203.309 387.381 200.19 403.004L198 418.288L223.999 420.691L226.487 459.325L239.381 468.304C239.381 468.304 275.127 477.597 277.411 478.212C279.695 478.826 280.452 420.691 280.452 420.691C280.452 420.691 289.634 414.755 293.434 409.55Z" fill="#0F2F65"/>
<path d="M276.322 403.053C276.356 403.04 276.533 403.437 276.824 404.168C277.121 404.896 277.5 405.969 277.922 407.311C278.769 409.992 279.698 413.783 280.224 418.049C280.742 422.317 280.755 426.221 280.58 429.027C280.494 430.43 280.385 431.563 280.272 432.341C280.165 433.12 280.089 433.548 280.054 433.544C280.018 433.54 280.026 433.105 280.071 432.323C280.122 431.542 280.174 430.409 280.212 429.012C280.292 426.217 280.221 422.348 279.707 418.113C279.185 413.881 278.321 410.109 277.568 407.416C277.194 406.069 276.87 404.983 276.632 404.236C276.401 403.486 276.288 403.065 276.322 403.053Z" fill="#455A64"/>
<path d="M275.213 466.338L226.261 455.683L223.999 420.694L202.23 418.682C202.23 418.682 203.035 442.601 203.873 449.713C205.077 459.94 211.123 473.896 214.659 476.685C218.196 479.473 277.411 478.216 277.411 478.216L275.213 466.338Z" fill="#FFBE9D"/>
<path d="M303 472.679C302.656 473.362 301.94 473.807 301.178 473.741C301.026 473.728 300.867 473.698 300.704 473.645C299.621 473.298 299.723 471.093 299.723 471.093L294.535 470.246C294.535 470.246 287.789 474.596 285.389 477.48C282.989 480.363 276.866 478.028 276.866 478.028L274.744 466.971L284.293 458.336C284.293 458.336 283.707 458.85 284.365 457.235C285.024 455.62 288.024 456.231 288.024 456.231C288.491 455.432 290.451 455.146 290.451 455.146L298.827 456.111C300.553 456.31 302.096 457.28 303.024 458.748L306.566 464.355C306.566 464.355 308.437 468.391 308.136 469.33C307.682 470.746 306.184 470.431 306.184 470.431C306.184 470.431 305.772 473.085 305.075 473.177C304.378 473.269 303 472.679 303 472.679Z" fill="#FFBE9D"/>
<path d="M285.174 464.737C285.183 464.825 286.297 464.722 288.086 464.799C289.871 464.886 292.34 465.199 294.921 466.078C296.211 466.512 297.401 467.036 298.445 467.585C299.457 468.155 300.513 468.623 300.837 469.36C301 469.721 300.927 470.088 300.746 470.358C300.569 470.628 300.328 470.805 300.114 470.892C299.674 471.073 299.389 470.949 299.38 471C299.359 471.012 299.64 471.23 300.182 471.088C300.444 471.017 300.747 470.842 300.99 470.53C301.239 470.234 301.382 469.705 301.188 469.219C301.007 468.731 300.591 468.353 300.146 468.042C299.69 467.743 299.212 467.438 298.68 467.151C297.626 466.566 296.413 466.016 295.092 465.571C292.45 464.671 289.909 464.411 288.094 464.42C286.271 464.441 285.165 464.679 285.174 464.737Z" fill="#EB996E"/>
<path d="M284.588 470.079C284.598 470.238 288.006 470.095 292.194 470.341C296.384 470.571 299.754 471.098 299.781 470.942C299.793 470.873 298.964 470.652 297.6 470.412C296.237 470.172 294.336 469.928 292.224 469.807C290.113 469.688 288.197 469.715 286.815 469.799C285.433 469.884 284.584 470.009 284.588 470.079Z" fill="#EB996E"/>
<path d="M302.951 472.467C302.979 472.462 303.016 472.153 303.056 471.575C303.091 470.999 303.126 470.161 303.061 469.122C303.026 468.603 302.97 468.032 302.827 467.423C302.694 466.811 302.402 466.167 302.004 465.598C301.249 464.456 300.2 463.272 298.865 462.384C297.535 461.507 296.205 460.766 294.859 460.359C293.523 459.955 292.274 459.855 291.241 459.808C290.205 459.772 289.371 459.794 288.795 459.816C288.219 459.84 287.901 459.87 287.9 459.907C287.896 459.993 289.177 460.036 291.217 460.185C292.232 460.278 293.445 460.417 294.712 460.828C295.969 461.231 297.276 461.975 298.562 462.823C299.85 463.684 300.83 464.768 301.598 465.876C302.408 466.932 302.559 468.144 302.684 469.154C302.887 471.183 302.836 472.47 302.951 472.467Z" fill="#EB996E"/>
<path d="M290.854 457.274C290.853 457.354 292.107 457.387 294.109 457.617C296.036 457.912 299.12 458.054 300.877 460.71C302.779 463.126 304.397 465.408 305.104 467.28C305.854 469.139 305.788 470.425 305.897 470.416C305.926 470.417 305.975 470.101 305.946 469.528C305.922 468.956 305.799 468.122 305.458 467.149C304.815 465.174 303.207 462.806 301.294 460.376C300.806 459.766 300.278 459.187 299.666 458.73C299.056 458.264 298.347 457.993 297.695 457.804C296.374 457.431 295.159 457.322 294.145 457.24C292.111 457.105 290.853 457.207 290.854 457.274Z" fill="#EB996E"/>
<path d="M287.221 475.696C287.232 475.708 287.403 475.578 287.718 475.316C288.077 475.028 288.542 474.655 289.12 474.19C290.357 473.233 292.196 471.872 294.625 470.398L294.506 470.421C296.053 470.684 297.798 470.982 299.688 471.303L299.51 471.084C299.499 471.507 299.523 471.921 299.607 472.351C299.694 472.773 299.829 473.228 300.195 473.598C300.385 473.778 300.658 473.885 300.883 473.914C301.114 473.973 301.364 473.996 301.612 473.957C302.107 473.886 302.572 473.626 302.902 473.243C302.987 473.149 303.06 473.044 303.128 472.936L303.175 472.853L303.198 472.811L303.21 472.79L303.211 472.787C303.278 472.761 302.632 472.998 302.907 472.898L302.913 472.9L302.924 472.904L303.088 472.971C303.307 473.058 303.529 473.137 303.758 473.208C303.987 473.279 304.221 473.342 304.468 473.385C304.592 473.406 304.718 473.424 304.853 473.427C304.979 473.432 305.131 473.436 305.333 473.334C305.625 473.126 305.73 472.88 305.841 472.648C305.945 472.413 306.029 472.175 306.099 471.935C306.242 471.454 306.346 470.97 306.432 470.467L306.129 470.677C306.802 470.795 307.595 470.633 308.061 470.018C308.271 469.732 308.443 469.379 308.417 468.974C308.4 468.611 308.319 468.293 308.233 467.971C307.87 466.699 307.357 465.478 306.803 464.241L306.796 464.227L306.786 464.211C306.184 463.257 305.544 462.244 304.898 461.22C304.496 460.583 304.096 459.952 303.7 459.325C303.302 458.718 302.945 458.035 302.386 457.489C301.848 456.945 301.202 456.52 300.506 456.24C299.815 455.942 299.047 455.868 298.37 455.796C295.595 455.484 292.949 455.186 290.475 454.908L290.441 454.904L290.413 454.909C289.928 454.991 289.474 455.105 289.028 455.274C288.594 455.449 288.134 455.647 287.825 456.115L288.115 456.024C287.228 455.66 286.201 455.656 285.425 456.174C284.645 456.687 284.285 457.516 284.094 458.295L284.157 458.186C281.415 460.652 279.177 462.664 277.576 464.104C276.838 464.784 276.248 465.327 275.803 465.737C275.402 466.116 275.197 466.321 275.21 466.336C275.223 466.351 275.453 466.173 275.879 465.823C276.342 465.433 276.955 464.916 277.722 464.269C279.351 462.862 281.628 460.894 284.419 458.483L284.464 458.444L284.482 458.373C284.658 457.686 285.012 456.93 285.656 456.532C286.282 456.11 287.181 456.123 287.924 456.434L288.107 456.511L288.215 456.343C288.394 456.064 288.792 455.854 289.191 455.708C289.595 455.558 290.041 455.45 290.481 455.379L290.42 455.38C292.892 455.672 295.537 455.984 298.31 456.311C299.017 456.389 299.678 456.454 300.309 456.727C300.938 456.982 301.522 457.368 302.008 457.861C302.502 458.338 302.838 458.979 303.249 459.609C303.645 460.236 304.044 460.868 304.446 461.505C305.094 462.529 305.734 463.542 306.336 464.495L306.32 464.465C306.865 465.675 307.379 466.898 307.728 468.109C307.81 468.409 307.885 468.719 307.897 468.994C307.925 469.232 307.804 469.489 307.65 469.705C307.349 470.13 306.742 470.264 306.231 470.181L305.97 470.138L305.928 470.39C305.849 470.864 305.749 471.343 305.617 471.794C305.492 472.221 305.305 472.741 305.075 472.915C305.063 472.921 304.974 472.949 304.864 472.938C304.763 472.937 304.654 472.923 304.547 472.905C304.331 472.869 304.112 472.812 303.897 472.747C303.682 472.682 303.468 472.608 303.26 472.527L303.106 472.465L303.097 472.461L303.093 472.459C303.366 472.359 302.718 472.594 302.785 472.571L302.784 472.573L302.775 472.59L302.757 472.623L302.721 472.689C302.668 472.774 302.611 472.857 302.545 472.932C302.287 473.237 301.923 473.441 301.545 473.499C301.356 473.531 301.166 473.514 300.975 473.466C300.768 473.437 300.63 473.379 300.501 473.268C300.007 472.753 299.936 471.834 299.933 471.102L299.932 470.91L299.755 470.882C297.861 470.586 296.112 470.313 294.561 470.071L294.494 470.061L294.441 470.094C292.012 471.623 290.204 473.03 288.997 474.039C288.396 474.547 287.945 474.955 287.65 475.24C287.358 475.529 287.209 475.684 287.221 475.696Z" fill="#EB996E"/>
<path d="M366.514 440.514L302.035 441.038C299.943 441.038 297.945 442.043 297.631 444.111L290.584 491.106H257.372C256.303 491.106 255.436 491.973 255.436 493.042C255.436 494.111 256.303 494.978 257.372 494.978H290.003H296.197H363.446L370.695 445.379C371.085 442.819 369.103 440.514 366.514 440.514Z" fill="#E0E0E0"/>
<path d="M366.514 440.513C366.514 440.513 366.865 440.468 367.53 440.608C368.175 440.758 369.192 441.157 369.993 442.241C370.392 442.772 370.696 443.481 370.79 444.299C370.895 445.129 370.657 446.005 370.553 446.951C370.283 448.85 369.972 451.038 369.623 453.496C368.204 463.349 366.159 477.548 363.644 495.005L363.619 495.175H363.446C335.998 495.191 299.927 495.213 260.538 495.236C259.613 495.236 258.69 495.236 257.768 495.236C257.341 495.254 256.746 495.229 256.303 494.957C255.845 494.705 255.489 494.282 255.311 493.793C254.925 492.809 255.386 491.604 256.312 491.115C256.754 490.848 257.343 490.825 257.765 490.842H259.129C262.762 490.843 266.358 490.843 269.907 490.844C277.006 490.846 283.92 490.849 290.583 490.851L290.335 491.065C292.871 474.235 295.237 458.535 297.36 444.45C297.433 443.558 297.837 442.593 298.553 441.995C299.253 441.374 300.139 441.044 301.018 440.907C301.915 440.771 302.769 440.844 303.618 440.815C304.469 440.809 305.313 440.803 306.15 440.798C309.498 440.775 312.736 440.754 315.857 440.733C322.097 440.693 327.868 440.657 333.109 440.624C343.578 440.57 351.923 440.528 357.669 440.498C360.524 440.493 362.73 440.489 364.24 440.486C364.977 440.49 365.541 440.492 365.937 440.494C366.319 440.5 366.514 440.513 366.514 440.513C366.514 440.513 366.32 440.529 365.938 440.54C365.542 440.548 364.979 440.56 364.242 440.575C362.733 440.597 360.527 440.629 357.672 440.67C351.926 440.734 343.581 440.827 333.113 440.943C327.873 440.995 322.102 441.052 315.862 441.114C312.741 441.144 309.503 441.175 306.155 441.206C305.318 441.214 304.474 441.222 303.623 441.23C302.775 441.259 301.902 441.193 301.087 441.323C300.267 441.452 299.455 441.762 298.838 442.315C298.204 442.867 297.869 443.636 297.789 444.516C295.687 458.604 293.345 474.307 290.833 491.141L290.801 491.355H290.585C283.922 491.357 277.007 491.36 269.909 491.362C266.36 491.363 262.764 491.363 259.131 491.364H257.767C257.286 491.351 256.927 491.37 256.566 491.572C255.859 491.946 255.507 492.865 255.802 493.615C255.937 493.987 256.209 494.312 256.559 494.503C256.922 494.709 257.284 494.729 257.771 494.715C258.692 494.715 259.615 494.715 260.541 494.715C299.93 494.738 336.001 494.76 363.449 494.776L363.252 494.946C365.839 477.5 367.944 463.309 369.404 453.462C369.773 451.006 370.101 448.822 370.386 446.925C370.5 445.975 370.744 445.104 370.649 444.313C370.567 443.521 370.282 442.83 369.901 442.308C369.136 441.241 368.15 440.831 367.518 440.664C366.865 440.509 366.512 440.539 366.514 440.513Z" fill="#0F2F65"/>
<path d="M331.539 471.183C333.769 471.183 335.576 469.376 335.576 467.146C335.576 464.917 333.769 463.109 331.539 463.109C329.309 463.109 327.502 464.917 327.502 467.146C327.502 469.376 329.309 471.183 331.539 471.183Z" fill="white"/>
<path d="M293.198 494.544C293.289 494.559 295.342 482.592 297.781 467.819C300.222 453.041 302.126 441.053 302.035 441.037C301.944 441.022 299.892 452.986 297.451 467.764C295.012 482.538 293.107 494.529 293.198 494.544Z" fill="#0F2F65"/>
<path d="M608 227.164L608 0" stroke="#BFD0E0" stroke-miterlimit="10"/>
<path d="M645.323 263.023L642.334 269.597H573.984L571.004 263.023L600.103 242.867H616.223L645.323 263.023Z" fill="#A8BACF"/>
<path d="M618.242 223.447L616.222 242.867H600.102L598.082 223.447H618.242Z" fill="#D3E2EE"/>
<path d="M645.319 263.025L642.33 269.599H573.98L571 263.025H645.319Z" fill="#99ACC4"/>
<path d="M679 206.148L679 0" stroke="#BFD0E0" stroke-miterlimit="10"/>
<path d="M716.444 241.811L713.455 248.386H645.105L642.125 241.811L671.224 221.654H687.345L716.444 241.811Z" fill="#A8BACF"/>
<path d="M689.362 202.236L687.343 221.655H671.222L669.203 202.236H689.362Z" fill="#D3E2EE"/>
<path d="M716.44 241.814L713.451 248.388H645.101L642.121 241.814H716.44Z" fill="#99ACC4"/>
</svg>
