<svg width="100" height="100" viewBox="0 0 100 100" fill="none" xmlns="http://www.w3.org/2000/svg">
<circle cx="50" cy="50" r="50" fill="#EBFAF1"/>
<path fill-rule="evenodd" clip-rule="evenodd" d="M46.0691 56.9378H53.9309C55.5088 55.9827 56.711 54.4698 57.2648 52.6723C55.6395 50.4178 52.9914 48.95 50 48.95C47.0085 48.95 44.3604 50.4178 42.7352 52.6723C43.289 54.4698 44.4913 55.9827 46.0691 56.9378ZM40.5498 36.2935L41.314 38.3061C41.337 38.3666 41.3905 38.4055 41.4551 38.4086L43.6053 38.5134C43.7516 38.5205 43.8114 38.7047 43.6973 38.7965L42.0193 40.1452C41.9688 40.1857 41.9484 40.2486 41.9654 40.3111L42.5302 42.3885C42.5685 42.5298 42.4119 42.6435 42.2894 42.5634L40.4881 41.3843C40.434 41.3489 40.3679 41.3489 40.3138 41.3843L38.5126 42.5634C38.3901 42.6435 38.2334 42.5297 38.2718 42.3885L38.8366 40.3111C38.8535 40.2486 38.8331 40.1857 38.7827 40.1452L37.1047 38.7965C36.9905 38.7047 37.0504 38.5206 37.1966 38.5134L39.347 38.4086C39.4116 38.4055 39.4651 38.3666 39.488 38.3061L40.2522 36.2935C40.3038 36.1574 40.4982 36.1574 40.5498 36.2935ZM59.6691 36.2935L60.4332 38.3061C60.4562 38.3666 60.5097 38.4055 60.5743 38.4086L62.7245 38.5134C62.8708 38.5205 62.9306 38.7048 62.8165 38.7965L61.1385 40.1452C61.0881 40.1857 61.0677 40.2486 61.0846 40.3111L61.6494 42.3885C61.6877 42.5298 61.5311 42.6435 61.4086 42.5634L59.6073 41.3843C59.5532 41.3489 59.4871 41.3489 59.433 41.3843L57.6318 42.5634C57.5093 42.6435 57.3527 42.5297 57.391 42.3885L57.9558 40.3111C57.9727 40.2486 57.9523 40.1857 57.9019 40.1452L56.2239 38.7965C56.1098 38.7047 56.1696 38.5206 56.3159 38.5134L58.4662 38.4086C58.5308 38.4055 58.5843 38.3666 58.6073 38.3061L59.3714 36.2935C59.4231 36.1573 59.6174 36.1573 59.6691 36.2935ZM50.1488 30.9213L50.913 32.9339C50.9359 32.9944 50.9895 33.0332 51.0541 33.0364L53.2043 33.1411C53.3505 33.1482 53.4104 33.3325 53.2962 33.4243L51.6183 34.7729C51.5679 34.8135 51.5474 34.8764 51.5644 34.9388L52.1291 37.0162C52.1675 37.1575 52.0109 37.2713 51.8884 37.1911L50.0871 36.012C50.033 35.9765 49.9669 35.9765 49.9127 36.012L48.1116 37.1911C47.9891 37.2713 47.8324 37.1575 47.8708 37.0162L48.4355 34.9388C48.4525 34.8764 48.4321 34.8135 48.3816 34.7729L46.7037 33.4243C46.5895 33.3325 46.6494 33.1483 46.7956 33.1411L48.9459 33.0364C49.0105 33.0332 49.064 32.9943 49.087 32.9339L49.8511 30.9213C49.9028 30.7852 50.0972 30.7852 50.1488 30.9213ZM41.1492 50.4309C41.1492 55.3194 45.1114 59.2816 49.9999 59.2816C54.8885 59.2816 58.8507 55.3194 58.8507 50.4309H68.75V52.9683L65.6428 54.1643C65.2488 55.8199 64.5925 57.401 63.7002 58.85L65.0526 61.8949L61.464 65.4836L58.4202 64.1316C56.9709 65.0242 55.3891 65.6806 53.7332 66.0746L52.5375 69.181H47.4625L46.2665 66.0738C44.6109 65.6798 43.0298 65.0235 41.5808 64.1312L38.5359 65.4836L34.9473 61.895L36.2992 58.8511C35.4066 57.4019 34.7503 55.82 34.3563 54.1642L31.25 52.9684V50.4309H41.1492ZM50.0001 39.1174C52.4995 39.1174 54.5257 41.1436 54.5257 43.6431C54.5257 46.1425 52.4995 48.1687 50.0001 48.1687C47.5006 48.1687 45.4744 46.1425 45.4744 43.6431C45.4744 41.1436 47.5006 39.1174 50.0001 39.1174Z" fill="#4CD080"/>
</svg>
