<svg width="42" height="42" viewBox="0 0 42 42" fill="none" xmlns="http://www.w3.org/2000/svg">
<rect width="42" height="42" rx="8" fill="#F7F7F7"/>
<path d="M20.9883 11.7406C20.3532 11.7406 19.8383 12.2555 19.8383 12.8906V29.1075C19.8383 29.7426 20.3532 30.2575 20.9883 30.2575H21.0124C21.6475 30.2575 22.1624 29.7426 22.1624 29.1075V12.8906C22.1624 12.2555 21.6475 11.7406 21.0124 11.7406H20.9883Z" fill="#424959" stroke="#424959" stroke-width="0.3" stroke-linecap="round"/>
<path d="M12.8926 19.8363C12.2575 19.8363 11.7426 20.3512 11.7426 20.9863V21.0104C11.7426 21.6456 12.2575 22.1604 12.8926 22.1604H29.1094C29.7446 22.1604 30.2594 21.6456 30.2594 21.0104V20.9863C30.2594 20.3512 29.7446 19.8363 29.1094 19.8363H12.8926Z" fill="#424959" stroke="#424959" stroke-width="0.3" stroke-linecap="round"/>
</svg>
