<svg width="195" height="203" viewBox="0 0 195 203" fill="none" xmlns="http://www.w3.org/2000/svg">
<path d="M59.8557 137.895C77.6968 127.577 90.4932 109.708 94.2963 89.4071C98.1085 69.067 91.8378 47.3248 78.5733 31.5668C73.509 25.544 65.152 16.3605 57.3884 23.8306C50.2738 30.6723 54.8775 41.5034 58.0402 49.0902C66.2291 68.7501 79.1988 86.247 95.1545 100.293C113.226 116.198 135.144 127.31 158.689 132.352C161.301 132.912 161.641 128.761 159.051 128.215C122.453 120.472 89.6703 96.7864 70.3496 64.7989C65.8399 57.3341 61.8826 49.3636 59.0534 41.0979C57.4656 36.4644 55.8976 30.1022 60.1205 26.2856C65.0871 21.8031 70.4091 27.8827 73.7993 31.4975C86.6283 45.1842 93.3687 64.2319 91.9501 82.9312C90.3048 104.615 77.4933 124.681 58.9028 135.795C57.6486 136.554 58.5685 138.639 59.8557 137.895Z" fill="#CBEE5D"/>
<path d="M59.3406 139.083C79.6797 129.327 94.7516 109.927 98.4436 87.5658C101.944 66.3532 95.0828 41.5668 78.8642 26.8695C75.5255 23.8418 71.5618 21.2334 67.0886 20.2709C63.7083 19.5467 58.5942 19.4476 56.1639 22.4216C53.3766 25.8213 54.3354 32.6841 54.7624 36.7477C55.3129 42.01 56.7068 47.1634 58.6592 52.0686C67.164 73.4066 85.4446 90.4488 103.537 103.837C125.748 120.269 151.842 132.415 179.021 137.695C180.953 138.07 181.698 134.765 179.763 134.299C158.35 129.17 138.003 121.456 119.123 110.021C101.215 99.1675 83.9738 85.3915 71.4316 68.4917C65.5926 60.6193 60.7503 51.7319 58.5768 42.1071C57.6009 37.7899 56.7006 32.6741 57.4293 28.2604C58.9092 19.3723 68.6179 22.8319 73.5452 26.1756C90.1031 37.3847 97.6691 61.3589 96.6136 80.4783C95.2745 104.667 80.13 126.66 58.5383 137.351C57.4462 137.89 58.2319 139.615 59.3406 139.083Z" fill="#CBEE5D"/>
<path d="M170.791 143.771C170.575 137.618 171.174 131.685 171.992 125.601C171.193 126.113 170.394 126.626 169.595 127.139C176.727 129.83 183.938 132.34 191.148 134.85C190.95 133.724 190.745 132.604 190.546 131.479C183.959 136.208 176.919 140.109 169.442 143.253C170.362 143.899 171.276 144.55 172.196 145.196C172.688 141.475 173.33 137.785 174.176 134.124C173.001 134.175 171.831 134.222 170.661 134.279C171.876 136.453 172.956 138.666 173.931 140.967C174.618 142.586 177.48 142.243 177.456 140.362C177.406 136.76 176.604 133.588 174.83 130.435C174.039 129.029 171.503 129.099 171.461 131.014C171.395 134.115 169.241 147.193 176.188 143.044C182.449 139.303 179.028 131.859 174.752 128.315C173.213 127.044 171.279 129.37 172.459 130.839C173.175 131.729 173.896 132.626 174.611 133.517C175.499 132.772 176.386 132.027 177.274 131.283C175.435 129.591 173.65 127.864 171.923 126.057C170.432 124.493 168.183 126.444 169.378 128.193C172.709 133.065 178.161 134.793 183.636 136.174C183.902 134.964 184.168 133.754 184.428 132.548C181.24 132.429 178.052 132.31 174.864 132.191C172.394 132.101 172.202 135.465 174.536 135.943C177.678 136.584 180.74 136.84 183.935 136.743C183.731 135.548 183.527 134.354 183.317 133.165C181.919 134.002 180.601 134.509 178.995 134.786C179.505 135.881 180.014 136.977 180.517 138.077C182.508 136.344 184.526 135.207 186.988 134.36C188.783 133.746 188.16 130.876 186.369 130.794C184.475 130.702 182.585 130.628 180.691 130.548C180.585 131.75 180.48 132.951 180.374 134.164C182.819 134.161 185.227 134.314 187.652 134.601C189.958 134.871 190.252 131.316 187.965 131.019C182.447 130.313 177.262 128.74 172.254 126.326C170.407 125.439 168.795 128.525 170.601 129.551C173.414 131.15 176.285 132.344 179.439 133.1C179.698 131.906 179.962 130.718 180.22 129.525C176.818 128.861 172.058 126.869 168.841 128.78C167.539 129.557 167.3 131.187 168.544 132.169C170.393 133.622 172.366 134.046 174.663 133.641C177.163 133.203 176.498 129.319 174.003 129.763C172.746 130.104 171.667 129.833 170.762 128.954C170.808 129.986 170.86 131.024 170.907 132.056C172.553 130.864 178.113 132.858 179.899 133.197C181.933 133.581 182.728 130.11 180.68 129.622C177.838 128.951 175.227 127.98 172.681 126.535C172.13 127.606 171.579 128.688 171.028 129.76C176.318 132.284 181.845 133.864 187.659 134.584C187.763 133.394 187.868 132.193 187.972 131.002C185.546 130.727 183.131 130.59 180.692 130.537C178.378 130.483 178.025 133.993 180.375 134.153C182.266 134.278 184.152 134.397 186.043 134.512C185.833 133.322 185.635 132.134 185.425 130.945C182.634 131.9 180.31 133.262 178.097 135.193C176.7 136.407 177.765 138.79 179.62 138.484C181.579 138.153 183.175 137.601 184.874 136.585C186.272 135.748 186.357 132.946 184.256 133.007C181.056 133.099 177.989 132.836 174.852 132.202C174.743 133.448 174.634 134.695 174.524 135.953C177.706 136.066 180.9 136.18 184.083 136.293C186.076 136.365 187.059 133.156 184.874 132.667C179.984 131.571 174.986 130.346 171.893 126.072C171.043 126.785 170.198 127.494 169.348 128.208C171.051 130.024 172.785 131.804 174.575 133.537C176.151 135.051 178.682 133.074 177.238 131.302C176.516 130.417 175.783 129.53 175.06 128.645C174.296 129.486 173.531 130.327 172.767 131.168C174.202 132.327 175.357 133.679 175.626 135.564C175.701 136.079 175.606 140.623 173.949 140.049C174.357 140.536 174.761 141.017 175.169 141.504C174.32 138.551 174.968 134.405 174.962 131.343C173.842 131.536 172.712 131.729 171.593 131.922C173.025 134.48 173.749 137.108 173.754 140.055C174.931 139.855 176.102 139.65 177.279 139.45C176.339 137.14 175.283 134.918 174.104 132.724C173.401 131.424 171.017 131.124 170.59 132.879C169.614 136.849 168.848 140.842 168.299 144.895C168.099 146.408 169.761 147.376 171.053 146.838C178.86 143.575 186.193 139.459 193.076 134.545C194.319 133.66 193.804 131.644 192.475 131.174C185.277 128.654 178.067 126.132 170.807 123.801C169.68 123.434 168.559 124.164 168.411 125.339C167.657 131.475 167.774 137.773 168.132 143.932C168.223 145.379 170.846 145.289 170.791 143.771Z" fill="#CBEE5D"/>
</svg>
