<svg width="100" height="100" viewBox="0 0 100 100" fill="none" xmlns="http://www.w3.org/2000/svg">
<circle cx="50" cy="50" r="50" fill="#FAF5EB"/>
<g clip-path="url(#clip0_245_912)">
<path d="M56.1239 47.8516L55.3225 42.845L58.7058 39.3122C59.4783 38.5079 59.0363 37.1394 57.9374 36.9668L53.319 36.2468L51.237 31.7328C50.7867 30.7601 49.217 30.7601 48.7708 31.7328L46.6888 36.2468L42.0704 36.9668C40.9675 37.1394 40.5296 38.5037 41.3021 39.3122L44.6853 42.845L43.8798 47.8516C43.698 48.997 44.896 49.8517 45.8833 49.2917L49.9977 46.9716L54.1122 49.2917C55.0995 49.8517 56.3057 49.0054 56.1239 47.8516Z" fill="#FFB60C"/>
<path d="M47.0231 55.4984L42.4047 54.7784L40.3268 50.2644C39.8766 49.2917 38.3068 49.2917 37.8607 50.2644L35.7828 54.7784L31.1561 55.4984C30.0532 55.671 29.6153 57.0353 30.3878 57.8438L33.771 61.3766L32.9696 66.3832C32.7879 67.5244 33.9817 68.3876 34.9731 67.8233L39.0876 65.5032L43.202 67.8233C44.1851 68.3791 45.3914 67.537 45.2055 66.3832L44.4041 61.3766L47.7873 57.8438C48.564 57.0353 48.1261 55.671 47.0231 55.4984Z" fill="#FFB60C"/>
<path d="M68.8437 55.4984L64.2253 54.7784L62.1474 50.2644C61.6971 49.2917 60.1274 49.2917 59.6812 50.2644L57.5951 54.7784L52.9767 55.4984C51.8737 55.6711 51.4358 57.0353 52.2083 57.8438L55.5916 61.3766L54.7902 66.3832C54.6084 67.5286 55.8023 68.3876 56.7937 67.8233L60.9081 65.5032L65.0225 67.8233C66.0057 68.3791 67.2119 67.537 67.0261 66.3832L66.2246 61.3766L69.6079 57.8438C70.3845 57.0353 69.9425 55.6711 68.8437 55.4984Z" fill="#FFB60C"/>
</g>
<defs>
<clipPath id="clip0_245_912">
<rect width="40" height="37" fill="white" transform="translate(30 31)"/>
</clipPath>
</defs>
</svg>
