<svg width="120" height="120" viewBox="0 0 120 120" fill="none" xmlns="http://www.w3.org/2000/svg">
<g id="verified 1" clip-path="url(#clip0_2087_11625)">
<g id="USER INTERFACE">
<path id="Vector" d="M116.372 30.4336C113.222 18.8391 101.163 6.77812 89.5664 3.62812C82.4555 1.85625 72.9305 0.0304687 60 0C47.0695 0.0304687 37.5445 1.85625 30.4336 3.62812C18.8391 6.77812 6.77812 18.8367 3.62812 30.4336C1.85625 37.5445 0.0304687 47.0695 0 60C0.0304687 72.9305 1.85625 82.4555 3.62812 89.5664C6.77812 101.163 18.8391 113.222 30.4336 116.372C37.5445 118.144 47.0742 119.97 60 120C72.9281 119.97 82.4555 118.144 89.5664 116.372C101.163 113.222 113.222 101.163 116.372 89.5664C118.144 82.4555 119.97 72.9258 120 60C119.97 47.0695 118.144 37.5445 116.372 30.4336Z" fill="#22A901" fill-opacity="0.1"/>
<g id="VERIFIED">
<path id="Vector_2" d="M97.5812 41.2891C95.4812 33.5594 87.4422 25.5187 79.7109 23.4187C74.9703 22.2375 68.6203 21.0203 60 21C51.3797 21.0203 45.0297 22.2375 40.2891 23.4187C32.5594 25.5187 24.5187 33.5578 22.4187 41.2891C21.2375 46.0297 20.0203 52.3797 20 61C20.0203 69.6203 21.2375 75.9703 22.4187 80.7109C24.5187 88.4422 32.5594 96.4812 40.2891 98.5812C45.0297 99.7625 51.3828 100.98 60 101C68.6188 100.98 74.9703 99.7625 79.7109 98.5812C87.4422 96.4812 95.4812 88.4422 97.5812 80.7109C98.7625 75.9703 99.9797 69.6172 100 61C99.9797 52.3797 98.7625 46.0297 97.5812 41.2891Z" fill="#22A901"/>
<path id="Vector_3" d="M79.8118 54.9584C73.0993 61.9334 66.2789 69.0654 59.5735 76.1389C59.0281 76.7159 58.3709 77.1758 57.642 77.4906C56.913 77.8053 56.1276 77.9682 55.3336 77.9693H55.3125C54.5192 77.9637 53.735 77.7994 53.0061 77.4863C52.2772 77.1732 51.6182 76.7174 51.068 76.1459C47.4844 72.4451 43.875 68.7467 40.2868 65.0787C39.7408 64.53 39.3102 63.8777 39.02 63.1602C38.7299 62.4426 38.5861 61.6743 38.5973 60.9004C38.6084 60.1265 38.7742 59.3626 39.0849 58.6537C39.3955 57.9448 39.8448 57.3052 40.4063 56.7725C41.5369 55.6787 43.0539 55.0761 44.6268 55.0958C46.1998 55.1156 47.7012 55.7561 48.804 56.8779C50.9461 59.0748 53.093 61.2787 55.2446 63.4896C60.5696 57.9115 65.918 52.3029 71.1821 46.7717C73.418 44.4279 77.1469 44.381 79.5446 46.6498C81.9422 48.9185 82.0641 52.6193 79.8118 54.9584Z" fill="white"/>
</g>
</g>
</g>
<defs>
<clipPath id="clip0_2087_11625">
<rect width="120" height="120" fill="white"/>
</clipPath>
</defs>
</svg>
