<svg width="16" height="16" viewBox="0 0 16 16" fill="none" xmlns="http://www.w3.org/2000/svg">
<g clip-path="url(#clip0_793_3160)">
<path fill-rule="evenodd" clip-rule="evenodd" d="M5.91969 15.7951C5.91969 15.9063 6.00999 15.9966 6.12121 15.9966H8.99342C9.10464 15.9966 9.19463 15.9063 9.19463 15.7951V7.9352H11.277C11.3814 7.9352 11.4685 7.8549 11.4776 7.75086L11.6779 5.38261C11.6875 5.26514 11.5951 5.16422 11.477 5.16422H9.19463V3.48426C9.19463 3.09028 9.51393 2.77098 9.9076 2.77098H11.5123C11.6238 2.77098 11.7138 2.68068 11.7138 2.56946V0.20152C11.7138 0.0902934 11.6238 0 11.5123 0H8.80096C7.20973 0 5.91969 1.28973 5.91969 2.88095V5.16422H4.48375C4.37252 5.16422 4.28223 5.25451 4.28223 5.36574V7.73368C4.28223 7.84522 4.37252 7.9352 4.48375 7.9352H5.91969V15.7951Z" fill="#0F2F65"/>
</g>
<defs>
<clipPath id="clip0_793_3160">
<rect width="15.9966" height="15.9966" fill="white"/>
</clipPath>
</defs>
</svg>
