<svg width="16" height="16" viewBox="0 0 16 16" fill="none" xmlns="http://www.w3.org/2000/svg">
<g clip-path="url(#clip0_793_3154)">
<path d="M14.5454 5.99854H13.0877V7.44956H11.6367V8.90725H13.0877V10.3583H14.5454V8.90725H15.9964V7.44956H14.5454V5.99854Z" fill="white"/>
<path d="M4.99894 12.9974C7.88367 12.9974 9.79993 10.9725 9.79993 8.11443C9.79993 7.78717 9.76594 7.53455 9.71861 7.28261H4.99961V9.00091H7.83701C7.72104 9.73076 6.97786 11.1558 4.99961 11.1558C3.2953 11.1558 1.9036 9.74409 1.9036 7.99846C1.9036 6.25282 3.29464 4.84046 4.99961 4.84046C5.97474 4.84046 6.6226 5.25637 6.99119 5.61096L8.34824 4.30857C7.47442 3.49074 6.34932 2.99951 4.99894 2.99951C2.23686 2.99951 0 5.23637 0 7.99846C0 10.7605 2.23686 12.9974 4.99894 12.9974Z" fill="white"/>
</g>
<defs>
<clipPath id="clip0_793_3154">
<rect width="15.9966" height="15.9966" fill="white"/>
</clipPath>
</defs>
</svg>
