<svg width="16" height="16" viewBox="0 0 16 16" fill="none" xmlns="http://www.w3.org/2000/svg">
<g clip-path="url(#clip0_793_3148)">
<path d="M15.9802 4.70305C15.9427 3.85309 15.8053 3.26875 15.6084 2.76241C15.4053 2.22494 15.0928 1.74375 14.6833 1.34373C14.2833 0.937485 13.799 0.621816 13.2677 0.421868C12.7584 0.224972 12.1772 0.087523 11.3272 0.050048C10.4709 0.00939926 10.199 0 8.02721 0C5.85537 0 5.58352 0.00939926 4.73039 0.0468743C3.88043 0.0843493 3.29609 0.22192 2.78987 0.418695C2.25228 0.621816 1.77109 0.934311 1.37107 1.34373C0.964828 1.74375 0.649281 2.22811 0.449211 2.75936C0.252315 3.26875 0.114867 3.84991 0.0773917 4.69988C0.036743 5.55619 0.0273438 5.82803 0.0273438 7.99987C0.0273438 10.1717 0.036743 10.4436 0.0742179 11.2967C0.111693 12.1467 0.249264 12.731 0.44616 13.2373C0.649281 13.7748 0.964828 14.256 1.37107 14.656C1.77109 15.0623 2.25545 15.3779 2.7867 15.5779C3.29609 15.7748 3.87725 15.9122 4.72734 15.9497C5.58035 15.9873 5.85232 15.9966 8.02415 15.9966C10.196 15.9966 10.4678 15.9873 11.321 15.9497C12.1709 15.9122 12.7553 15.7748 13.2615 15.5779C14.3365 15.1622 15.1865 14.3123 15.6021 13.2373C15.7989 12.7279 15.9365 12.1467 15.974 11.2967C16.0114 10.4436 16.0208 10.1717 16.0208 7.99987C16.0208 5.82803 16.0177 5.55619 15.9802 4.70305ZM14.5397 11.2342C14.5052 12.0154 14.374 12.4373 14.2646 12.7185C13.9959 13.4154 13.4428 13.9685 12.7459 14.2373C12.4646 14.3467 12.0397 14.4779 11.2615 14.5122C10.4178 14.5498 10.1647 14.5591 8.03038 14.5591C5.89602 14.5591 5.6398 14.5498 4.79911 14.5122C4.01788 14.4779 3.59601 14.3467 3.31476 14.2373C2.96797 14.1092 2.6523 13.906 2.39608 13.6404C2.13046 13.381 1.92734 13.0685 1.79916 12.7217C1.68979 12.4405 1.55857 12.0154 1.52427 11.2374C1.48667 10.3936 1.47739 10.1405 1.47739 8.0061C1.47739 5.87173 1.48667 5.61551 1.52427 4.77495C1.55857 3.99371 1.68979 3.57184 1.79916 3.2906C1.92734 2.94368 2.13046 2.62813 2.39925 2.37179C2.65852 2.10617 2.97102 1.90305 3.31794 1.775C3.59918 1.66562 4.02422 1.5344 4.80229 1.49998C5.64602 1.4625 5.89919 1.4531 8.03343 1.4531C10.171 1.4531 10.424 1.4625 11.2647 1.49998C12.0459 1.5344 12.4678 1.66562 12.749 1.775C13.0958 1.90305 13.4115 2.10617 13.6677 2.37179C13.9334 2.63118 14.1365 2.94368 14.2646 3.2906C14.374 3.57184 14.5052 3.99676 14.5397 4.77495C14.5771 5.61868 14.5865 5.87173 14.5865 8.0061C14.5865 10.1405 14.5771 10.3905 14.5397 11.2342Z" fill="white"/>
<path d="M8.02728 3.89062C5.75864 3.89062 3.91797 5.73117 3.91797 7.99993C3.91797 10.2687 5.75864 12.1092 8.02728 12.1092C10.296 12.1092 12.1366 10.2687 12.1366 7.99993C12.1366 5.73117 10.296 3.89062 8.02728 3.89062ZM8.02728 10.6655C6.5555 10.6655 5.36167 9.47183 5.36167 7.99993C5.36167 6.52803 6.5555 5.33433 8.02728 5.33433C9.49918 5.33433 10.6929 6.52803 10.6929 7.99993C10.6929 9.47183 9.49918 10.6655 8.02728 10.6655Z" fill="white"/>
<path d="M13.2586 3.72838C13.2586 4.25816 12.8291 4.68772 12.2992 4.68772C11.7694 4.68772 11.3398 4.25816 11.3398 3.72838C11.3398 3.19848 11.7694 2.76904 12.2992 2.76904C12.8291 2.76904 13.2586 3.19848 13.2586 3.72838Z" fill="white"/>
</g>
<defs>
<clipPath id="clip0_793_3148">
<rect width="15.9966" height="15.9966" fill="white"/>
</clipPath>
</defs>
</svg>