<svg width="16" height="16" viewBox="0 0 16 16" fill="none" xmlns="http://www.w3.org/2000/svg">
<g clip-path="url(#clip0_793_3151)">
<path d="M2.31038 0.8125C1.21069 0.8125 0.491699 1.53461 0.491699 2.48372C0.491699 3.41186 1.18928 4.15457 2.26818 4.15457H2.28905C3.41024 4.15457 4.108 3.41186 4.108 2.48372C4.08704 1.53461 3.41024 0.8125 2.31038 0.8125Z" fill="#0F2F65"/>
<path d="M0.682617 5.47461H3.89745V15.1466H0.682617V5.47461Z" fill="#0F2F65"/>
<path d="M11.7879 5.24805C10.0536 5.24805 8.89071 6.87771 8.89071 6.87771V5.47505H5.67578V15.147H8.89053V9.74582C8.89053 9.45667 8.91149 9.16797 8.99643 8.9612C9.22883 8.3838 9.75771 7.78563 10.6459 7.78563C11.8092 7.78563 12.2744 8.67259 12.2744 9.97283V15.147H15.489V9.60129C15.489 6.63048 13.9029 5.24805 11.7879 5.24805Z" fill="#0F2F65"/>
</g>
<defs>
<clipPath id="clip0_793_3151">
<rect width="15.9966" height="15.9966" fill="white"/>
</clipPath>
</defs>
</svg>
