<svg width="18" height="18" viewBox="0 0 18 18" fill="#0F2F65" xmlns="http://www.w3.org/2000/svg">
<g clip-path="url(#clip0_793_3157)">
<path d="M5.86259 15.7545C12.2295 15.7545 15.7113 10.4797 15.7113 5.90579C15.7113 5.75598 15.7082 5.60678 15.7015 5.45842C16.3773 4.96977 16.9647 4.36 17.4281 3.66593C16.808 3.94172 16.1404 4.12713 15.4404 4.21101C16.155 3.78232 16.7036 3.10445 16.9624 2.29637C16.2936 2.69288 15.5529 2.98095 14.7644 3.13654C14.1328 2.46372 13.2334 2.04297 12.2377 2.04297C10.3262 2.04297 8.77598 3.59309 8.77598 5.50392C8.77598 5.77568 8.80642 6.03981 8.86575 6.29322C5.98888 6.14846 3.43774 4.77116 1.73068 2.67668C1.43354 3.18812 1.26206 3.78242 1.26206 4.41654C1.26206 5.61731 1.87317 6.67765 2.80238 7.29774C2.2345 7.2803 1.70107 7.1244 1.23472 6.86492C1.2342 6.87946 1.2342 6.8936 1.2342 6.90908C1.2342 8.58549 2.42733 9.98518 4.0114 10.3023C3.72044 10.3815 3.41432 10.4241 3.0986 10.4241C2.87594 10.4241 2.65886 10.4022 2.44797 10.3617C2.88863 11.737 4.16658 12.7378 5.68162 12.7659C4.49684 13.6945 3.0044 14.2476 1.38236 14.2476C1.10337 14.2476 0.827582 14.2316 0.556641 14.1996C2.0886 15.1816 3.90771 15.7546 5.86269 15.7546" fill="#0F2F65"/>
</g>
<defs>
<clipPath id="clip0_793_3157">
<rect width="17.9962" height="17.9962" fill="white"/>
</clipPath>
</defs>
</svg>
